<svg xmlns="http://www.w3.org/2000/svg" viewBox="0 0 78.15 45.14"><defs><style>.cls-1{fill:#f6adcd;}.cls-2{fill:#b4d9e8;}.cls-3{fill:#b49c13;stroke:#b49c13;stroke-miterlimit:10;stroke-width:0.25px;}.cls-4{fill:#ef5ba1;}.cls-4,.cls-5,.cls-6{opacity:0.32;}.cls-5,.cls-7{fill:#f1f2f2;}</style></defs><g id="Layer_2" data-name="Layer 2"><g id="risba"><path class="cls-1" d="M21.19,42.83a11.81,11.81,0,0,0,2.37-3.24A1.17,1.17,0,0,0,23.15,38a1.14,1.14,0,0,0-1.56.41,10.39,10.39,0,0,1-2,2.78c-1,1,.56,2.64,1.61,1.61Z"/><path class="cls-1" d="M21.6,38.39a4.38,4.38,0,0,1-1,1.94l1.8,1.38.37-.62a1.14,1.14,0,0,0-2-1.15l-.37.62c-.66,1.09.9,2.35,1.79,1.38A6.94,6.94,0,0,0,23.81,39a1.15,1.15,0,0,0-2.21-.6Z"/><path class="cls-1" d="M23.36,36.74l-.27-.53a1.16,1.16,0,0,0-2.09.28c-.29.71-1.07,1.8-.48,2.57a1.19,1.19,0,0,0,1.56.41l.11,0a1.09,1.09,0,0,0,.56-1,1.66,1.66,0,0,0-.44-1c-.73-.83-1.85-.08-1.95.81a6.05,6.05,0,0,1-3.26,4.67l1.56,1.57a20,20,0,0,0,2.91-7.9c.21-1.43-2-2-2.2-.6a18.23,18.23,0,0,1-2.68,7.34,1.15,1.15,0,0,0,1.56,1.57,8.44,8.44,0,0,0,4.39-6.65L20.7,39l.09.11-.33-.81v.13l.57-1-.11,0,1.56.41-.06-.08.11.88.66-1.62-2.08.28.27.52c.69,1.3,2.66.15,2-1.15Z"/><path class="cls-1" d="M20.3,39.57l-.29.72c-.51,1.27,1.4,1.88,2.08.88A2.22,2.22,0,0,0,21.3,38a1.15,1.15,0,0,0-1.71,1,5.77,5.77,0,0,1-.5,2.66c-.42.7-1.12.77-1.73,1.23-1.16.88,0,2.86,1.16,2,.44-.33,1-.47,1.42-.8a4.07,4.07,0,0,0,1.12-1.25A8.08,8.08,0,0,0,21.87,39l-1.72,1c.07,0,.11-.14,0,.07l2.09.88.29-.72c.55-1.36-1.66-2-2.2-.61Z"/><path class="cls-1" d="M21.32,40.37A8.81,8.81,0,0,1,21.1,38l-2,.81a1.86,1.86,0,0,1,.43.63,1.15,1.15,0,0,0,1.56.41,1.18,1.18,0,0,0,.41-1.57,3.54,3.54,0,0,0-.79-1.09,1.16,1.16,0,0,0-2,.81,11.63,11.63,0,0,0,.3,3c.34,1.43,2.54.83,2.21-.6Z"/><path class="cls-1" d="M55.64,39.11c1,2,1.87,4.48,3.71,5.82,1.19.87,2.33-1.11,1.15-2a6.24,6.24,0,0,1-1.43-2.22L57.62,38c-.69-1.3-2.66-.15-2,1.15Z"/><path class="cls-1" d="M59.26,42.13a14.68,14.68,0,0,1-3.51-5c-.59-1.34-2.56-.18-2,1.16a16.39,16.39,0,0,0,3.87,5.45c1.08,1,2.7-.62,1.62-1.62Z"/><path class="cls-1" d="M6.45,11.81C3,13.41,4.06,18.77,8,18.66s4.95-5.19,2-7.32C6.81,9.07,2.42,12,2.65,15.67c.25,4,4.65,5.33,7.49,2.93,1.95-1.66-.66-5.11-2.77-3.59C6.31,15.9,6,15.55,6.43,14,8.65,12.66,7.19,9,4.67,9.78-.16,11.2.07,16.43,2.93,19.66c2,2.25,5-1,3.23-3.22-1.6-2.05.66-4,2.69-3.22,1.34.49,2.14,1.21,3.66,1,2-.26,3.45-3.14,1.15-4.26A12.77,12.77,0,0,0,9.75,8.72v4.4l.25.05c2.83.81,4-3.57,1.22-4.41-3.79-1.12-6.69.86-9.32,3.41-1.93,1.89.52,4.69,2.77,3.59a6.69,6.69,0,0,1,3.57-.88l-1.61-.67c.25.23.34,2.09.89,2.76,1.06,1.31,2.25,1,3.73,1.43L9.57,16.2h0a2.35,2.35,0,0,0,.82,3.12c4.37,3.15,5.06,8.21,5.92,13.13.58,3.32,3.42,6.82,7,4.48A2.28,2.28,0,0,0,21,33c-1,.48-1.82-6.05-2.05-6.81a20.65,20.65,0,0,0-3.26-6.45L11.79,22a19.75,19.75,0,0,1,3.87,8.32c.44,2.22.86,3.82,2.75,5.18,2.09,1.52,4.69-1.87,2.76-3.58l-.71-.64c-2.19-1.94-5.43,1.27-3.23,3.23l.71.64,2.77-3.59c-.9-.65-1.2-4.79-1.64-5.94a23.2,23.2,0,0,0-3.34-5.92C14,17.44,10,19.65,11.79,22a16.83,16.83,0,0,1,3.06,6.36c.43,1.87.36,3.87,1.15,5.65a5.28,5.28,0,0,0,7.34,2.89L21,33c.19-.12-.67-4.46-.77-5a25.39,25.39,0,0,0-1.48-4.9,17.51,17.51,0,0,0-6.1-7.74l.82,3.12a4.55,4.55,0,0,0,.63-2.3A2.33,2.33,0,0,0,12.46,14a10,10,0,0,0-3-.48l1.62.67c-.12-.14-.09-1.45-.26-1.83a3.29,3.29,0,0,0-1.72-1.85c-2.12-.89-4.86.38-6.75,1.31L5.13,15.4C6.5,14.07,7.86,12.53,10,13.17l1.22-4.41a4.7,4.7,0,0,0-2.68,0c-2.1.45-2.26,4.08,0,4.4a8.82,8.82,0,0,1,2.82.8l1.15-4.26c-1.52.2-3.27-1.36-5-1.3a6.82,6.82,0,0,0-4.67,2.11c-2.54,2.71-2.06,6.46.08,9.19l3.23-3.22-.27-2.26L4.13,10c-6.5,3.78-.55,13.34,5.55,9L6.91,15.37l1-1.45,1,1.36-.25.47c2.66-1.24.35-5.18-2.3-3.94Z"/><path class="cls-1" d="M13.55,22.47l1.79.53c2.3.69,3.67-2.18,2.22-3.81a13.76,13.76,0,0,1-1.79-2.57l-2,3.44a9.27,9.27,0,0,0,5.14-1.68c2.52-1.56,6.1-1.29,9-1.4,5.54-.21,11.09-.07,16.64,0s11.1.14,16.63-.33A17.43,17.43,0,0,0,67,15.45c1-.43,1.77-1,2.68-1.55a9.27,9.27,0,0,1,2.24-1.14c1.06.67,1.22.74.5.22-.88-1.65-3.82-1.41-4.17.54-.61,3.37,2.18,6.85,5.85,5.57a5.32,5.32,0,0,0,2.64-7.7c-1.59-2.6-5.39-3.69-7.88-1.75-1.66,1.3-2,3.7-3.46,5.3a32,32,0,0,0-4.06,5.41,24.89,24.89,0,0,0-2.47,6.27c-.4,1.71-.17,4.65-1.31,6.06-1.53,1.9-6.11,1.48-8.25,1.66-2.76.23-5.53.39-8.3.46a102.22,102.22,0,0,1-16.6-.48c-1.87-.26-2.48-.71-2.56-2.62,0-.95.2-2,.25-3,.17-3.35.62-6.1,2.85-8.75a2.32,2.32,0,0,0-1-3.82c-5-1.71-7.47,3.42-8,7.47-.61,4.69,1.16,9.08,6,10.48s10.88.26,15.93,0c6.51-.32,13-.52,19.46-1.86l-2.81-1.6c.62,3.09-19.34,3.18-21.66,3.19-3.88,0-6.47-1-8.94-4-.84-1-2.18-2.34-1.8-3.75s2.21-2.83,3.22-3.7c2.76-2.4,5.11-3.07,8.71-3,3.26,0,6.53,0,9.79.08,7.15.1,14,1,21.11.15l-.61-4.49c-9,3.09-18.3,4.2-27.68,5.1-5.86.57-19,.43-19,9a2.32,2.32,0,0,0,1.68,2.2c3.24.92,5.69-.78,7.78-3.13C29,26,25.8,22.76,23.83,25c-.85,1-1.81,2.39-3.34,2l1.68,2.2c0-3.63,8.88-3.84,11.12-4.06,3.69-.36,7.38-.69,11.06-1.13A100.92,100.92,0,0,0,65.5,19.47c2.27-.78,2.11-4.81-.6-4.48a77.75,77.75,0,0,1-15.48.07c-5.12-.37-10.29-.27-15.42-.3-4.54,0-7.68.87-11.23,3.79-2.54,2.08-6.11,5.48-5.41,9.12.63,3.29,4.27,7,7,8.77,4,2.64,9.14,2,13.73,1.89,5.13-.15,10.6-.29,15.57-1.68,3.46-1,6-3.42,5.24-7.19a2.33,2.33,0,0,0-2.81-1.6c-7.64,1.61-15.58,1.57-23.35,1.95-2.95.15-6.31.73-9.23,0A3.81,3.81,0,0,1,20.34,26c-.09-1.13.25-6.15,2.37-5.42l-1-3.82A17,17,0,0,0,17.55,27c-.18,3.2-1.55,7.5,1.2,10S25.83,39,29.12,39.22q7.12.38,14.24.06a88.51,88.51,0,0,0,13.31-1.2,7.12,7.12,0,0,0,5.85-5.91c.86-3.85,1.25-7.32,3.47-10.74,1.18-1.83,2.79-3.23,4.09-5,.52-.69.78-1.45,1.23-2.18a4.45,4.45,0,0,0,.34-1.07c1.07,0,1.4.52,1,1.52l-4.17.54c2.38,4.47,10.13,2.55,9.48-2.75a5.25,5.25,0,0,0-5.13-4.4c-3.83-.16-6.38,3.2-10,3.79-8.23,1.33-17,.48-25.33.4-4.35,0-8.71,0-13,.27a29.2,29.2,0,0,0-5.2.53c-2,.5-3.28,2.34-5.42,2.37a2.31,2.31,0,0,0-2,3.44,20,20,0,0,0,2.5,3.49l2.22-3.82-1.79-.54c-2.82-.84-4,3.57-1.21,4.41Z"/><path class="cls-1" d="M26.64,20.65l-.91.13L27.49,25a20.72,20.72,0,0,1,8.28-2.47c1.57-.16,6.21-1.12,7.5-.07l1.62-3.9a47.51,47.51,0,0,0-13.42,3c-3.22,1.26-8.2,3.06-9.73,6.46a2.42,2.42,0,0,0,.36,2.77c3.86,4.41,12.36,0,16.66-1.33q10.64-3.28,21.43-6c2.86-.73,1.65-5.05-1.21-4.4A181.61,181.61,0,0,1,39.24,22.7c-4.79.54-10.56-.15-14.19,3.64-1.08,1.12-.77,3.54,1,3.81,5.75.88,11.48-.26,17.16-1.19Q52.64,27.42,62,25.29l-2.58-3.35c-1,1.46-3.47,1.79-5,2.22-1.91.51-3.84.93-5.76,1.38a52.41,52.41,0,0,0-10.22,3.33c-1.7.78-1.36,3.88.55,4.17a31.73,31.73,0,0,0,10.47-.23c1.84-.31,3.65-.73,5.46-1.15.45-.1,5.34-1.48,5.46-1.36l-.67-1.61a28.74,28.74,0,0,1-3.43,1.55,24.76,24.76,0,0,1-2.7.67,9.49,9.49,0,0,0-4.77,2.2,2.31,2.31,0,0,0,1,3.82c5,1.51,10,2.73,13.07-2.31A26.8,26.8,0,0,0,66,26.53c.62-2.79.63-7.15,4-8,2.85-.77,1.64-5-1.22-4.41-3.91.82-6.47,4-7.84,7.58-1.46,3.83-1.71,12-7.08,12.43a2.28,2.28,0,0,0,0,4.56,11.13,11.13,0,0,0,6.47-1.31L57,34.77c-.2.71-10.34.34-11.49.34-3.5,0-8.92.79-10.85-2.88-1.38-2.6-5.32-.3-3.95,2.3,3,5.65,9.92,5.16,15.4,5.15a94.23,94.23,0,0,0,10.63-.32c2.21-.27,4-1.11,4.66-3.38A2.32,2.32,0,0,0,58,33.4a6.9,6.9,0,0,1-4.16.69v4.56c4.26-.37,7.25-3.23,8.86-7.09C64.5,27.3,64.41,19.65,70,18.49l-1.22-4.41c-4.64,1.24-6.08,5.51-6.89,9.77a22.24,22.24,0,0,1-2.78,8c-1.18,1.84-1.74,2.11-3.89,1.75a33.39,33.39,0,0,1-4.3-1.08l1,3.82c1.38-1.25,3.77-1.13,5.47-1.7a17.59,17.59,0,0,0,4.44-2.17c1.9-1.31,3.55-3.9,1.26-5.8s-6.53-.09-9,.46c-4.61,1.05-9.29,2.23-14,1.51l.55,4.17c4.23-2,8.83-2.74,13.32-3.85,3.43-.85,7.28-1.59,9.35-4.72,1.15-1.75-.75-3.77-2.58-3.35q-8.15,1.84-16.38,3.27c-5.5.95-11.5,2.44-17.09,1.59l1,3.81c1.95-2,4.93-1.79,7.53-2s5-.48,7.46-.84c5.69-.83,11.31-2.11,16.92-3.38L59,19Q50.46,21.12,42,23.61,38.1,24.77,34.19,26c-1.7.54-7.3,3.24-8.86,1.46l.36,2.77c1.2-2.69,6.47-4.24,9-5.08a43.66,43.66,0,0,1,10.23-2.09c1.75-.14,3.29-2.53,1.61-3.89-2.82-2.29-6.82-1.61-10.23-1.31A26.78,26.78,0,0,0,25.19,21c-2.43,1.38-.64,4.52,1.76,4.18l.9-.13c2.9-.41,1.66-4.81-1.21-4.41Z"/><path class="cls-2" d="M18.73,9.7a2.15,2.15,0,0,0-2.49,1.38,2.12,2.12,0,0,0,1,2.48,1.16,1.16,0,0,0,1.56-.4,1.17,1.17,0,0,0-.41-1.57c-.19-.09,0,.09,0,0s.1.15,0,0,0,.17,0,0c0,.05,0,.31,0,.2s-.06.08-.07.1,0,.06,0,0l-.08.06s.16-.06,0,0c.18-.06-.06,0-.15,0a1.14,1.14,0,0,0,.61-2.2Z"/><path class="cls-2" d="M17.22,8.9a6.14,6.14,0,0,0-2.26-1,1.14,1.14,0,0,0-.61,2.2c1.33.36,1.34,1.93,3.09,1.45a2.48,2.48,0,0,0,1.22-.82c.28-.29,1.12-2.75,1.48-1,.27,1.34,2.13.9,2.24-.31.44-4.83-6.65-4.57-5.92.41a1.16,1.16,0,0,0,1.1.84c1.28.09,1.42-.48,2.65.39.46.33.67.91,1.19,1.21.81.46,4.33-.23,4.55.24l1.56-1.57a4.69,4.69,0,0,0-5.31-.36c-1.2.62-.34,2.35.88,2.09L26.16,12a1.14,1.14,0,0,0,.8-1.4c-.39-1.12-3.19-3.28-3.05-.67A1.16,1.16,0,0,0,25.05,11c.31,0,1.48-.53,1.6-.51-.6-.12.73,1.27.84,1.36a4,4,0,0,0,4.15.56,1.16,1.16,0,0,0,.79-1.4l.12-.81,1.79,1.38A1.82,1.82,0,0,0,34.49,10a1.16,1.16,0,0,0-1.68-.69,5.82,5.82,0,0,0-1.41,1.39,1.15,1.15,0,0,0,.68,1.68,28.18,28.18,0,0,0,4.85.4c1,0,4.09-1,4.7-.28A1.15,1.15,0,0,0,43,12.7c2.48-1.16,5.94,1,6.88-2.6a1.16,1.16,0,0,0-1.4-1.41,3,3,0,0,0-2.43,1.7,1.15,1.15,0,0,0,1,1.72,14.14,14.14,0,0,1,5.28.73,1.16,1.16,0,0,0,1.4-.8,2,2,0,0,0,0-1.49c-.43-1.4-2.63-.8-2.2.61l0,.27,1.41-.79a15.75,15.75,0,0,0-5.89-.82l1,1.72,1.07-.64L47.69,9.49c-.26,1-3.06.46-3.76.55a6.65,6.65,0,0,0-2.07.69l1.39.18a2.77,2.77,0,0,0-2.73-1c-2.76.25-5,.66-7.83.27l.68,1.68.59-.56-1.68-.69.09-.16c-.47,1.07.91,2.49,1.79,1.38,1.13-1.42.75-3.78-1.38-4s-3,2.1-2.55,3.81l.8-1.4c-2.07.85-2.17-1.54-3.66-2.08-1.08-.39-1.39.54-2.32.59l1.14,1.14c-.1-1.94-2-4.52-4-2.62a2,2,0,0,0-.51,2.37c.49,1,2.91,1,3.08,1.53l.8-1.41-3.08.67.88,2.08a2.47,2.47,0,0,1,3,.36c1,.77,2-.65,1.56-1.56-1-2.23-2.61-1.89-4.55-1.61-.81.11-.77.27-1.61-.46-.33-.28-.54-.7-.93-.93-1.29-.77-1.93.13-3.27,0l1.1.84,1.44.2,2.24-.3C22,7.59,21,6,19.22,6.51c-1.11.31-1,1.1-1.79,1.78-1,.89-1.35-.1-2.47-.4l-.61,2.2a3.2,3.2,0,0,1,1.72.78c1.2.85,2.34-1.13,1.15-2Z"/><path class="cls-2" d="M53,13.08a7.27,7.27,0,0,0,4.34-.52,1.15,1.15,0,0,0,0-2l-.57.26a1.15,1.15,0,0,0,.51,1.91l.94.18a1.16,1.16,0,0,0,1.44-1.1L59.5,12l-1.45-1.1c-.06,3.2,4,1.9,5.72,1.14,1.34-.59.18-2.56-1.15-2,0,0-2.28.8-2.28.83a1.15,1.15,0,0,0-1.45-1.1,1.86,1.86,0,0,0-1.56,2l1.44-1.11-.94-.18.51,1.91c1.46-1.19.13-3.24-1.57-3a1.63,1.63,0,0,0-.63,3.07v-2a4.42,4.42,0,0,1-2.59.29c-1.43-.25-2,1.95-.6,2.2Z"/><path class="cls-2" d="M54.35,5.46a2.17,2.17,0,0,0,2.11-.1,2.1,2.1,0,0,0,1-1.75,2.16,2.16,0,0,0-3.12-1.85A1.14,1.14,0,0,0,54,3.32a1.18,1.18,0,0,0,1.56.41.38.38,0,0,1-.25.07c.12,0,.11,0-.06,0,.12,0,.11,0,0,0l.14.08c-.1-.09-.12-.1-.06,0s0,0,0-.07c.06.11.06.09,0-.05,0,.12,0,.1,0-.06s0-.18,0,0c.07-.15.07-.16,0-.05l.07-.1c-.09.08-.08.08,0,0-.11.06-.1.06,0,0l-.17,0c.17,0,.19,0,.06,0a.32.32,0,0,1,.25.07,1.14,1.14,0,0,0-1.15,2Z"/><path class="cls-2" d="M24.75,5.62a1.81,1.81,0,0,0,2.43.64,2.27,2.27,0,0,0,1.07-2.12A2.32,2.32,0,0,0,26.83,2a1.93,1.93,0,0,0-2.28.75,1.14,1.14,0,0,0,2,1.15.5.5,0,0,1-.39.26H26c-.16,0-.06-.17-.06,0,0-.22,0,.21,0,0,0,.05.06.35,0,.14l0,.11c.05-.1,0-.09,0,0,.24-.21.56-.34.79,0a1.14,1.14,0,1,0-2,1.16Z"/><path class="cls-2" d="M61.5,16.39a1.87,1.87,0,0,0,1.74-1.34,1.71,1.71,0,0,0-1-2,1.58,1.58,0,0,0-2,.7,1.64,1.64,0,0,0,.56,2.14,1.15,1.15,0,0,0,1.56-.41,1.17,1.17,0,0,0-.41-1.56.8.8,0,0,1,.38.66q0-.18,0,.15c0-.11,0-.07-.07.13.06-.1,0-.06-.08.11a.83.83,0,0,1-.32.2.81.81,0,0,1-.38,0c-.16-.09-.21-.1-.13-.06s0,0-.11-.09-.14-.18-.07-.08a.62.62,0,0,1-.1-.35c0-.19,0-.23,0-.11a.61.61,0,0,1,.17-.29c-.08.09-.06.07.09,0q-.16.09.09,0c-.11,0-.08,0,.12,0a1.15,1.15,0,0,0,0,2.29Z"/><path class="cls-2" d="M50.89,9.3a2,2,0,0,0,1,.76A1.83,1.83,0,0,0,53.1,10a1.76,1.76,0,0,0-.76-3.38A1.83,1.83,0,0,0,50.62,8.4a1.14,1.14,0,0,0,2.28,0c0-.1,0-.09,0,0a.46.46,0,0,1-.08.25c.07-.13-.05.06-.08.08.15-.15-.22.13,0,0l-.16.07c.09,0,.07,0,0,0s-.12,0,0,0l-.18,0-.15-.06-.05,0c-.09-.07-.1-.07,0,0l-.11-.15c.11.18-.1-.26,0-.07s0-.24,0-.11.08-.29,0-.12L52,8.11c.13-.14.16-.18.1-.12s.23-.16.07-.07c.19-.07.24-.09.15-.07s0,0,.17,0c0,0-.24,0,0,0h.08l.14.06,0,0a.63.63,0,0,1,.26.25,1.31,1.31,0,0,0-.68-.52A1.14,1.14,0,0,0,50.89,9.3Z"/><path class="cls-2" d="M60.2,17.22v-.15a1,1,0,0,0-.1-.44,1,1,0,0,0-.24-.37.8.8,0,0,0-.37-.23.82.82,0,0,0-.44-.1l-.3,0a1.2,1.2,0,0,0-.5.29l-.18.24a1,1,0,0,0-.16.57v.15a.92.92,0,0,0,.1.44.85.85,0,0,0,.24.37.88.88,0,0,0,.36.24,1,1,0,0,0,.44.1l.31-.05a1.1,1.1,0,0,0,.5-.29L60,17.8a1.29,1.29,0,0,0,.16-.58Z"/><path class="cls-2" d="M60,18.29v.15a1.27,1.27,0,0,0,.34.81,1.28,1.28,0,0,0,.8.33l.31,0a1.1,1.1,0,0,0,.5-.29l.18-.23a1.18,1.18,0,0,0,.16-.58v-.15a1,1,0,0,0-.1-.44,1,1,0,0,0-.24-.37.75.75,0,0,0-.37-.23.74.74,0,0,0-.44-.1l-.3,0a1.1,1.1,0,0,0-.5.29l-.18.23a1.18,1.18,0,0,0-.16.58Z"/><path class="cls-2" d="M62.1,25.64a1.88,1.88,0,0,0,0-3.75,1.88,1.88,0,0,0,0,3.75Z"/><path class="cls-2" d="M14.26,17.88l.15.15a1,1,0,0,0,.37.24,1,1,0,0,0,.88,0A1,1,0,0,0,16,18l.17-.23a1.08,1.08,0,0,0,.16-.58l0-.3a1.1,1.1,0,0,0-.29-.5l-.16-.16a.77.77,0,0,0-.36-.23.86.86,0,0,0-.44-.1.82.82,0,0,0-.44.1.8.8,0,0,0-.37.23l-.18.24a1.13,1.13,0,0,0-.15.57l0,.31a1.1,1.1,0,0,0,.29.5Z"/><path class="cls-3" d="M15.58,11.1s-.16-.09-.44-.28A10.21,10.21,0,0,1,14,9.89a8,8,0,0,0-2-1.3,8.77,8.77,0,0,0-3.1-.74A9.07,9.07,0,0,0,5,8.43a8.05,8.05,0,0,0-3.54,2.68A6.21,6.21,0,0,0,.2,15.83a5.39,5.39,0,0,0,1,2.44A4.82,4.82,0,0,0,3.4,19.9a7.06,7.06,0,0,0,5.25,0,5.19,5.19,0,0,0,1.89-8.09,4.53,4.53,0,0,0-3.47-1.67,3.67,3.67,0,0,0-2.85,1.4,3,3,0,0,0-.59,2.33,2.86,2.86,0,0,0,.62,1.39,1.64,1.64,0,0,0,.29.27c.07.06.11.08.11.07s-.13-.13-.33-.4a2.88,2.88,0,0,1-.51-1.36,2.82,2.82,0,0,1,.61-2.14A3.45,3.45,0,0,1,7.07,10.5a4.25,4.25,0,0,1,3.18,1.59,4.79,4.79,0,0,1-1.78,7.44,6.72,6.72,0,0,1-4.91-.05A4.64,4.64,0,0,1,.64,15.76a5.86,5.86,0,0,1,1.17-4.4A7.82,7.82,0,0,1,5.16,8.78a8.85,8.85,0,0,1,3.67-.61,8.67,8.67,0,0,1,3,.66,8.39,8.39,0,0,1,2,1.19,8.56,8.56,0,0,0,1.24.88A1.42,1.42,0,0,0,15.58,11.1Z"/><path class="cls-3" d="M16.32,12.51s0-.2,0-.52a3,3,0,0,1,.2-1.32,1.94,1.94,0,0,1,.5-.74,2,2,0,0,1,.87-.47,1.5,1.5,0,0,1,1.05.15,2.16,2.16,0,0,1,.85.82,2.47,2.47,0,0,1,.12,2.25,2.3,2.3,0,0,1-1.47,1.16,2.6,2.6,0,0,1-1.32,0c-.31-.07-.48-.15-.5-.12s.12.16.45.29a2.49,2.49,0,0,0,1.45.11,2.61,2.61,0,0,0,1.76-1.29,2.82,2.82,0,0,0-.1-2.67,2.48,2.48,0,0,0-1-1,1.91,1.91,0,0,0-1.34-.16,2.3,2.3,0,0,0-1.59,1.51A2.84,2.84,0,0,0,16.13,12,1,1,0,0,0,16.32,12.51Z"/><path class="cls-3" d="M13.54,8.72c.06,0,.17-.17.46-.29a2.19,2.19,0,0,1,1.21-.09,3.7,3.7,0,0,1,1.19.45c.3.17.47.3.52.25s-.05-.25-.32-.51a2.6,2.6,0,0,0-1.31-.64,1.89,1.89,0,0,0-1.46.27C13.49,8.42,13.48,8.71,13.54,8.72Z"/><path class="cls-3" d="M13.92,14.3s0-.08,0-.18a.59.59,0,0,1,.17-.32.55.55,0,0,1,.47-.13.66.66,0,0,1,.5.34.52.52,0,0,1,0,.55.58.58,0,0,1-.44.23c-.32,0-.46-.18-.52-.15s0,.08,0,.2a.68.68,0,0,0,.48.27.85.85,0,0,0,.78-.3.9.9,0,0,0,0-1,1,1,0,0,0-.86-.53.87.87,0,0,0-.76.35.61.61,0,0,0-.08.55C13.83,14.27,13.89,14.31,13.92,14.3Z"/><path class="cls-3" d="M16.24,14.93c.06,0,.15-.12.34-.17a.33.33,0,0,1,.46.29c0,.27-.19.38-.4.36s-.31-.13-.37-.1,0,.06,0,.15a.48.48,0,0,0,.28.26.67.67,0,0,0,.6,0A.73.73,0,0,0,17,14.39a.69.69,0,0,0-.6.08.52.52,0,0,0-.23.31C16.19,14.87,16.21,14.92,16.24,14.93Z"/><path class="cls-3" d="M15.12,16.75s-.08-.06-.21,0a.7.7,0,0,0-.36.43.92.92,0,0,0,0,.41.8.8,0,0,0,.25.43.92.92,0,0,0,1.07,0,1,1,0,0,0,.36-.44.89.89,0,0,0,0-.53,1.1,1.1,0,0,0-.47-.68,1,1,0,0,0-.52-.15c-.15,0-.2.1-.18.12s.08,0,.16.06a1.13,1.13,0,0,1,.34.23.84.84,0,0,1,.26.49.53.53,0,0,1-.25.52.51.51,0,0,1-.55,0,.49.49,0,0,1-.17-.44C14.89,16.9,15.13,16.81,15.12,16.75Z"/><path class="cls-3" d="M60.34,12.46a10.73,10.73,0,0,0-1.56-.09l-4.26-.07c-3.59,0-8.56-.06-14.05-.05s-10.45,0-14,.08l-4.25.07a10.73,10.73,0,0,0-1.56.09,10.73,10.73,0,0,0,1.56.09l4.26.07c3.59,0,8.56.06,14,.06s10.46,0,14.05-.08l4.26-.08A10.73,10.73,0,0,0,60.34,12.46Z"/><path class="cls-3" d="M71.7,14.06a.54.54,0,0,0-.49.22,1.1,1.1,0,0,0-.24.63,1.21,1.21,0,0,0,.28.88,1.44,1.44,0,0,0,1.09.38,2.5,2.5,0,0,0,1.28-.48,2.93,2.93,0,0,0,1-1.23,2.62,2.62,0,0,0,.14-1.76,2.12,2.12,0,0,0-1.4-1.36,4.21,4.21,0,0,0-2.09-.1,5.34,5.34,0,0,0-2.06.85,4.72,4.72,0,0,0-.88.8,2.32,2.32,0,0,0-.49,1.16,4.39,4.39,0,0,0,2.43,4.25,4.85,4.85,0,0,0,2.63.58,5.61,5.61,0,0,0,2.61-.94,6.07,6.07,0,0,0,1.86-2.05,5.63,5.63,0,0,0,.68-2.6,6.1,6.1,0,0,0-.49-2.55,5.38,5.38,0,0,0-1.47-2A6.09,6.09,0,0,0,71.73,7.5a9.1,9.1,0,0,0-3.8,1.05,12.67,12.67,0,0,0-2.41,2.14,6.28,6.28,0,0,1-2,1.22,9.36,9.36,0,0,1-2,.45,2.27,2.27,0,0,0,.54,0,6,6,0,0,0,1.51-.3,6.33,6.33,0,0,0,2.14-1.2,13.35,13.35,0,0,1,2.4-2.05,8.91,8.91,0,0,1,3.66-1,5.71,5.71,0,0,1,4,1.18,5.34,5.34,0,0,1,1.78,4.22,5.23,5.23,0,0,1-.63,2.39,5.54,5.54,0,0,1-1.72,1.89,5.09,5.09,0,0,1-2.38.86,4.27,4.27,0,0,1-2.39-.52,4,4,0,0,1-2.23-3.79,2.53,2.53,0,0,1,1.19-1.69,5,5,0,0,1,1.9-.81,3.72,3.72,0,0,1,1.91.07,1.76,1.76,0,0,1,1.2,1.12,2.23,2.23,0,0,1-.1,1.55,2.68,2.68,0,0,1-.85,1.14,1.68,1.68,0,0,1-2.09.18,1,1,0,0,1-.27-.75,1,1,0,0,1,.17-.58A.87.87,0,0,1,71.7,14.06Z"/><path class="cls-3" d="M20.15,37.66s-.3,0-.81-.09a3.56,3.56,0,0,1-1.81-1.16,7.92,7.92,0,0,1-1.34-3l-1.11-4c-.41-1.41-.78-2.75-1.19-4a17.74,17.74,0,0,0-1.36-3.12,9.78,9.78,0,0,0-1.34-1.85c-.37-.4-.61-.58-.63-.56s.18.25.5.67a12.19,12.19,0,0,1,1.19,1.9,19.41,19.41,0,0,1,1.24,3.09c.39,1.2.74,2.55,1.15,3.95l1.15,4a7.61,7.61,0,0,0,1.5,3.07,3.38,3.38,0,0,0,2,1.12A1.38,1.38,0,0,0,20.15,37.66Z"/><path class="cls-3" d="M59.24,38s.33.1.78-.22a3.38,3.38,0,0,0,.69-.68,8.29,8.29,0,0,0,.75-1l.36-.64c.11-.23.23-.46.35-.72.21-.5.43-1,.61-1.63.37-1.17.67-2.49,1-3.85A24.08,24.08,0,0,1,65,25.55a14.81,14.81,0,0,1,1.58-2.76c1.08-1.48,2-2.21,1.91-2.27a2.23,2.23,0,0,0-.65.47,12.24,12.24,0,0,0-1.51,1.6,13.27,13.27,0,0,0-1.71,2.79,21.71,21.71,0,0,0-1.24,3.8c-.34,1.36-.62,2.67-1,3.82-.17.58-.37,1.12-.56,1.62l-.31.7-.33.63a9.52,9.52,0,0,1-.67,1,4.12,4.12,0,0,1-.59.7A2,2,0,0,1,59.24,38Z"/><path class="cls-3" d="M56.69,38.06a8.67,8.67,0,0,0-1.45,0l-4,.08c-3.33.06-7.92.12-13,.05s-9.68-.24-13-.39l-3.94-.18a8.49,8.49,0,0,0-1.45,0,8.72,8.72,0,0,0,1.44.19c.92.1,2.27.21,3.93.32,3.32.24,7.93.46,13,.53s9.69,0,13-.19c1.67-.07,3-.15,3.94-.22A8.82,8.82,0,0,0,56.69,38.06Z"/><path class="cls-3" d="M61,44.69a10,10,0,0,1-1.42-.49,5.66,5.66,0,0,1-1.29-1,13,13,0,0,1-1.26-1.55c-.42-.59-.82-1.16-1.23-1.65a7,7,0,0,0-1.23-1.18,2.46,2.46,0,0,0-1.44-.63c0,.07.54.26,1.24.88a8.16,8.16,0,0,1,1.1,1.19c.38.49.76,1.06,1.19,1.65A10.21,10.21,0,0,0,58,43.55a5,5,0,0,0,1.45.94A2.15,2.15,0,0,0,61,44.69Z"/><path class="cls-3" d="M58.16,39.29c-.06,0-.12.34,0,.91a5.06,5.06,0,0,0,.79,2,4.82,4.82,0,0,0,1.59,1.51c.48.26.73.46.78.43s0-.11-.11-.24a2.81,2.81,0,0,0-.49-.45A6.49,6.49,0,0,1,59.28,42a6.33,6.33,0,0,1-.85-1.86C58.28,39.62,58.23,39.28,58.16,39.29Z"/><path class="cls-3" d="M60.94,14.31s0-.13.15-.32a1.11,1.11,0,0,1,.69-.51,1,1,0,0,1,1,.48,1.22,1.22,0,0,1-.07,1.42,1.51,1.51,0,0,1-1.35.65,1.15,1.15,0,0,1-1-.64,1.32,1.32,0,0,1-.09-.87c.06-.21.14-.32.11-.34s-.14.05-.27.27a1.38,1.38,0,0,0,.4,1.68,1.56,1.56,0,0,0,.83.32,1.89,1.89,0,0,0,1.75-.8,1.72,1.72,0,0,0,.34-1,1.53,1.53,0,0,0-1-1.48,1.16,1.16,0,0,0-.78,0,1.21,1.21,0,0,0-.76.75C60.85,14.17,60.91,14.31,60.94,14.31Z"/><path class="cls-3" d="M58.41,17.13s0-.09.06-.21a1,1,0,0,1,.23-.44.6.6,0,0,1,1,.41,1.18,1.18,0,0,1-.32.79.55.55,0,0,1-.59.17.63.63,0,0,1-.35-.3c0-.11,0-.19-.08-.2s-.09.06-.09.23a.68.68,0,0,0,.38.56.81.81,0,0,0,.5.1,1.14,1.14,0,0,0,.51-.24,1.51,1.51,0,0,0,.5-1.11,1,1,0,0,0-.24-.65,1,1,0,0,0-.55-.33.92.92,0,0,0-.57.06.91.91,0,0,0-.54,1C58.32,17.08,58.38,17.14,58.41,17.13Z"/><path class="cls-3" d="M60.51,18.16c.06,0,.13-.17.36-.28a.58.58,0,0,1,.39-.06.47.47,0,0,1,.29.31.46.46,0,0,1,0,.42.51.51,0,0,1-.33.19c-.25.06-.42,0-.47,0s0,.08.07.16a.68.68,0,0,0,.41.17.85.85,0,0,0,.64-.24A.82.82,0,0,0,62,18a.84.84,0,0,0-.65-.57.82.82,0,0,0-.65.2.66.66,0,0,0-.22.38C60.45,18.1,60.48,18.16,60.51,18.16Z"/><path class="cls-3" d="M61.23,23.59c.05,0-.13-.29,0-.65a.61.61,0,0,1,.45-.38.6.6,0,0,1,.62.27,1.1,1.1,0,0,1,.2.76.58.58,0,0,1-.32.49.61.61,0,0,1-.43,0c-.11,0-.17-.08-.19-.06s0,.11.1.21a.68.68,0,0,0,.62.11.73.73,0,0,0,.4-.24.91.91,0,0,0,.23-.47,1.41,1.41,0,0,0-.24-1.11,1.05,1.05,0,0,0-.5-.38.89.89,0,0,0-.6,0,.9.9,0,0,0-.65.7.8.8,0,0,0,.12.6C61.12,23.58,61.2,23.61,61.23,23.59Z"/><path class="cls-3" d="M32.28,29.72s-.15.15-.15.5a1.33,1.33,0,0,0,.19.61,1.58,1.58,0,0,0,.63.56,2.3,2.3,0,0,0,2.1-.17,4.36,4.36,0,0,0,1.68-1.93c.4-.81.69-1.58,1-2.28l.74-1.88a4.91,4.91,0,0,1,.55-1.2c.19-.23.36-.29.35-.33s-.21,0-.48.21a3.89,3.89,0,0,0-.72,1.2l-.83,1.83c-.31.69-.62,1.48-1,2.25a4.25,4.25,0,0,1-1.49,1.77,2,2,0,0,1-1.76.23,1.22,1.22,0,0,1-.77-.89C32.25,29.91,32.32,29.73,32.28,29.72Z"/><path class="cls-3" d="M37.53,27.52a1.4,1.4,0,0,0,.64.16,3.25,3.25,0,0,0,1.78-.3,2.32,2.32,0,0,0,.93-.89,1.83,1.83,0,0,0,.2-1.5A2.21,2.21,0,0,0,40,23.75a4.66,4.66,0,0,0-1.65-.5,6.77,6.77,0,0,0-3.24.36,4.7,4.7,0,0,0-2.19,1.52,1.81,1.81,0,0,0-.35,1,1.57,1.57,0,0,0,.19.78c.23.39.5.46.5.43s-.19-.15-.34-.51a1.41,1.41,0,0,1-.09-.68,1.52,1.52,0,0,1,.35-.84A4.58,4.58,0,0,1,35.25,24a6.57,6.57,0,0,1,3-.31,4.47,4.47,0,0,1,1.49.45,1.78,1.78,0,0,1,.91,1,1.43,1.43,0,0,1-.13,1.18,2.17,2.17,0,0,1-.76.8,3.37,3.37,0,0,1-1.61.4A3.45,3.45,0,0,0,37.53,27.52Z"/><path class="cls-3" d="M45.47,34.19s0,0,.09,0a.92.92,0,0,0,.3,0,1.83,1.83,0,0,0,1-.5,2.44,2.44,0,0,0,.73-1.63,3,3,0,0,0-1-2.13,4.67,4.67,0,0,0-2.6-1.2,3.61,3.61,0,0,0-1.62.14,3,3,0,0,0-1.42,1,2.76,2.76,0,0,0-.42.84,1.56,1.56,0,0,0,0,1,.69.69,0,0,0,.49.4,1,1,0,0,0,.57-.09,3.31,3.31,0,0,0,.82-.51,6.7,6.7,0,0,0,1.93-3.36,12.85,12.85,0,0,1,1.33-3.48,4,4,0,0,1,1.19-1.22,2.68,2.68,0,0,1,.74-.32.48.48,0,0,1,.55.15,1.53,1.53,0,0,1,.07,1.39,3,3,0,0,1-.78,1.22A5.67,5.67,0,0,1,45.1,27.2a2.67,2.67,0,0,1-2.13,0,1.29,1.29,0,0,1-.54-1.4,1.34,1.34,0,0,1,.63-.8c.21-.12.34-.14.34-.16s-.14,0-.39.08a1.39,1.39,0,0,0-.75.83,1.48,1.48,0,0,0,.58,1.66,2.87,2.87,0,0,0,2.34.07,5.82,5.82,0,0,0,2.54-1.3,3.49,3.49,0,0,0,.9-1.36,1.92,1.92,0,0,0-.12-1.78.82.82,0,0,0-.45-.31,1,1,0,0,0-.53,0,3.21,3.21,0,0,0-.87.37,4.36,4.36,0,0,0-1.33,1.34,12.63,12.63,0,0,0-1.39,3.59,6.3,6.3,0,0,1-1.78,3.15c-.41.34-1.1.74-1.2.37a1.08,1.08,0,0,1,0-.71,2.07,2.07,0,0,1,.34-.7,2.85,2.85,0,0,1,2.66-1,4.48,4.48,0,0,1,2.42,1.06,2.7,2.7,0,0,1,.95,1.9,2.26,2.26,0,0,1-.59,1.5,1.84,1.84,0,0,1-.9.54C45.6,34.18,45.47,34.17,45.47,34.19Z"/><path class="cls-3" d="M22.16,8.91s.12-.1.2-.33a2.27,2.27,0,0,0,.08-1.06,2.88,2.88,0,0,0-.69-1.42A2.79,2.79,0,0,0,20,5.24a3.38,3.38,0,0,0-1.9.34,2.92,2.92,0,0,0-1.18,1,1.75,1.75,0,0,0-.3,1c0,.26.08.38.1.38s0-.14.07-.36a2,2,0,0,1,.4-.85A2.84,2.84,0,0,1,18.29,6,3.18,3.18,0,0,1,20,5.69a2.48,2.48,0,0,1,1.48.7,2.63,2.63,0,0,1,.68,1.2A4.9,4.9,0,0,1,22.16,8.91Z"/><path class="cls-3" d="M26.88,12.7s.17,0,.35-.21a1.43,1.43,0,0,0,.24-1.08A2.69,2.69,0,0,0,26.76,10a3.25,3.25,0,0,0-1.69-1,2.74,2.74,0,0,0-2,.25,2.93,2.93,0,0,0-1.14,1.16,2.41,2.41,0,0,0-.27,1c0,.26.06.39.08.39a4.92,4.92,0,0,1,.47-1.28,2.81,2.81,0,0,1,1.06-.94A2.39,2.39,0,0,1,25,9.35a3.14,3.14,0,0,1,1.49.88,2.86,2.86,0,0,1,.71,1.23,1.42,1.42,0,0,1-.08.93C27,12.59,26.86,12.66,26.88,12.7Z"/><path class="cls-3" d="M31.9,11.69c.05,0,.14-.36-.14-.85A2.26,2.26,0,0,0,30,9.78a3.37,3.37,0,0,0-2,.59c-.44.3-.64.55-.61.59s.32-.1.77-.3a3.73,3.73,0,0,1,1.79-.42,2.21,2.21,0,0,1,1.56.78C31.79,11.38,31.83,11.7,31.9,11.69Z"/><path class="cls-3" d="M34.49,12.09c.06,0,.09-.18-.07-.39a1,1,0,0,0-.86-.37,1.61,1.61,0,0,0-.82.32c-.17.14-.26.25-.23.31s.17,0,.37,0a4.2,4.2,0,0,1,.71-.15,1.1,1.1,0,0,1,.61.14C34.35,12,34.43,12.11,34.49,12.09Z"/><path class="cls-3" d="M34.55,10.23s.11-.07.18-.27a1.65,1.65,0,0,0,0-.91,2.27,2.27,0,0,0-.67-1.18,2.5,2.5,0,0,0-1.54-.63,3.31,3.31,0,0,0-1.6.34,3.12,3.12,0,0,0-1.05.83c-.46.62-.46,1.13-.41,1.13s.19-.43.66-.92a3.26,3.26,0,0,1,2.38-.92,2.15,2.15,0,0,1,1.28.49,2.11,2.11,0,0,1,.64.94A3.76,3.76,0,0,1,34.55,10.23Z"/><path class="cls-3" d="M39,12.16c.05,0,0-.26-.15-.6a2,2,0,0,0-2.68-.69c-.33.19-.46.4-.42.45s.24-.06.55-.16a2.17,2.17,0,0,1,2.29.6C38.83,12,38.94,12.18,39,12.16Z"/><path class="cls-3" d="M59.91,11.56c.07,0,.18-.21.44-.49a2.36,2.36,0,0,1,1.24-.7,2.31,2.31,0,0,1,1.41.22c.34.17.53.34.58.29s-.06-.29-.41-.57a2.13,2.13,0,0,0-1.66-.39,2.1,2.1,0,0,0-1.41,1C59.86,11.26,59.86,11.54,59.91,11.56Z"/><path class="cls-3" d="M57.28,12c0-.06-.2-.28-.29-.75a1.69,1.69,0,0,1,0-.8,1.39,1.39,0,0,1,.52-.77,1.35,1.35,0,0,1,.91-.19,1.63,1.63,0,0,1,.75.28c.4.26.51.57.58.54s0-.09,0-.24a1.28,1.28,0,0,0-.36-.55,1.87,1.87,0,0,0-.9-.45,1.71,1.71,0,0,0-1.22.23,1.67,1.67,0,0,0-.68,1.05,1.77,1.77,0,0,0,.07,1,1.24,1.24,0,0,0,.37.55C57.17,12,57.26,12.05,57.28,12Z"/><path class="cls-3" d="M52.93,11.9c.06,0,.18-.09.41-.2a2.05,2.05,0,0,1,.94-.2,5.33,5.33,0,0,1,1,.16c.27.05.46.07.48,0s-.12-.18-.37-.32A2.73,2.73,0,0,0,54.29,11a1.6,1.6,0,0,0-1.14.4C52.91,11.66,52.88,11.87,52.93,11.9Z"/><path class="cls-3" d="M50.91,9s-.09-.12-.17-.34a1,1,0,0,1,.06-.92A1.8,1.8,0,0,1,52,6.88a1.69,1.69,0,0,1,1.6.38,1.37,1.37,0,0,1,.38.77,1.06,1.06,0,0,1-.16.75,1.9,1.9,0,0,1-2.18.7c-.22-.08-.34-.16-.36-.14s.06.15.29.3a1.72,1.72,0,0,0,1.11.23A2.11,2.11,0,0,0,54.12,9a1.46,1.46,0,0,0,.26-1,1.78,1.78,0,0,0-1.5-1.55,2.21,2.21,0,0,0-1,.06,2.08,2.08,0,0,0-1.34,1.06,1.29,1.29,0,0,0-.1.68,1,1,0,0,0,.17.48C50.74,8.93,50.9,9,50.91,9Z"/><path class="cls-3" d="M44.25,12.17s0-.33-.33-.7a2.45,2.45,0,0,0-1.67-.84,2.5,2.5,0,0,0-1.78.59c-.36.32-.47.61-.42.64s.25-.16.62-.38a2.64,2.64,0,0,1,1.55-.39,2.69,2.69,0,0,1,1.48.61C44,12,44.19,12.2,44.25,12.17Z"/><path class="cls-3" d="M41.46,10.19s0-.28-.36-.54a1.87,1.87,0,0,0-1.56-.34,1.85,1.85,0,0,0-1.25,1c-.18.38-.15.65-.09.65s.15-.2.36-.48a2,2,0,0,1,1.08-.72,2,2,0,0,1,1.28.17C41.24,10.07,41.41,10.24,41.46,10.19Z"/><path class="cls-3" d="M49.75,12c.06,0,.1-.32-.2-.68a1.56,1.56,0,0,0-.65-.45,2.27,2.27,0,0,0-.94-.1,4.37,4.37,0,0,0-.89.18,2.25,2.25,0,0,0-.7.31,1,1,0,0,0-.34.42c0,.12,0,.2,0,.2s.16-.2.5-.34a2.66,2.66,0,0,1,.63-.18c.26,0,.54-.11.82-.14a1.84,1.84,0,0,1,1.34.33C49.61,11.76,49.68,12,49.75,12Z"/><path class="cls-3" d="M46.06,10.75c0-.05-.05-.19-.28-.31a1.59,1.59,0,0,0-1.87.36c-.16.2-.19.37-.15.4s.18,0,.36-.16a2.4,2.4,0,0,1,.75-.28,2.43,2.43,0,0,1,.8,0C45.88,10.77,46,10.81,46.06,10.75Z"/><path class="cls-3" d="M44.65,10.15c.06,0,.11-.19,0-.44a1,1,0,0,0-1.76.21c-.07.28,0,.44.08.43s.1-.14.22-.3a.82.82,0,0,1,.56-.37.85.85,0,0,1,.64.23C44.52,10,44.59,10.16,44.65,10.15Z"/><path class="cls-3" d="M56.83,9.83c0-.06-.11-.16-.36-.24a1.41,1.41,0,0,0-1,0,1,1,0,0,0-.53,1c.07.32.29.39.32.34s0-.18,0-.36a.81.81,0,0,1,.4-.56,2,2,0,0,1,.81-.12C56.65,9.91,56.81,9.89,56.83,9.83Z"/><path class="cls-3" d="M24.59,3.4a3,3,0,0,1,1.06-.52,1.84,1.84,0,0,1,1.19.18,1.35,1.35,0,0,1,.72,1.16,1.79,1.79,0,0,1-.47,1.35A1.37,1.37,0,0,1,26,6a1.31,1.31,0,0,1-.74-.34c-.14-.14-.21-.25-.24-.23s0,.14.11.34A1.26,1.26,0,0,0,26,6.3a1.63,1.63,0,0,0,1.41-.43A2.14,2.14,0,0,0,28,4.19a2,2,0,0,0-.3-.92A1.85,1.85,0,0,0,27,2.68a2,2,0,0,0-1.45-.11,1.69,1.69,0,0,0-.83.51C24.6,3.25,24.57,3.38,24.59,3.4Z"/><path class="cls-3" d="M28,8.83c.05,0,.06-.29-.19-.64a1.58,1.58,0,0,0-1.5-.6,1.56,1.56,0,0,0-1.2,1.09c-.12.41,0,.67,0,.66s.09-.24.26-.54a1.45,1.45,0,0,1,1-.76,1.47,1.47,0,0,1,1.18.37C27.85,8.63,28,8.85,28,8.83Z"/><path class="cls-3" d="M25.24,7.72c.06,0,0-.25-.16-.56a1.89,1.89,0,0,0-1.17-.8,1.91,1.91,0,0,0-1.4.22c-.32.19-.43.4-.39.44s.23,0,.52-.15a2.33,2.33,0,0,1,1.17-.07,2.25,2.25,0,0,1,1,.56C25.06,7.58,25.18,7.75,25.24,7.72Z"/><path class="cls-3" d="M49.21,9.75c.06,0,.18-.32-.09-.75a1.32,1.32,0,0,0-.67-.53,1.68,1.68,0,0,0-1,0,2.2,2.2,0,0,0-.85.55,3.75,3.75,0,0,0-.51.59.86.86,0,0,0-.19.53c0,.15.06.21.09.2s0-.26.35-.53l.54-.48a2.12,2.12,0,0,1,.71-.42,1.37,1.37,0,0,1,.77,0,1,1,0,0,1,.54.32C49.12,9.47,49.15,9.75,49.21,9.75Z"/><path class="cls-3" d="M53.78,11.26s-.06-.33-.44-.66A2.62,2.62,0,0,0,51.53,10a2.59,2.59,0,0,0-1.73.8c-.34.37-.42.67-.37.7s.23-.2.58-.46a3,3,0,0,1,1.55-.59,2.94,2.94,0,0,1,1.59.42C53.53,11.09,53.73,11.3,53.78,11.26Z"/><path class="cls-3" d="M39.84,6.91c-.07,0-.09.24-.34.46a.73.73,0,0,1-1,0,.91.91,0,0,1-.2-.6.66.66,0,0,1,.2-.46.46.46,0,0,1,.31-.15c.09,0,.15,0,.17,0s0-.1-.12-.17a.62.62,0,0,0-.55.06.94.94,0,0,0-.43.69,1.21,1.21,0,0,0,.28.94,1,1,0,0,0,1,.3,1.08,1.08,0,0,0,.66-.44.78.78,0,0,0,.16-.49C39.91,7,39.87,6.91,39.84,6.91Z"/><path class="cls-3" d="M53,3.06c-.07,0-.05.24-.27.41a.6.6,0,0,1-.43.15.72.72,0,0,1-.48-.28.88.88,0,0,1-.17-1,.42.42,0,0,1,.26-.15c.08,0,.13,0,.15,0s0-.09-.12-.14a.5.5,0,0,0-.51.08.82.82,0,0,0-.28.71,1.51,1.51,0,0,0,.32.82,1.07,1.07,0,0,0,.83.4.88.88,0,0,0,.67-.35.64.64,0,0,0,.13-.48C53,3.09,53,3.05,53,3.06Z"/><path class="cls-3" d="M54.24,2.86s0-.13.06-.33a1,1,0,0,1,.45-.66,1.3,1.3,0,0,1,1.15-.06,1.65,1.65,0,0,1,.94,1.08,1.47,1.47,0,0,1-.25,1.38,1.78,1.78,0,0,1-1.06.59,2.94,2.94,0,0,1-1.19-.13s.06.13.26.25a1.69,1.69,0,0,0,1,.2,2,2,0,0,0,1.34-.63,1.68,1.68,0,0,0,.41-.82,2,2,0,0,0,0-1,2,2,0,0,0-1.23-1.35,1.62,1.62,0,0,0-1.49.2,1.13,1.13,0,0,0-.44.91C54.13,2.76,54.22,2.87,54.24,2.86Z"/><path class="cls-3" d="M60.56,5.55c0,.07.29,0,.69,0a1,1,0,0,1,.59.15.69.69,0,0,1,.26.61.61.61,0,0,1-.34.54.78.78,0,0,1-.58,0c-.35-.12-.45-.38-.52-.36s0,.09,0,.22a.82.82,0,0,0,.38.43,1,1,0,0,0,.88.1,1,1,0,0,0,.64-.9,1.1,1.1,0,0,0-.49-1,1.22,1.22,0,0,0-.85-.12C60.76,5.33,60.54,5.5,60.56,5.55Z"/><path class="cls-3" d="M20.73.48c.05.05.2,0,.43,0a.55.55,0,0,1,.54.44.44.44,0,0,1-.35.53c-.21.05-.36,0-.4,0s.05.27.41.3a.73.73,0,0,0,.57-.21.8.8,0,0,0,.22-.73A.87.87,0,0,0,21.7.21a.87.87,0,0,0-.58-.06C20.79.24,20.69.44,20.73.48Z"/><path class="cls-2" d="M18.11,10.09a1.62,1.62,0,0,0-1.58,1.65,1.65,1.65,0,0,0,1.61,1.62A1.94,1.94,0,0,0,20,12.24a2.23,2.23,0,0,0-.29-2.45,1.73,1.73,0,0,0-2.4.19,2.89,2.89,0,0,0-1,2c0,1.58,2.06,2.78,3.25,1.48A1.14,1.14,0,0,0,18,11.88c-.11.1-.08.09.08,0a.37.37,0,0,1,.27-.11c.14,0,.17,0,.08,0l.06,0,.08.07q-.11-.12,0,0s.07.19.09.22.06-.16,0-.06a1.42,1.42,0,0,0,.12-.2s.2-.31.13-.14l.09-.06a.88.88,0,0,1-.39.08L18,11.37c-.12-.3-.15-.35-.1-.16,0-.09,0-.06,0,.08.05,0,.06-.13.15-.17.64-.31,1.23,1.18.05,1.25a1.17,1.17,0,0,0,1.14-1.14,1.15,1.15,0,0,0-1.14-1.14Z"/><path class="cls-1" d="M23,39.65a1.88,1.88,0,0,0,0-3.75,1.88,1.88,0,0,0,0,3.75Z"/><path class="cls-3" d="M16.22,44.29c.06,0,.28-.23.78-.53a5.79,5.79,0,0,0,2.52-3.9c.09-.61,0-1,0-1s-.13.36-.29.92a7.77,7.77,0,0,1-.92,2,7.88,7.88,0,0,1-1.48,1.67,2.35,2.35,0,0,0-.5.53C16.21,44.17,16.2,44.28,16.22,44.29Z"/><path class="cls-3" d="M23.55,40.1s-.12.08-.26.25l-.25.3c-.1.12-.2.26-.34.41a12.09,12.09,0,0,1-.95,1c-.18.18-.4.34-.61.52s-.45.34-.7.5a11.27,11.27,0,0,1-2.71,1.3,6.23,6.23,0,0,0-1.2.41,2.7,2.7,0,0,0,1.29-.09,8.72,8.72,0,0,0,2.87-1.24c.26-.17.5-.35.73-.53s.43-.37.62-.56A9,9,0,0,0,23,41.26c.12-.16.2-.33.29-.46a2.57,2.57,0,0,0,.19-.36C23.54,40.24,23.58,40.12,23.55,40.1Z"/><path class="cls-4" d="M25.24,17.9q12.09.42,24.18.22a.46.46,0,0,0,0-.91q-12.09.2-24.18-.22c-.59,0-.58.89,0,.91Z"/><path class="cls-3" d="M45.64,17.1A18.09,18.09,0,0,0,42.85,17c-1.73,0-4.11,0-6.74-.06s-5-.17-6.72-.26a18.25,18.25,0,0,0-2.8-.06,15.74,15.74,0,0,0,2.77.39c1.72.16,4.11.32,6.74.39s5,0,6.75-.07A15.8,15.8,0,0,0,45.64,17.1Z"/><path class="cls-5" d="M19,6.77a1.7,1.7,0,0,1,1.84,1.81c-.08.57.8.82.88.24a2.61,2.61,0,0,0-2.72-3c-.58,0-.59,1,0,.91Z"/><path class="cls-5" d="M17.88,10.6a1.34,1.34,0,0,1,.71,1.76c-.25.53.49,1,.79.46a2.78,2.78,0,0,0,.05-2.68c-.27-.53-1.05-.06-.79.46a1.83,1.83,0,0,1-.05,1.76l.79.46a2.26,2.26,0,0,0-1-3c-.53-.24-1,.55-.46.79Z"/><path class="cls-5" d="M18.46,11.06c.33.09.51.67.21.89l.67.27h0c.4-.43-.25-1.07-.65-.64a1,1,0,0,0-.25.88.46.46,0,0,0,.67.27,1.46,1.46,0,0,0-.43-2.56.46.46,0,0,0-.24.88Z"/><g class="cls-6"><path class="cls-7" d="M18.57,11.43a.75.75,0,0,0,0-1.5.75.75,0,0,0,0,1.5Z"/></g><path class="cls-5" d="M19,10.85l.15-.15a.47.47,0,0,0,.14-.33.33.33,0,0,0,0-.17.31.31,0,0,0-.1-.15.42.42,0,0,0-.32-.13.44.44,0,0,0-.32.13l-.15.15a.47.47,0,0,0-.14.33.33.33,0,0,0,0,.17.31.31,0,0,0,.1.15.46.46,0,0,0,.64,0Z"/><path class="cls-5" d="M18.31,10.76a1.15,1.15,0,0,1,.27,1.39.45.45,0,0,0,.71.55,1.85,1.85,0,0,0-.29-3c-.52-.27-1,.52-.46.79a.94.94,0,0,1,.11,1.55l.72.56A2.08,2.08,0,0,0,19,10.12c-.43-.4-1.08.25-.65.64Z"/><path class="cls-5" d="M19.18,6.53a2.35,2.35,0,0,1,2,2c.07.57.94.6.91,0a3.17,3.17,0,0,0-1.22-2.41c-.46-.36-1.11.28-.64.64a2.37,2.37,0,0,1,.95,1.77h.91a3.27,3.27,0,0,0-2.91-2.88c-.58-.07-.58.85,0,.91Z"/><path class="cls-5" d="M19.71,6.65A2.67,2.67,0,0,1,21,8.7c.05.58,1,.59.91,0a3.66,3.66,0,0,0-1.72-2.84c-.51-.31-1,.48-.47.79Z"/><path class="cls-5" d="M21.69,7.56a2.55,2.55,0,0,0-1.48-1.27c-.56-.2-.8.69-.24.88a1.71,1.71,0,0,1,.94.85c.26.53,1.05.06.78-.46Z"/><path class="cls-5" d="M26.06,3.33a1.58,1.58,0,0,1,.42,1.4l.88.24a2,2,0,0,0-1.1-2.15.49.49,0,0,0-.63.17.46.46,0,0,0,.17.62,1,1,0,0,1,.68,1.12c-.09.57.78.82.88.24a2.54,2.54,0,0,0-.65-2.28c-.41-.43-1.05.22-.65.64Z"/><path class="cls-5" d="M23.53,10v0l.57-.32.08.06.13.32V10l-.23.4a1.83,1.83,0,0,1,1,.18,2,2,0,0,1,.92.84l.72-.56a3.49,3.49,0,0,0-3.27-1.26c-.58.08-.33,1,.25.88a2.56,2.56,0,0,1,2.37,1c.33.41,1-.12.72-.55a2.94,2.94,0,0,0-2.37-1.46c-.36,0-.85-.06-1,.33a.54.54,0,0,0,.41.74c.22,0,.53-.05.56-.31v0c.09-.58-.79-.83-.88-.25Z"/><path class="cls-5" d="M24.4,10.47a4.89,4.89,0,0,1,1.71,1.24c.35.4.95-.1.71-.55a3.26,3.26,0,0,0-2.2-1.66c-.57-.12-.82.76-.24.88A2.38,2.38,0,0,1,26,11.62l.72-.55a5.77,5.77,0,0,0-2.11-1.48.45.45,0,0,0-.56.32.46.46,0,0,0,.32.56Z"/><path class="cls-5" d="M24.54,10.5a1.38,1.38,0,0,1,1.09,1.05c.13.57,1,.33.88-.24a2.29,2.29,0,0,0-1.73-1.69c-.57-.12-.82.76-.24.88Z"/><path class="cls-5" d="M24.55,10.76a2.63,2.63,0,0,1,1.19.94c.33.48,1.13,0,.79-.46A3.73,3.73,0,0,0,24.8,9.88a.46.46,0,1,0-.25.88Z"/><path class="cls-5" d="M23.58,8.17a.68.68,0,0,1,.52.44l.76-.45-.61-.58c-.43-.4-1.08.25-.65.65l.62.58A.46.46,0,0,0,25,8.36a1.59,1.59,0,0,0-1.4-1.1.45.45,0,0,0-.45.45.47.47,0,0,0,.45.46Z"/><path class="cls-5" d="M26.53,8.78l.28.52V8.84A.3.3,0,0,1,27,8.7h.09a.24.24,0,0,1,.11.07.34.34,0,0,1,.09.22.2.2,0,0,1-.06.15c-.05.08-.06.1,0,.07a.24.24,0,0,1-.13.07H27c.05,0,0,0-.05,0s-.15-.17-.11-.11a.46.46,0,0,0,.62.17.47.47,0,0,0,.16-.63A.65.65,0,0,0,26.41,9a.64.64,0,0,0,.47.59.63.63,0,0,0,.72-.28.45.45,0,0,0,0-.46l-.28-.52a.46.46,0,0,0-.79.46Z"/><path class="cls-5" d="M28.55,11.55c.3-.15.9-.49,1.14-.07l.72-.55a2,2,0,0,0-2.68-.08c-.46.37.19,1,.64.65a1.1,1.1,0,0,1,1.39.07.46.46,0,0,0,.72-.55c-.53-.93-1.61-.65-2.39-.26-.52.27-.06,1.05.46.79Z"/><path class="cls-5" d="M29.76,10.36a1.84,1.84,0,0,0-2.05.7c-.27.36.17.72.52.67l1.58-.24a.46.46,0,1,0-.25-.88L28,10.85l.52.67a.91.91,0,0,1,1-.28c.56.18.8-.7.24-.88Z"/><path class="cls-5" d="M14.46,9.62l1.09.14c.35.05.56-.41.39-.68a1.55,1.55,0,0,0-1.29-.77.44.44,0,0,0-.44.39.46.46,0,0,0,.32.5,7.9,7.9,0,0,0,1.25.4l.12-.9h-.53a.46.46,0,0,0,0,.91h.53A.45.45,0,0,0,16,8.72a9,9,0,0,1-1.24-.4l-.13.9a.63.63,0,0,1,.51.32l.39-.69-1.09-.14a.46.46,0,0,0-.46.46.46.46,0,0,0,.46.45Z"/><path class="cls-5" d="M14.34,9.29l.91.31a.46.46,0,1,0,.24-.88l-.91-.31a.46.46,0,0,0-.24.88Z"/><path class="cls-5" d="M31.35,9.19a2.11,2.11,0,0,1,2-.06l.11-.83c-.37.09-.72-.27-1-.42a1.72,1.72,0,0,0-.74-.18,1,1,0,0,0-1.08.73.46.46,0,0,0,.88.25c.08-.3.86.22,1,.27a1.68,1.68,0,0,0,1.25.23.46.46,0,0,0,.11-.83,2.85,2.85,0,0,0-2.69,0c-.55.19-.31,1.07.25.88Z"/><path class="cls-5" d="M31.94,8.87A.8.8,0,0,1,33,9.42l.78-.32A4.13,4.13,0,0,0,31.08,8c-.54,0-.57.72-.12.9l.4.15c.55.21.79-.67.25-.88L31.2,8l-.12.89a3.23,3.23,0,0,1,2.09.85c.25.24.83.1.77-.32a1.72,1.72,0,0,0-2.47-1.34c-.52.27-.06,1.06.47.79Z"/><path class="cls-5" d="M32.57,8.85l.76.61A.45.45,0,0,0,34,8.82l-.76-.61a.45.45,0,0,0-.64.64Z"/><path class="cls-5" d="M56.1,2.41A1,1,0,0,0,54.3,3a1.14,1.14,0,0,0,2,.7,1.33,1.33,0,0,0-.33-2A1.33,1.33,0,0,0,54,2.8a1.36,1.36,0,0,0,2,1.11.46.46,0,0,0-.46-.79c-.22.13-.64,0-.66-.28s.39-.57.62-.34.17.57-.12.62c-.1,0-.32-.08-.24-.22s.11,0,.1,0c.34.47,1.13,0,.79-.46Z"/><path class="cls-5" d="M54.41,3a1,1,0,0,0,1.24,1.18A1,1,0,0,0,56,2.55a.93.93,0,0,0-1.54.12,1.14,1.14,0,0,0,.41,1.55c.53.27,1-.52.46-.79a.19.19,0,0,1-.09-.26c0-.1,0,0,0-.06s0,0,0,0h0c-.07,0,0,0,0,0s-.06-.07,0,0,.06.06.08.12,0,.07,0,0,0,0,0,0l0,0s0,0-.07,0,0-.1-.06,0A.46.46,0,1,0,54.41,3Z"/><path class="cls-5" d="M58.45,9.92a1.13,1.13,0,0,0-1.21,1.17l.89-.12a.62.62,0,0,1,0-.38.42.42,0,0,1,.07-.13l.09-.09,0,0-.23-.07,0,0L58,10.2v0l0-.35.13-.18.23-.06h0l.23.06h0l.21.27v0c-.13-.57-1-.33-.88.25a.52.52,0,0,0,.94.11.55.55,0,0,0-.61-.8c-.73.16-1,1.09-.87,1.73a.46.46,0,0,0,.9-.13c0-.19.12-.28.3-.26a.46.46,0,0,0,.45-.46.46.46,0,0,0-.45-.45Z"/><path class="cls-5" d="M58.41,9.8a1.08,1.08,0,0,0-1.34,1,.46.46,0,0,0,.23.4,1.19,1.19,0,0,0,.81.09.45.45,0,0,0,.31-.56.47.47,0,0,0-.56-.32c-.06,0,0,0-.08,0s-.07,0,0,0l.23.39c0,.11,0,0,0,0s0,0,0,0l0,0,0,0h0s.08-.06,0,0l.07,0c-.09.05,0,0,0,0h.05a.48.48,0,0,0,.56-.32.46.46,0,0,0-.32-.56Z"/><path class="cls-5" d="M61.46,15.69l.49-.11-.45-.11a.25.25,0,0,1-.07-.12s0,0,0-.06v0s0,0,0-.05c0,.08.05-.09,0,0s.06-.07,0,0,.07,0,0,0l.06,0h.05l.07,0-.05,0c.07,0,.09,0,.05,0l0,0,0,0c0-.05,0,0,0,0a.47.47,0,0,0-.57-.32.47.47,0,0,0-.32.56A.75.75,0,0,0,62,16a.72.72,0,0,0,.33-.47.79.79,0,0,0-.17-.66.46.46,0,0,0-.45-.12l-.48.11a.44.44,0,0,0-.32.56.48.48,0,0,0,.56.32Z"/><path class="cls-5" d="M61.34,15.7h.89a.47.47,0,0,0,.46-.46v-.85l-.89.12a1.14,1.14,0,0,1,0,.58.7.7,0,0,1-.08.1c-.07.07-.09,0,0,0a.46.46,0,0,0-.46.79,1,1,0,0,0,1.24-.28,1.81,1.81,0,0,0,.22-1.46c-.08-.51-.9-.38-.9.13v.85l.45-.46-.89,0a.46.46,0,0,0,0,.91Z"/><path class="cls-5" d="M61.76,16a1.53,1.53,0,0,0,1.11-1.51c0-.58-.94-.58-.92,0a.59.59,0,0,1-.43.63.46.46,0,0,0,.24.88Z"/><path class="cls-5" d="M39.58,11a.42.42,0,0,1,.53-.33l.23-.85a2.63,2.63,0,0,0-1.48.5,1.25,1.25,0,0,0-.41,1.32c.18.56,1.06.32.88-.24s.69-.63,1-.66a.47.47,0,0,0,.44-.34.44.44,0,0,0-.21-.51,1.33,1.33,0,0,0-1.87.86c-.14.58.74.82.88.25Z"/><path class="cls-5" d="M39.44,11.79a3,3,0,0,1,1-1.11H40l.44.27c.5.31,1-.48.46-.79l-.44-.27a.45.45,0,0,0-.46,0,4,4,0,0,0-1.3,1.44c-.27.52.52,1,.79.46Z"/><path class="cls-5" d="M40.52,10.2a1.5,1.5,0,0,0-2.18,1.4.47.47,0,0,0,.46.45.45.45,0,0,0,.45-.45c0-.41.41-.84.81-.61a.46.46,0,0,0,.46-.79Z"/><path class="cls-5" d="M44.32,11.89l.29,0a.47.47,0,0,0,.35,0,.46.46,0,0,0,.21-.27.45.45,0,0,0,0-.36.51.51,0,0,0-.27-.21l-.3-.05a.47.47,0,0,0-.35,0,.54.54,0,0,0-.21.28.46.46,0,0,0,.32.56Z"/><path class="cls-5" d="M48.09,9.13a2.07,2.07,0,0,0-1.74,1.19.46.46,0,0,0,.71.56,3.84,3.84,0,0,1,1.6-.89.46.46,0,0,0-.25-.88,4.8,4.8,0,0,0-2,1.12l.71.56a1.18,1.18,0,0,1,1-.75c.58,0,.59-1,0-.91Z"/><path class="cls-5" d="M47.82,9a2.82,2.82,0,0,0-1.49,1.25.46.46,0,0,0,.62.62l1.17-.59a.46.46,0,0,0,.19-.57.46.46,0,0,0-.54-.27l-.87.15a.46.46,0,0,0-.32.56.47.47,0,0,0,.57.32l.87-.15-.36-.83-1.17.6.63.62a1.86,1.86,0,0,1,.94-.83.46.46,0,0,0,.32-.56A.47.47,0,0,0,47.82,9Z"/><path class="cls-5" d="M52.06,7.44a1,1,0,0,0-.83,1.38c.29.78,1.21.83,1.9.69s.33-1-.24-.88c-.23,0-.63.09-.77-.07a.17.17,0,0,1,0-.15q0-.08,0,0c0-.05,0-.06,0,0s.07,0,0,0c.58,0,.58-.94,0-.92Z"/><path class="cls-5" d="M51.79,7.06a1.33,1.33,0,0,0-.72,1.88,1.32,1.32,0,0,0,2,.21c.41-.43-.23-1.07-.64-.65a.4.4,0,0,1-.6,0A.41.41,0,0,1,52,7.94a.46.46,0,0,0,.32-.56.47.47,0,0,0-.56-.32Z"/><path class="cls-5" d="M51.4,7.12a1.65,1.65,0,0,0,0,2.2A1.12,1.12,0,0,0,53.14,9,.47.47,0,0,0,53,8.42a.47.47,0,0,0-.63.16.22.22,0,0,1-.37,0c-.24-.27.05-.78.21-1,.32-.49-.47-1-.79-.46Z"/><path class="cls-5" d="M51.29,7.34a1.22,1.22,0,1,0,1.65,1.79c.44-.39-.21-1-.65-.65a.32.32,0,0,1-.45,0,.35.35,0,0,1,.1-.46.45.45,0,0,0,0-.64.47.47,0,0,0-.65,0Z"/><path class="cls-5" d="M51.93,7.05a1.14,1.14,0,0,0,.42,2.22c.58,0,.59-1,0-.91A.27.27,0,0,1,52,8.2a.23.23,0,0,1,.13-.27.48.48,0,0,0,.32-.57.45.45,0,0,0-.56-.31Z"/><path class="cls-5" d="M50.43,10.72a.63.63,0,0,0-.08,1,.72.72,0,0,0,.68.12c.2-.07.35-.28.56-.31h-.24l.09,0,.12-.9a2.68,2.68,0,0,0-1.84.7c-.44.39.21,1,.65.64a1.76,1.76,0,0,1,1.19-.43c.5,0,.64-.81.12-.89a.83.83,0,0,0-.56.05l-.21.13-.08.06c-.21.1-.19.3.07.58.53-.25.06-1-.47-.79Z"/><path class="cls-5" d="M61.16,12a1,1,0,0,1,.75-.77.46.46,0,0,0,.32-.56.47.47,0,0,0-.56-.32,1.83,1.83,0,0,0-1.39,1.4.48.48,0,0,0,.32.57.46.46,0,0,0,.56-.32Z"/><path class="cls-5" d="M61.33,10.29a1.43,1.43,0,0,0-1.44,1,.45.45,0,0,0,.32.56.46.46,0,0,0,.56-.31.51.51,0,0,1,.56-.34.46.46,0,0,0,.46-.46.46.46,0,0,0-.46-.45Z"/><path class="cls-5" d="M57.73,9.44a1.13,1.13,0,0,0-.9,1.34,1.15,1.15,0,0,0,1.39.82.47.47,0,0,0,.33-.5.47.47,0,0,0-.45-.4c-.26,0-.2-.4,0-.42.59,0,.59-.94,0-.91a1.12,1.12,0,0,0,0,2.24L58,10.72c-.11,0-.28-.05-.27-.18s.15-.21.26-.22a.46.46,0,1,0-.24-.88Z"/><path class="cls-5" d="M58.13,9.91c-.68-.21-1.65.15-1.65,1a1,1,0,0,0,1.55.74c.42-.41-.23-1.06-.65-.65l.06,0c.09,0,0,0,0,0l0,0s0-.06,0,0a.22.22,0,0,1,0-.08.07.07,0,0,1,0,.06s0,0,0,0a.27.27,0,0,1,.16-.12.5.5,0,0,1,.34,0,.46.46,0,0,0,.24-.88Z"/><g class="cls-6"><path class="cls-7" d="M58,11.12a.75.75,0,0,0,0-1.5.75.75,0,0,0,0,1.5Z"/></g><path class="cls-5" d="M58,9.9c-.62,0-1.39.4-1.3,1.11s1,1.11,1.42.54a.47.47,0,0,0,0-.64.46.46,0,0,0-.65,0s0,0,0,0,.07,0,.13,0,0,0,0,0,0,0,0,0h0l0,0s.07.05,0,0,0,.07,0,0v.05c0,.05,0,.06,0,0s0,0,0,0,.08-.06,0,0l.08,0,.11,0H58a.45.45,0,0,0,.45-.45A.46.46,0,0,0,58,9.9Z"/><path class="cls-5" d="M18,7.1a2.85,2.85,0,0,1,3.18,3.27c-.07.58.84.58.91,0A3.74,3.74,0,0,0,18,6.18c-.58.06-.59,1,0,.92Z"/><path class="cls-5" d="M21.37,9.57a3.13,3.13,0,0,0-1-3c-.55-.5-2.23-1.22-2.43,0-.09.57.79.82.88.24,0-.12.63.18.67.21a2.14,2.14,0,0,1,.64.63,2.1,2.1,0,0,1,.33,1.65c-.12.58.76.82.89.25Z"/><path class="cls-5" d="M19.29,6.89A1.52,1.52,0,0,1,21,8a4.27,4.27,0,0,1-.06,2.5c-.14.57.75.82.88.25A4.53,4.53,0,0,0,21.57,7a2.35,2.35,0,0,0-2.52-1,.46.46,0,0,0,.24.88Z"/><path class="cls-5" d="M61.38,23.76a.63.63,0,0,0,.46.57.69.69,0,0,0,.67-.19.75.75,0,0,0-.66-1.2.83.83,0,0,0-.57,1,.87.87,0,0,0,.82.72.46.46,0,1,0,0-.91h0l0,0s.06.07,0,0l0,0,0-.06s0,.1,0,0,0,.09,0,0,0,.09,0,0,0,.08,0,0-.05.06,0,0-.06,0,0,0l-.35,0c.11,0,0,0,0,0s-.07,0,0-.17a.31.31,0,0,1,.25-.2h0c.17,0,.27.11.29.32a.46.46,0,1,0-.91,0Z"/><path class="cls-5" d="M62.26,23.79s0,0,0,.07,0,0,0,.06c0-.07,0,.11,0,0s-.09.09,0,0-.1.07,0,0l0,0h0s-.12,0,0,0H62a.23.23,0,0,1-.11-.11c0,.07,0-.11,0,0,0-.09,0-.11,0-.06s0-.11,0-.07,0-.09,0-.06l0-.05,0,0s0,0,0,0l0,0,.06,0s-.11,0,0,0c-.07,0,.12,0,0,0l.05,0c.07.05.08.06,0,0a.45.45,0,0,0-.64,0,.46.46,0,0,0,0,.64.7.7,0,0,0,.91.08.68.68,0,1,0-.7-1.17.69.69,0,0,0-.37.81.46.46,0,1,0,.88-.24Z"/><path class="cls-1" d="M14.78,12l0-.06a.47.47,0,0,0-.52-.21l-.08,0a.47.47,0,0,0-.27.67,1.88,1.88,0,0,0,1.51,1,.47.47,0,0,0,.44-.33.63.63,0,0,0-.06-.61.46.46,0,0,0-.4-.22h-.1c-.4,0-.69.63-.23.85l.61.75.83-.35a6,6,0,0,1-.66-1.88.45.45,0,0,0-.76-.2c-.28.33-.35.45-.19.88l.83-.36c-.7-1.43-2.54-2.62-3.9-3.35a5.58,5.58,0,0,0-4.9-.42c-.54.22-.3,1.11.24.88,2.52-1,6.57.9,7.77,3.36a.46.46,0,0,0,.84-.36h0l-.77-.2a7.12,7.12,0,0,0,.75,2.1.46.46,0,0,0,.84-.35,1.66,1.66,0,0,0-1-1.3l-.23.85a1.44,1.44,0,0,0-.6-1.2l-.28.67-.4-.18c.27.52,1.06.06.79-.46Z"/><path class="cls-1" d="M12.87,12.75c-.75,1.11.36,2.48,1.45,2.79s2.57-.64,2-1.91c-.22-.54-1.1-.3-.88.24.3.72-.59,1-1.11.72s-1.07-.85-.71-1.37-.46-1-.79-.47Z"/><path class="cls-2" d="M13,14.9a1.35,1.35,0,0,0,.48.47l.28.12h0l.18,0,.17,0h0l.32,0h0a1.78,1.78,0,0,0,.29-.12h0l.13-.1.12-.09v0a1.5,1.5,0,0,0,.19-.25.81.81,0,0,0,.14-.42.9.9,0,0,0,0-.46.93.93,0,0,0-.2-.38.91.91,0,0,0-.32-.3l-.28-.11a1,1,0,0,0-.6,0l-.28.11a1.15,1.15,0,0,0-.41.41h0l.17-.23,0,0,.23-.18,0,0,.28-.12,0,0,.3,0h0l.3,0,0,0,.27.12,0,0,.23.18,0,0,.18.23h0a1.21,1.21,0,0,0-.68-.52.77.77,0,0,0-.45,0,.83.83,0,0,0-.43.13,1.14,1.14,0,0,0-.52.68l0,.31a1.13,1.13,0,0,0,.15.57Z"/></g></g></svg>