<svg xmlns="http://www.w3.org/2000/svg" viewBox="0 0 43.17 42.75"><defs><style>.cls-1,.cls-2{fill:#b49c13;stroke:#b49c13;stroke-miterlimit:10;}.cls-1{stroke-width:0.19px;}.cls-2{stroke-width:0.25px;}</style></defs><g id="Layer_2" data-name="Layer 2"><g id="risba"><path class="cls-1" d="M.24,13.84s.14-.25.43-.69.76-1,1.33-1.77C3.15,9.89,4.72,7.83,6.43,5.54A37.49,37.49,0,0,1,9,2.42a7.63,7.63,0,0,1,2.56-2A3,3,0,0,1,13.64.4a2.8,2.8,0,0,1,.7.39s0-.06-.14-.16a2.39,2.39,0,0,0-.52-.32A2.52,2.52,0,0,0,12.73.1a3.14,3.14,0,0,0-1.27.2,7.54,7.54,0,0,0-2.66,2A32.82,32.82,0,0,0,6.24,5.4C4.52,7.69,3,9.77,1.87,11.28c-.55.75-1,1.36-1.28,1.82-.13.23-.22.41-.28.54S.24,13.84.24,13.84Z"/><path class="cls-1" d="M29.5,42.64a1.5,1.5,0,0,0,.61,0,4.12,4.12,0,0,0,1.56-.79c1.22-.89,3-2.2,5.1-3.86,1.07-.83,2.22-1.76,3.46-2.76.61-.51,1.26-1,1.89-1.58a3,3,0,0,0,.75-1.1,3.36,3.36,0,0,0,.2-1.34,4.71,4.71,0,0,0-1-2.57,17.7,17.7,0,0,0-2-2.1l-4.33-4.18c-5.9-5.76-11.15-11.06-14.93-14.93L16.35,2.84,15.13,1.59l-.32-.32-.11-.1s0,0,.09.12l.31.34L16.28,2.9c1,1.1,2.53,2.7,4.41,4.64,3.74,3.9,9,9.22,14.89,15L39.9,26.7a18,18,0,0,1,2,2.06,4.59,4.59,0,0,1,1,2.45,3,3,0,0,1-.17,1.26,2.86,2.86,0,0,1-.7,1c-.6.57-1.26,1.07-1.87,1.58-1.22,1-2.38,1.93-3.44,2.77-2.11,1.68-3.85,3-5,3.93a4.25,4.25,0,0,1-1.51.81A4.28,4.28,0,0,1,29.5,42.64Z"/><path class="cls-1" d="M.09,14s.2,0,.52-.18A5.31,5.31,0,0,0,1.81,13c.47-.42,1-.94,1.55-1.54s1.15-1.29,1.76-2C6.32,8,7.42,6.66,8.28,5.78A1.18,1.18,0,0,1,9,5.39a.27.27,0,0,1,.3.33.83.83,0,0,1-.16.34A.91.91,0,0,0,9,6.18s.05,0,.11-.09a.66.66,0,0,0,.22-.35.38.38,0,0,0-.05-.32.37.37,0,0,0-.35-.16,1.26,1.26,0,0,0-.78.4c-.89.86-2,2.16-3.23,3.61-.61.72-1.19,1.41-1.73,2s-1.06,1.13-1.5,1.56a5.9,5.9,0,0,1-1.14.9C.27,13.93.09,14,.09,14Z"/><path class="cls-1" d="M2.48,15.12s0,0,0,.13a.33.33,0,0,0,.32.23.84.84,0,0,0,.5-.33l.52-.56c.77-.82,1.84-2,3-3.21S9.09,9,9.88,8.22l.53-.55a.83.83,0,0,1,.44-.3.3.3,0,0,1,.28.12c0,.06,0,.11,0,.11a.16.16,0,0,0,0-.14.33.33,0,0,0-.33-.18.81.81,0,0,0-.52.3l-.56.52c-.82.77-1.93,1.87-3.13,3.12s-2.24,2.4-3,3.26l-.5.58a.77.77,0,0,1-.41.32.27.27,0,0,1-.26-.14C2.46,15.17,2.49,15.12,2.48,15.12Z"/><path class="cls-1" d="M4.38,17.36s0,.05.1.09a.49.49,0,0,0,.38-.08A2.13,2.13,0,0,0,5.29,17l.53-.54c.79-.81,1.86-1.93,3-3.19s2.22-2.4,3-3.24a3.18,3.18,0,0,1,.52-.52.58.58,0,0,1,.49-.1.42.42,0,0,1,.27.19c0,.07,0,.11.05.11s0,0,0-.13a.45.45,0,0,0-.28-.26.65.65,0,0,0-.59.08,3.06,3.06,0,0,0-.58.52c-.78.8-1.85,1.93-3,3.19s-2.22,2.4-3,3.24l-.51.56a2.61,2.61,0,0,1-.39.41.42.42,0,0,1-.3.1C4.42,17.39,4.39,17.35,4.38,17.36Z"/><path class="cls-1" d="M6.08,19.11s0,.05.1.1a.51.51,0,0,0,.39,0,1.78,1.78,0,0,0,.48-.38l.56-.55c.83-.82,2-2,3.13-3.32.6-.66,1.15-1.31,1.65-1.9l.7-.84.6-.74a1.12,1.12,0,0,1,.59-.41.5.5,0,0,1,.47.18.38.38,0,0,1,.1.32.35.35,0,0,1,0,.12s0,0,.09-.11a.41.41,0,0,0-.07-.38.6.6,0,0,0-.57-.26,1.2,1.2,0,0,0-.7.43l-.63.72-.71.83-1.66,1.88c-1.18,1.33-2.27,2.51-3.07,3.36L7,18.7a1.77,1.77,0,0,1-.43.38.46.46,0,0,1-.33.08A.55.55,0,0,1,6.08,19.11Z"/><path class="cls-1" d="M7.71,21.05s-.07,0-.08.11a.23.23,0,0,0,.06.16.26.26,0,0,0,.23.07,1.57,1.57,0,0,0,.51-.29c.18-.12.39-.27.61-.44a17,17,0,0,0,1.47-1.3c.53-.51,1.08-1.1,1.65-1.74,1.12-1.27,2.12-2.44,2.89-3.24a8.91,8.91,0,0,1,.94-.9,4.56,4.56,0,0,1,.41-.23.81.81,0,0,0-.46.15,6.44,6.44,0,0,0-1,.86c-.81.78-1.83,1.93-2.95,3.2-.56.63-1.11,1.23-1.62,1.75s-1,1-1.43,1.32L8.35,21a2,2,0,0,1-.45.3.17.17,0,0,1-.22-.14C7.67,21.09,7.72,21.06,7.71,21.05Z"/><path class="cls-1" d="M9.41,22.51s0,0,0,.13a.33.33,0,0,0,.35.16,1,1,0,0,0,.49-.32l.56-.5c.83-.75,2-1.8,3.2-3s2.35-2.23,3.15-3l.94-.94a.44.44,0,0,1,.27-.17c.07,0,.11,0,.11,0s0-.06-.11-.07A.48.48,0,0,0,18,15l-1,.88c-.82.75-2,1.8-3.2,3s-2.35,2.23-3.15,3l-.53.53a1.13,1.13,0,0,1-.42.33.27.27,0,0,1-.28-.09C9.41,22.56,9.42,22.51,9.41,22.51Z"/><path class="cls-1" d="M11.34,24.26s-.07,0-.12.08a.31.31,0,0,0,.13.38c.19.11.43,0,.61-.16l.61-.54c.89-.8,2.11-1.92,3.45-3.17s2.54-2.38,3.41-3.21c.21-.2.4-.41.58-.55a.51.51,0,0,1,.51-.13.38.38,0,0,1,.23.24c0,.08,0,.13,0,.13s.05,0,.05-.13a.43.43,0,0,0-.24-.33.63.63,0,0,0-.63.11c-.2.15-.39.34-.62.53-.89.8-2.11,1.92-3.45,3.17s-2.54,2.38-3.41,3.21l-.58.57c-.16.15-.35.24-.48.18a.28.28,0,0,1-.13-.28C11.28,24.28,11.34,24.27,11.34,24.26Z"/><path class="cls-1" d="M15.14,28.12s0,0,.13,0a.75.75,0,0,0,.38,0,1.88,1.88,0,0,0,.53-.29,6.45,6.45,0,0,0,.58-.52c.84-.79,2-1.9,3.23-3.14l1.75-1.74.76-.77a5.43,5.43,0,0,1,.69-.62,1.78,1.78,0,0,1,.67-.3.53.53,0,0,1,.5.11.33.33,0,0,1,0,.31c0,.06-.08.08-.07.09s.05,0,.11-.07a.36.36,0,0,0,0-.39.59.59,0,0,0-.59-.18,1.85,1.85,0,0,0-.75.29,4.54,4.54,0,0,0-.73.62l-.78.75L19.82,24c-1.25,1.24-2.37,2.36-3.18,3.19a6.86,6.86,0,0,1-.55.54,1.87,1.87,0,0,1-.48.3A1.19,1.19,0,0,1,15.14,28.12Z"/><path class="cls-1" d="M17,30.05s-.05.05,0,.13a.41.41,0,0,0,.39,0,3.29,3.29,0,0,0,.53-.3,7.06,7.06,0,0,0,.63-.48A19.67,19.67,0,0,0,20,28c.52-.56,1.11-1.17,1.75-1.79,1.27-1.24,2.48-2.29,3.38-3l.6-.5a.6.6,0,0,1,.49-.18.32.32,0,0,1,.21.24c0,.08,0,.12,0,.12s.06,0,.07-.12a.36.36,0,0,0-.22-.33.69.69,0,0,0-.61.16L25,23a40.36,40.36,0,0,0-3.44,3c-.64.62-1.23,1.24-1.75,1.81s-1,1.08-1.41,1.47c-.21.19-.41.36-.6.5a5,5,0,0,1-.48.32.38.38,0,0,1-.33,0C17,30.1,17,30,17,30.05Z"/><path class="cls-1" d="M18.54,31.64s0,.06.06.12a.4.4,0,0,0,.37,0,2.28,2.28,0,0,0,.47-.35l.57-.49c.84-.73,1.95-1.8,3.2-2.95a41.09,41.09,0,0,1,3.31-2.78,3.46,3.46,0,0,1,1.11-.65,1.67,1.67,0,0,1,.47,0s-.16-.11-.49,0a1.76,1.76,0,0,0-.54.19,6.22,6.22,0,0,0-.65.41A29.77,29.77,0,0,0,23,27.79c-1.25,1.15-2.34,2.23-3.15,3l-.54.51a3.08,3.08,0,0,1-.42.37.38.38,0,0,1-.31,0C18.56,31.69,18.55,31.64,18.54,31.64Z"/><path class="cls-1" d="M20.38,34s0,.07.07.12a.46.46,0,0,0,.4,0c.15-.1.29-.23.47-.38l.62-.52c.9-.77,2.14-1.84,3.49-3s2.58-2.29,3.45-3.09c.22-.19.41-.39.59-.52a.41.41,0,0,1,.49,0,.34.34,0,0,1,.12.31c0,.07-.07.09-.06.1s.06,0,.11-.09a.37.37,0,0,0-.1-.39.52.52,0,0,0-.63,0c-.21.13-.4.32-.63.5-.91.77-2.14,1.84-3.5,3S22.7,32.24,21.82,33l-.58.54c-.18.16-.33.32-.44.41a.48.48,0,0,1-.33.09C20.4,34.05,20.39,34,20.38,34Z"/><path class="cls-1" d="M22.53,35.79a.21.21,0,0,0,.12.06.59.59,0,0,0,.39,0,1.88,1.88,0,0,0,.52-.32l.58-.54c.85-.79,2-1.89,3.37-3.06S30.08,29.7,31,29c.22-.18.43-.36.61-.49a.42.42,0,0,1,.48-.1.29.29,0,0,1,.14.28.27.27,0,0,1-.06.11s.07,0,.11-.1a.37.37,0,0,0-.13-.37.55.55,0,0,0-.62.06c-.2.14-.4.3-.64.48-.92.71-2.18,1.72-3.52,2.9S24.84,34,24,34.85l-.55.56a1.94,1.94,0,0,1-.47.33A.86.86,0,0,1,22.53,35.79Z"/><path class="cls-1" d="M24.65,37.25a2.06,2.06,0,0,0,.42-.23c.26-.15.63-.4,1.07-.72.88-.65,2-1.63,3.26-2.74a41.48,41.48,0,0,1,3.29-2.68l.6-.41a1.16,1.16,0,0,1,.47-.24.23.23,0,0,1,.23.16c0,.06,0,.1,0,.11s0,0,0-.13a.3.3,0,0,0-.29-.23,1,1,0,0,0-.53.22c-.18.11-.4.23-.63.38a29.7,29.7,0,0,0-3.34,2.64C28,34.49,26.89,35.49,26,36.16S24.63,37.22,24.65,37.25Z"/><path class="cls-1" d="M26.1,39.13a1.9,1.9,0,0,0,.46-.23c.29-.17.68-.44,1.16-.78,1-.69,2.28-1.66,3.7-2.78s2.67-2.18,3.55-3A1.16,1.16,0,0,1,35.6,32a.35.35,0,0,1,.41.24.29.29,0,0,1-.14.28c-.07,0-.12,0-.12,0s0,0,.13,0a.32.32,0,0,0,.22-.33.46.46,0,0,0-.5-.37,1.37,1.37,0,0,0-.74.39C34,33,32.68,34,31.27,35.15S28.56,37.26,27.62,38l-1.11.85A2.36,2.36,0,0,0,26.1,39.13Z"/><path class="cls-1" d="M27.81,41.16s.2.09.53-.07a6.31,6.31,0,0,0,1.15-.89c.93-.79,2.22-1.87,3.69-3S36,35,37,34.33c.13-.08.24-.19.34-.2a.22.22,0,0,1,.23.14.41.41,0,0,1-.09.5,1.51,1.51,0,0,1-.31.23c-.07,0-.11.08-.11.09l.13,0a1.27,1.27,0,0,0,.35-.21.6.6,0,0,0,.18-.25.51.51,0,0,0,0-.38.38.38,0,0,0-.37-.24,1.51,1.51,0,0,0-.42.22c-1,.68-2.4,1.65-3.87,2.8s-2.75,2.26-3.65,3.08A8,8,0,0,1,28.3,41,1.18,1.18,0,0,1,27.81,41.16Z"/><path class="cls-1" d="M22.55,18.83c-.06,0-.1.11-.13.19s0,.18,0,.23.18,0,.23-.16S22.61,18.81,22.55,18.83Z"/><path class="cls-1" d="M13.33,26.5s0,.05.09.09a.44.44,0,0,0,.37,0,1.37,1.37,0,0,0,.51-.28l.56-.5c.82-.74,1.89-1.83,3.05-3.05s2.24-2.29,3.06-3c.41-.37.75-.66,1-.85a1.88,1.88,0,0,1,.41-.23.71.71,0,0,0-.46.15c-.26.18-.62.44-1.05.8a36.09,36.09,0,0,0-3.12,3c-1.17,1.22-2.21,2.33-3,3.1l-.53.52a1.36,1.36,0,0,1-.45.29A.48.48,0,0,1,13.33,26.5Z"/><path class="cls-1" d="M29.64,42.57a8.73,8.73,0,0,0,1.18-.93c.7-.61,1.64-1.47,2.65-2.46s1.88-1.94,2.49-2.63a8.36,8.36,0,0,0,.95-1.16,8.41,8.41,0,0,0-1.07,1C35.19,37.1,34.3,38,33.3,39s-1.93,1.88-2.6,2.51A11.9,11.9,0,0,0,29.64,42.57Z"/><path class="cls-1" d="M27.76,40.9s.06-.11.18-.3a3.72,3.72,0,0,1,.58-.75c.56-.58,1.35-1.37,2.23-2.23s1.71-1.63,2.3-2.19a8.61,8.61,0,0,0,.93-.92,6,6,0,0,0-1,.8c-.62.52-1.46,1.27-2.34,2.13s-1.66,1.68-2.2,2.3a3.3,3.3,0,0,0-.54.81A.8.8,0,0,0,27.76,40.9Z"/><path class="cls-1" d="M26.06,39.07a.59.59,0,0,1,0-.38,1.21,1.21,0,0,1,.24-.39,4.76,4.76,0,0,1,.45-.44l2.69-2.55,2.69-2.54a9.86,9.86,0,0,0,1.09-1.09,9.93,9.93,0,0,0-1.2,1c-.72.62-1.7,1.5-2.75,2.49s-2,1.92-2.64,2.61a6.21,6.21,0,0,0-.44.48,1.25,1.25,0,0,0-.22.45A.46.46,0,0,0,26,39C26,39.05,26.05,39.08,26.06,39.07Z"/><path class="cls-1" d="M24.12,37.24a1.42,1.42,0,0,1,.16-.39,5.92,5.92,0,0,1,.81-.84c.72-.68,1.7-1.64,2.78-2.72s2-2.05,2.73-2.77a9.74,9.74,0,0,0,1.08-1.19,10.57,10.57,0,0,0-1.2,1.07c-.72.69-1.71,1.65-2.78,2.72s-2,2.05-2.74,2.77a4.41,4.41,0,0,0-.76.91A.6.6,0,0,0,24.12,37.24Z"/><path class="cls-1" d="M22.28,35.49s0-.16.1-.41a2.73,2.73,0,0,1,.63-.92c.16-.17.36-.35.57-.55l.65-.64,1.48-1.48c1.05-1,2-2,2.67-2.71a9.42,9.42,0,0,0,1.05-1.18,10.52,10.52,0,0,0-1.17,1.06c-.71.67-1.67,1.61-2.72,2.67l-1.47,1.48-.64.66c-.2.21-.38.39-.55.58a2.54,2.54,0,0,0-.59,1A.67.67,0,0,0,22.28,35.49Z"/><path class="cls-1" d="M20,33.69s.09-.14.28-.37.48-.51.86-.88c.74-.74,1.76-1.77,2.88-2.92s2.11-2.21,2.83-3c.36-.38.64-.7.84-.92a1.86,1.86,0,0,0,.28-.36,1.89,1.89,0,0,0-.35.3l-.89.86c-.75.74-1.77,1.78-2.88,2.93s-2.12,2.2-2.84,3a8.48,8.48,0,0,0-.81,1A1,1,0,0,0,20,33.69Z"/><path class="cls-1" d="M18.37,31.45a3.89,3.89,0,0,1,.2-.38,11.36,11.36,0,0,1,.85-.84c.74-.71,1.75-1.69,2.85-2.79s2.1-2.1,2.81-2.84a13.09,13.09,0,0,0,1.11-1.22A11.32,11.32,0,0,0,25,24.48c-.74.71-1.75,1.69-2.86,2.79s-2.09,2.1-2.8,2.84a6.21,6.21,0,0,0-.8.91C18.34,31.28,18.36,31.46,18.37,31.45Z"/><path class="cls-1" d="M16.63,29.84s0-.15.14-.41a3,3,0,0,1,.67-.95c.36-.35.8-.77,1.27-1.24l1.54-1.53c1.09-1.09,2.07-2.08,2.77-2.81a9.82,9.82,0,0,0,1.09-1.22,11.17,11.17,0,0,0-1.21,1.1c-.73.69-1.73,1.67-2.82,2.76l-1.53,1.55c-.46.48-.89.9-1.23,1.28a2.89,2.89,0,0,0-.64,1A.88.88,0,0,0,16.63,29.84Z"/><path class="cls-1" d="M14.85,27.56A12.84,12.84,0,0,0,16,26.47c.69-.69,1.63-1.66,2.67-2.73s2-2.07,2.62-2.79a10.93,10.93,0,0,0,1-1.2,10.3,10.3,0,0,0-1.16,1.08c-.69.69-1.63,1.66-2.67,2.74s-2,2.06-2.62,2.79A8.87,8.87,0,0,0,14.85,27.56Z"/><path class="cls-1" d="M13.15,26.15A9.23,9.23,0,0,0,14.29,25c.68-.77,1.6-1.83,2.61-3s1.92-2.26,2.56-3.05a10.48,10.48,0,0,0,1-1.31,12.25,12.25,0,0,0-1.14,1.2c-.67.76-1.6,1.82-2.61,3s-1.92,2.27-2.56,3.05A10.48,10.48,0,0,0,13.15,26.15Z"/><path class="cls-1" d="M11,24.05a2,2,0,0,0,.34-.31c.2-.2.5-.5.85-.88.71-.76,1.69-1.81,2.75-3s2-2.25,2.69-3c.35-.4.62-.72.8-.94a2.28,2.28,0,0,0,.27-.37,2,2,0,0,0-.34.31c-.21.2-.5.51-.85.88-.72.76-1.69,1.81-2.75,3s-2,2.25-2.69,3c-.34.39-.62.71-.8.94A2.28,2.28,0,0,0,11,24.05Z"/><path class="cls-1" d="M9.51,22.37s.12-.11.28-.34.41-.56.72-1c.61-.8,1.52-1.85,2.56-3s2-2.17,2.61-3c.32-.39.57-.72.73-1s.24-.36.22-.37A15.57,15.57,0,0,0,15.55,15c-.66.77-1.61,1.78-2.66,2.92a32.89,32.89,0,0,0-2.52,3c-.29.41-.52.76-.66,1A1.76,1.76,0,0,0,9.51,22.37Z"/><path class="cls-1" d="M7.26,20.8s.13-.1.33-.32l.83-.95c.69-.8,1.63-1.93,2.66-3.18S13,14,13.69,13.13l.77-1a1.7,1.7,0,0,0,.26-.38s-.13.1-.33.32-.49.55-.83.95c-.69.81-1.63,1.93-2.66,3.18s-2,2.39-2.61,3.22l-.77,1A2,2,0,0,0,7.26,20.8Z"/><path class="cls-1" d="M5.68,18.71s.13-.11.33-.33.49-.54.84-.94c.69-.81,1.64-1.93,2.67-3.18s2-2.4,2.62-3.23l.77-1a1.7,1.7,0,0,0,.26-.38,1.65,1.65,0,0,0-.33.32c-.2.22-.49.55-.83.95-.7.81-1.64,1.93-2.68,3.18s-1.95,2.39-2.62,3.23c-.33.41-.59.75-.77,1A1.87,1.87,0,0,0,5.68,18.71Z"/><path class="cls-1" d="M3.74,17.24a14.1,14.1,0,0,1,1-1.41l1.3-1.43c.48-.54,1-1.15,1.54-1.8,1.06-1.29,2-2.51,2.6-3.41L11,8.11a2.06,2.06,0,0,0,.23-.42,2.16,2.16,0,0,0-.31.36l-.79,1c-.66.87-1.59,2.07-2.65,3.36-.53.65-1.05,1.25-1.52,1.8s-.91,1-1.26,1.47a6.56,6.56,0,0,0-.74,1.08A1.59,1.59,0,0,0,3.74,17.24Z"/><path class="cls-1" d="M2.25,14.7a13.13,13.13,0,0,0,1-1.23c.62-.76,1.51-1.78,2.5-2.92a34.52,34.52,0,0,0,2.37-3c.28-.41.49-.75.63-1S9,6.15,9,6.14a1.74,1.74,0,0,0-.26.34C8.53,6.7,8.3,7,8,7.42c-.59.79-1.45,1.84-2.43,3s-1.85,2.19-2.44,3a11.45,11.45,0,0,0-.67,1A2.14,2.14,0,0,0,2.25,14.7Z"/><path class="cls-2" d="M23.66,16.6s-.09,0-.19.1a.56.56,0,0,0,0,.59.92.92,0,0,0,.71.5,1.72,1.72,0,0,0,1-.18c.32-.15.59-.31.85-.46l.67-.4a2.78,2.78,0,0,1,.43-.25c.11,0,.17,0,.18,0s-.05-.08-.2-.08a1.42,1.42,0,0,0-.52.17l-.7.34-.84.43a1.56,1.56,0,0,1-.84.18.75.75,0,0,1-.55-.32.44.44,0,0,1,0-.41C23.62,16.67,23.68,16.62,23.66,16.6Z"/><path class="cls-2" d="M25.78,17.21s0,.09.14.22a1.22,1.22,0,0,0,.61.36,1,1,0,0,0,.53,0,.79.79,0,0,0,.46-.44.92.92,0,0,0,0-.69,1.84,1.84,0,0,0-.38-.57,2.65,2.65,0,0,0-1.1-.68,1.81,1.81,0,0,0-1.07-.06.79.79,0,0,0-.36.24.64.64,0,0,0-.13.3c0,.19.06.27.08.26s0-.1,0-.23a.57.57,0,0,1,.44-.35,1.67,1.67,0,0,1,.9.12,2.51,2.51,0,0,1,1,.62,1.75,1.75,0,0,1,.33.47.72.72,0,0,1,.05.47.65.65,0,0,1-.68.35,1.32,1.32,0,0,1-.57-.24C25.87,17.24,25.8,17.19,25.78,17.21Z"/><path class="cls-2" d="M26.57,21.13s0,.06.1.12a.75.75,0,0,0,.43.1.92.92,0,0,0,.64-.32,1.16,1.16,0,0,0,.24-.91,1.88,1.88,0,0,0-.5-1,1.32,1.32,0,0,0-1.26-.4,1.23,1.23,0,0,0-.35.16.62.62,0,0,0-.27.36.35.35,0,0,0,.06.28.51.51,0,0,0,.23.14,1.75,1.75,0,0,0,.4.05,2.68,2.68,0,0,0,1.43-.57,5.19,5.19,0,0,1,1.22-.72,1.5,1.5,0,0,1,.62-.08,1.15,1.15,0,0,1,.28.08c.08,0,.09.05.09.11s-.13.29-.28.39a1.1,1.1,0,0,1-.5.17,2.06,2.06,0,0,1-1-.18,1,1,0,0,1-.63-.47.45.45,0,0,1,.15-.51.51.51,0,0,1,.36-.1c.1,0,.14,0,.15,0s0-.05-.13-.08a.55.55,0,0,0-.45.06.58.58,0,0,0-.25.67,1.16,1.16,0,0,0,.71.62,2.27,2.27,0,0,0,1.11.24,1.42,1.42,0,0,0,.62-.2.83.83,0,0,0,.43-.62.43.43,0,0,0-.26-.4,1.56,1.56,0,0,0-.37-.1,1.94,1.94,0,0,0-.76.08,5.1,5.1,0,0,0-1.3.76,2.4,2.4,0,0,1-1.26.51,1.45,1.45,0,0,1-.3,0c-.07,0-.08,0-.07-.07s.06-.12.13-.16a.64.64,0,0,1,.25-.12,1,1,0,0,1,1,.3,1.65,1.65,0,0,1,.46.87.93.93,0,0,1-.15.77.8.8,0,0,1-.51.31A.9.9,0,0,1,26.57,21.13Z"/></g></g></svg>