<svg xmlns="http://www.w3.org/2000/svg" viewBox="0 0 101.77 75.86"><defs><style>.cls-1{fill:#e5d0ac;}.cls-2,.cls-3{fill:#b49c13;}.cls-2{stroke:#b49c13;stroke-miterlimit:10;stroke-width:0.25px;}</style></defs><g id="Layer_2" data-name="Layer 2"><g id="risba"><path class="cls-1" d="M53.29,12a6.25,6.25,0,0,0,.27,6,1.89,1.89,0,0,0,3.24,0,6.78,6.78,0,0,0-.13-6.47,1.89,1.89,0,0,0-2.11-.86,4.74,4.74,0,0,0-3.3,4.51,8.86,8.86,0,0,0,2.23,6.38,1.89,1.89,0,0,0,3.14-.83,12,12,0,0,0-2.42-10.14,1.88,1.88,0,0,0-2.94.38,16.58,16.58,0,0,0,.16,13.75c.81,1.76,3.48.79,3.49-1a30.79,30.79,0,0,0-1.14-8.54,1.89,1.89,0,0,0-3.61,0,15,15,0,0,0-.29,6.26q.36,3.39.74,6.76l3.68-.5a50.79,50.79,0,0,1-2.55-9.53c-.47-2.9-.93-6.22-.38-9.13.25-1.36,1.13-2.44,1.38-3.76A2.69,2.69,0,0,0,50.44,2c-2.92-.21-3.84,4.26-4.19,6.42-1,6.13.54,12.41,1.56,18.44S49.52,38.76,54.15,43c2.14,2,4.77,3.55,6.32,6.06,1.45,2.36,2.52,5,5.41,5.84A1.91,1.91,0,0,0,68,54.07a52.76,52.76,0,0,1,9.72-14.41c1.69-1.79-.82-4.17-2.65-2.66L72.2,39.37a1.89,1.89,0,0,0,0,2.65,1.91,1.91,0,0,0,2.65,0c5.46-4.41,2.18-11.77,1.34-17.36l-3.62,1c.54,2.42,1.17,5.05.55,7.52-.55,2.2-2.12,3.85-3.71,5.38-3.24,3.13-7.16,6.68-6.67,11.65.17,1.71,2.55,2.74,3.5.95,2.32-4.35,7.39-6.33,9.86-10.65A1.89,1.89,0,0,0,73.53,38q-3.19,1.69-6.21,3.69l2.57,2.57a40.91,40.91,0,0,1,2.79-5.33c1.16-1.87-1.41-3.66-3-2.27l-3.41,3.07,3.13,1.82.84-4.86c.34-2-2.34-3.44-3.43-1.45-.93,1.72-3.12,4.31-5,2.15a13.36,13.36,0,0,1-2.78-7.17,1.91,1.91,0,0,0-1.63-1.84,1.85,1.85,0,0,0-2,1.34L55.16,31c-.25,1.48,1.26,3.1,2.76,2.12,2-1.35,4.36-2.65,6.84-1.7a5.71,5.71,0,0,1,3.61,4.46c.4,2.37,4,1.36,3.62-1a9.41,9.41,0,0,0-5.91-7c-3.56-1.4-7,0-10.06,2L58.78,32,59,30.67l-3.68-.5c.38,3.71,1.75,8.68,5.09,10.86,3.82,2.5,7.85-.57,9.69-4l-3.42-1.44-.84,4.86A1.89,1.89,0,0,0,69,42.33l3.42-3.07-3-2.27a41.44,41.44,0,0,0-2.79,5.32c-.67,1.55.83,3.72,2.57,2.57a68.11,68.11,0,0,1,6.21-3.69l-2.57-2.57C70.41,42.9,65.35,44.85,63,49.27l3.49.94c-.48-4.83,4.72-7.74,7.44-11a12.27,12.27,0,0,0,3-6.45,23.83,23.83,0,0,0-.79-8.14,1.9,1.9,0,0,0-2.31-1.31,1.93,1.93,0,0,0-1.31,2.31c.63,4.14,3.72,10.41-.37,13.71L74.85,42l2.87-2.36L75.07,37A56,56,0,0,0,64.76,52.18l2.12-.87c-1.2-.34-1.79-1.64-2.35-2.65A19.27,19.27,0,0,0,62,44.94c-2.16-2.35-5.13-3.94-7-6.54-2.12-2.91-2.56-6.7-3.14-10.15-.65-3.82-1.42-7.64-1.88-11.48a31.73,31.73,0,0,1-.22-6.16,15,15,0,0,1,.54-3,12.37,12.37,0,0,1,.45-1.38c.07-.18.17-.35.23-.52.32-.86.35.16-.51,0l-.95-.26c-.14-1-.31-1.21-.5-.74a7,7,0,0,0-.36.66,10.62,10.62,0,0,0-.5,1.21,12.64,12.64,0,0,0-.59,2.91,30.83,30.83,0,0,0,.16,6.37,51.48,51.48,0,0,0,3,12.77A1.9,1.9,0,0,0,52.74,30a1.85,1.85,0,0,0,1.63-1.84l-.69-6.27a14,14,0,0,1,.1-5.76H50.17a27.1,27.1,0,0,1,1,7.55l3.49-.95a12.46,12.46,0,0,1-.15-10l-2.95.38A8,8,0,0,1,53,19.69l3.13-.83a5,5,0,0,1-1.15-3c0-.49,0-1.52.56-1.67l-2.11-.86a2.88,2.88,0,0,1,.12,2.69H56.8a2.36,2.36,0,0,1-.27-2.21,1.94,1.94,0,0,0-.67-2.57,1.89,1.89,0,0,0-2.57.68Z"/><path class="cls-1" d="M78.31,32.81l.34,3.56a1.88,1.88,0,0,0,3.75,0,19.71,19.71,0,0,0-2-11c-1-2-3.78-.51-3.43,1.45l1.55,8.61,3.61-1a47.24,47.24,0,0,0-3.53-10.27,1.86,1.86,0,0,0-2.34-.76,1.91,1.91,0,0,0-1.09,2.21,58.16,58.16,0,0,0,2.11,9.09c.6,1.89,4,1.69,3.68-.5l-2-15.5-3.68.49q2,7.86,4.51,15.58c.63,2,3.72,1.69,3.69-.49L83.19,18l-3.69.5L82,33.67c.34,2.14,3.64,1.54,3.68-.5l.23-11.88-3.69.49,2.15,12.56c.36,2.12,3.67,1.56,3.68-.5l0-8.87-3.68.5a57.89,57.89,0,0,1,.87,8.61,1.88,1.88,0,0,0,3.68.5l1.9-7-3.68-.5.37,7.63c.1,2.05,3.14,2.63,3.68.5l1.86-7.28-3.68-.5L89,34.78c-.11,2.15,3.11,2.5,3.68.5L94.77,28l-3.68-.5a55,55,0,0,0,.11,6.91,1.88,1.88,0,0,0,3.68.5l2.35-6.27-3.68-.5L93.81,34c.08,1.69,2.68,2.76,3.49.94a17.41,17.41,0,0,0,1.47-5.39c.23-2.08-3.29-2.57-3.68-.49a12.26,12.26,0,0,0,.06,5c.41,1.85,3.14,1.72,3.62,0l.57-2-3.69-.5A8.73,8.73,0,0,0,96,34.63a1.89,1.89,0,0,0,3.61,0,13.24,13.24,0,0,0-4.4-14C93,18.9,90.39,18,88.09,16.42,86,15,84.72,12.53,82.42,11.32a6.2,6.2,0,0,0-4-.63,8.43,8.43,0,0,0-2.08.67l-.79.37c-.26.13-.52.26-.77.4.27.16.32.16.16,0A10.33,10.33,0,0,1,73.58,11c-.56-.47-1.13-.91-1.71-1.35A42.16,42.16,0,0,0,68,7,72.2,72.2,0,0,0,60,3c-1.26-.55-2.53-1.09-3.79-1.62a12.42,12.42,0,0,0-4-1.32c-3.86-.2-3.77,4.87-3.91,7.53a40.76,40.76,0,0,0,1,11.12A1.86,1.86,0,0,0,51.37,20,1.9,1.9,0,0,0,53,18.16L54.72,4.6H51q.16,3.63.32,7.27a21.43,21.43,0,0,0,1,6.51,1.88,1.88,0,0,0,3.68-.5q.42-6.3.51-12.62H52.69c.45,5.33,1,10.68,3.41,15.53,1,2,3.79.52,3.43-1.44A81.37,81.37,0,0,1,58.24,4.57l-3.69.5L61,24.15a1.88,1.88,0,0,0,3.62-1q-1.21-8.91-3.29-17.67L57.88,6.92A148,148,0,0,1,64.6,26c.65,2.34,4.16,1.36,3.61-1L64.4,8.49l-3.62,1,6.85,17.06a1.88,1.88,0,0,0,3.62-1,98.94,98.94,0,0,0-4-15.33l-3.61,1a89.06,89.06,0,0,0,7.92,15.91A1.89,1.89,0,0,0,75,25.67q-1.65-7-3.61-13.86L68,13.25l5.78,11.14c.82,1.58,3.71.92,3.49-.95A50.51,50.51,0,0,0,75.31,14l-3.62,1,3.71,9.58a1.88,1.88,0,0,0,3.62-1l-1.27-6L74.33,19a14.58,14.58,0,0,1,1.79,3.26c.71,1.88,3.7,1.75,3.68-.5a52.47,52.47,0,0,0-.42-6.39l-3.69.5,1.37,3.24a1.9,1.9,0,0,0,2,1.34,1.86,1.86,0,0,0,1.63-1.84l-.17-4-3.69.49a41.87,41.87,0,0,0,2.9,6.53c1.07,1.95,3.81.56,3.42-1.44a39,39,0,0,1-.65-5.7l-3.68.5a40.56,40.56,0,0,0,3.57,7.82,1.89,1.89,0,0,0,3.5-.95A22.4,22.4,0,0,0,85.5,17l-3.62,1c1.08,2.59,2.24,5.13,3.52,7.63.87,1.69,3.5.85,3.5-.95v-4.3l-3.69.5,1.94,5.23c.56,1.54,3.29,2,3.61,0a26,26,0,0,0,.33-5.78H87.34a30,30,0,0,0,1.49,6.88c.47,1.37,2.7,2,3.43.45l1.27-2.8-2.94.38c1,1.23,2.4,2.31,4.12,2.06a3.18,3.18,0,0,0,2.82-3.12l-3.68.5a10.39,10.39,0,0,1,.62,2.63L97.67,26a2.35,2.35,0,0,0-3.52.26,2.31,2.31,0,0,0,1.4,3.53c2.33.66,3.32-3,1-3.62l-.27-.07L97.4,27l-.17-.23.26.94v-.28L97,28.71l-.48.26h-1L95,28.65c1.12.88,3.36.48,3.2-1.33a14.06,14.06,0,0,0-.76-3.63,1.88,1.88,0,0,0-3.68.5c0-1,.42-.26.3-.71,0-.21-.68-.69-.84-.89a1.89,1.89,0,0,0-2.95.38L89,25.78l3.43.44a25.88,25.88,0,0,1-1.36-5.88c-.24-2.36-3.89-2.45-3.75,0a21.94,21.94,0,0,1-.19,4.79h3.61l-1.93-5.24c-.7-1.9-3.68-1.73-3.68.5v4.3l3.49-.94C87.51,21.54,86.45,19.3,85.5,17a1.88,1.88,0,0,0-3.62,1,17.7,17.7,0,0,1,.31,3.91l3.49-1a35.9,35.9,0,0,1-3.2-6.92c-.64-1.92-3.77-1.72-3.68.5a44.25,44.25,0,0,0,.79,6.69L83,19.8a37.3,37.3,0,0,1-2.51-5.63c-.66-1.9-3.78-1.73-3.68.5l.17,4,3.68-.5L79.31,14.9a1.91,1.91,0,0,0-2.06-1.34,1.84,1.84,0,0,0-1.62,1.84,52.47,52.47,0,0,1,.42,6.39l3.69-.5a18,18,0,0,0-2.18-4.16,1.88,1.88,0,0,0-3.42,1.45l1.26,6,3.62-1L75.31,14c-.86-2.2-4.35-1.36-3.62,1a45.07,45.07,0,0,1,1.81,8.43L77,22.5,71.21,11.36c-1-1.9-4-.58-3.42,1.45q2,6.88,3.6,13.86l3.43-1.45a84,84,0,0,1-7.55-15c-.84-2.21-4.41-1.31-3.61,1a98.91,98.91,0,0,1,4,15.33l3.62-1-6.85-17c-.88-2.2-4.18-1.42-3.62,1L64.6,26l3.61-1A155.09,155.09,0,0,0,61.12,5c-.88-2-3.9-.54-3.43,1.44Q59.78,15.23,61,24.15l3.62-1L58.17,4.08c-.66-2-3.68-1.7-3.68.49a87.87,87.87,0,0,0,1.42,15.78l3.43-1.45c-2.11-4.22-2.51-9-2.9-13.64-.19-2.38-3.71-2.45-3.75,0q-.09,6.32-.51,12.62l3.68-.5a19.26,19.26,0,0,1-.84-6l-.3-6.78c-.1-2.47-3.45-2.34-3.75,0L49.24,18.16l3.69-.5A35.81,35.81,0,0,1,52,9.4a34.19,34.19,0,0,1,.25-4.17c0-.35.39-1.34.25-1.65s-.46.09-.45.15l1,.32a82.14,82.14,0,0,1,13.79,6.64c1,.63,2,1.31,3,2s2,1.78,3,2.54a3.2,3.2,0,0,0,3.07.47c1.23-.43,2.27-1.42,3.64-1.4,2,0,3.32,2.48,4.57,3.68a25.86,25.86,0,0,0,6.11,3.89,11,11,0,0,1,5.25,4.93,9.47,9.47,0,0,1,.51,6.8h3.61a5.67,5.67,0,0,1-.21-2.09c.17-2.14-3.12-2.49-3.68-.5l-.57,2h3.62a7.49,7.49,0,0,1-.06-3L95,29.55a11.8,11.8,0,0,1-1,3.5l3.49,1-.26-5.82a1.89,1.89,0,0,0-3.69-.5L91.27,34l3.68.5a55,55,0,0,1-.11-6.91c.1-2.15-3.11-2.5-3.68-.5l-2.07,7.24,3.69.5.36-7.37c.1-2.12-3.16-2.53-3.68-.5L87.6,34.2l3.68.49-.37-7.63c-.1-2.06-3.12-2.61-3.69-.5l-1.89,7,3.68.49a66.07,66.07,0,0,0-1-9.61c-.38-2.12-3.68-1.56-3.69.5l0,8.87,3.69-.5L85.81,20.79c-.37-2.14-3.64-1.55-3.68.5L81.9,33.17l3.68-.5L83.12,17.45c-.34-2.11-3.71-1.57-3.68.5l.25,16.35,3.68-.5q-2.48-7.72-4.51-15.58c-.52-2-4-1.65-3.69.5l2,15.5,3.68-.5a56.52,56.52,0,0,1-2.1-9.09l-3.43,1.45a43.55,43.55,0,0,1,3.16,9.36c.52,2.38,4,1.35,3.61-1l-1.54-8.62-3.43,1.44a16.22,16.22,0,0,1,1.51,9.1H82.4l-.34-3.56c-.23-2.38-4-2.41-3.75,0Z"/><path class="cls-1" d="M75.08,34.65c.8,8.64-4.75,16.43-4,25.11a1.89,1.89,0,0,0,3.69.5c1.1-3,3.59-5.3,6.1-7.19,3.15-2.37,6.46-4.55,9.69-6.81s6.67-4.16,9-7.21a10.76,10.76,0,0,0-6.84-17.17,1.93,1.93,0,0,0-2.3,1.31,1.89,1.89,0,0,0,1.31,2.31A7.16,7.16,0,0,1,98,33.32c-.5,4.32-4.91,6.63-8.11,8.87-3.74,2.61-7.57,5.12-11.2,7.88-3.25,2.47-6.09,5.29-7.52,9.19l3.68.5c-.76-8.64,4.8-16.43,4-25.11-.22-2.38-4-2.41-3.75,0Z"/><path class="cls-1" d="M86.8,26.62C80.66,30.38,78.16,37.41,76.13,44l3.61,1a34.39,34.39,0,0,1,3.59-9.81L79.9,33.68,74.84,49.75c-.62,2,2.53,3.39,3.43,1.44,2.63-5.72,5.28-11.57,9.28-16.49l-2.94-2.27L77,47.37a1.88,1.88,0,0,0,3.24,1.89l9-14.95L86,32.41a106,106,0,0,0-4.53,11.11c-.58,1.71,2,3.29,3.14,1.82l7-8.76-3-2.27-4.49,8.93c-.9,1.79,1.51,4,2.94,2.28a103.71,103.71,0,0,1,7.65-8.31l-3-2.27q-2.13,3.14-4,6.42c-1,1.81,1.48,3.88,2.94,2.27A47.83,47.83,0,0,1,96.87,38L94.3,35.43l-2.62,3.45c-1.12,1.48,1.09,3.64,2.56,2.57l3.11-2.27-2.27-2.94A27.71,27.71,0,0,1,84.55,43,14.9,14.9,0,0,0,79,46.14a68.12,68.12,0,0,0-4.82,5.63c-1.54,1.84,1.1,4.51,2.65,2.65a68.12,68.12,0,0,1,4.82-5.63c1.54-1.49,3.56-2,5.49-2.74a31.08,31.08,0,0,0,10.63-7.16c1.43-1.47-.49-4.24-2.27-2.94l-3.11,2.26,2.57,2.56,2.62-3.45c1.11-1.46-1.11-3.69-2.57-2.57A54.55,54.55,0,0,0,88.13,41l3,2.28c1.26-2.19,2.6-4.34,4-6.43,1.21-1.8-1.46-3.73-2.95-2.27a107.13,107.13,0,0,0-7.64,8.3l2.94,2.28L92,36.2c.89-1.78-1.54-4-3-2.27l-7,8.76,3.14,1.83a95.28,95.28,0,0,1,4.15-10.21c1-2.16-2-4-3.24-1.9l-9,15,3.24,1.89,7.59-14.94c.9-1.78-1.53-4-2.95-2.27C80.67,37.25,77.81,43.24,75,49.3l3.43,1.44,5.06-16.06c.65-2.07-2.34-3.23-3.43-1.45a37.49,37.49,0,0,0-4,10.72,1.87,1.87,0,0,0,3.61,1c1.73-5.53,3.72-11.88,9-15.08,2-1.26.17-4.5-1.9-3.24Z"/><path class="cls-1" d="M52.07,24.29c-2.88.58-2.32,4.31-2,6.41a21.36,21.36,0,0,0,2.53,7.05,22.18,22.18,0,0,0,11.1,9.63,1.86,1.86,0,0,0,2.12-.86l1.53-3.47a1.88,1.88,0,0,0-3.24-1.89c-.68.92-2.61-1.13-3-1.59a28.19,28.19,0,0,1-3.45-4.47c-1.64-2.7-2.55-6.29-.5-9.06,2.34-3.18,6.52-1.16,9,.76,3,2.33,5.44,5.93,4.15,9.84l3.68.5c-.25-2.89-.43-5.8-.78-8.68a4.25,4.25,0,0,0-4.61-4c-2.41.12-4.69,1.27-7,1.75a30.11,30.11,0,0,1-8.53.47l1.62,2.83A97.39,97.39,0,0,0,60,17.86c.8-2.08-2.31-3.12-3.43-1.45q-2.88,4.34-5.38,8.9a1.9,1.9,0,0,0,1.62,2.82c2.13.27,3.44-1.56,4.51-3.09A10.87,10.87,0,0,1,62,21.33l-2.75-2.12a19.83,19.83,0,0,1-3.66,6.72l2.65,2.65A14.09,14.09,0,0,1,62,25.33l-2.82-1.62a.23.23,0,0,1-.33.22l.67,2.57a4,4,0,0,1,3-2.33l-2.31-2.31a23.58,23.58,0,0,1-2.48,4.58,1.89,1.89,0,0,0,1.12,2.75,3.64,3.64,0,0,0,3.2-.61c1-.65,1.32-1.12,2.45-.41a27.32,27.32,0,0,1,3.08,2.52l3.65,3.1,2.27-2.94A28.83,28.83,0,0,1,67.36,27l-.38,3,.07.09a1.88,1.88,0,0,0,1.87-1.87,1.92,1.92,0,0,0-1.87-1.88,3.61,3.61,0,0,0-2,.42,1.89,1.89,0,0,0-.38,2.95,32.89,32.89,0,0,0,6.84,4.44c1.78.85,4-1.47,2.27-3L70,27.88a32.35,32.35,0,0,0-3.66-2.95,5.25,5.25,0,0,0-3.92-.84,5.46,5.46,0,0,0-1.78.87c-.22.15-.45.31-.67.48s-.38.07-.17.13l1.12,2.76a28.2,28.2,0,0,0,2.86-5.47c.57-1.43-1.06-2.57-2.31-2.31a7.58,7.58,0,0,0-5.21,4.05,1.93,1.93,0,0,0,.68,2.57,4,4,0,0,0,6-3.46,1.9,1.9,0,0,0-2.82-1.62,17.18,17.18,0,0,0-4.52,3.84c-1.52,1.84,1.1,4.51,2.65,2.65a24.29,24.29,0,0,0,4.62-8.37c.55-1.71-1.37-2.73-2.75-2.12a13.74,13.74,0,0,0-4.46,3.16,18.49,18.49,0,0,0-1.68,2.17c-.17.25-.34.47-.53.7-.34.41-.2.3-.56.26l1.62,2.82q2.49-4.56,5.38-8.9l-3.43-1.44a89.57,89.57,0,0,1-5,10.79A1.9,1.9,0,0,0,53,30.47a35.36,35.36,0,0,0,13.77-1.79A5,5,0,0,1,69,28.23c.62.12.48.63.54,1.32.22,2.53.45,5.06.67,7.59a1.89,1.89,0,0,0,3.69.5c1.43-4.36-.39-8.9-3.49-12-2.92-3-7.32-5.72-11.65-4.82-3.85.8-6.08,4.42-6.49,8.11-.47,4.19,1.81,8,4.33,11.16,1.35,1.69,2.82,3.63,4.85,4.51a4.77,4.77,0,0,0,5.92-1.51l-3.24-1.89-1.53,3.47,2.12-.86a17.88,17.88,0,0,1-8.2-6.83,18.49,18.49,0,0,1-2.25-4.78,17.46,17.46,0,0,1-.6-2.67,14,14,0,0,1-.12-1.44,3.59,3.59,0,0,0,0-.47c.06-.33-.1-.22-.47.33,2.37-.48,1.37-4.09-1-3.62Z"/><path class="cls-2" d="M10.38,48.72a1.37,1.37,0,0,0,.45-.11A6.38,6.38,0,0,0,12,48a11.48,11.48,0,0,0,3.61-3.31,18.37,18.37,0,0,0,2.94-6.66A80.55,80.55,0,0,0,20,29.33a30,30,0,0,1,2.16-8.41,30.48,30.48,0,0,1,4-5.85,12.31,12.31,0,0,0,2.37-4.28A5.48,5.48,0,0,0,28.7,10a3.14,3.14,0,0,0,.05-.57,1.38,1.38,0,0,0,0-.46s-.07.15-.12.45a4.14,4.14,0,0,1-.12.53,5.22,5.22,0,0,1-.22.72,13.36,13.36,0,0,1-2.51,4c-.64.79-1.39,1.63-2.14,2.59a16.5,16.5,0,0,0-2.1,3.3,28.82,28.82,0,0,0-2.28,8.6c-.42,3.11-.69,6.07-1.31,8.68a18.59,18.59,0,0,1-2.7,6.51,12.64,12.64,0,0,1-3.33,3.38,11.88,11.88,0,0,1-1.12.67C10.5,48.61,10.37,48.7,10.38,48.72Z"/><path class="cls-2" d="M33.85,4.55a2.48,2.48,0,0,0-.39-.64A9.37,9.37,0,0,0,32,2.29,4.18,4.18,0,0,0,28.8,1.13,11.15,11.15,0,0,0,24.56,2.8c-1.45.86-2.9,2-4.52,3a13,13,0,0,1-5.6,2.24,15.25,15.25,0,0,1-3.3-.22,4.68,4.68,0,0,0-3.55,1,9.29,9.29,0,0,0-2.3,3c-.59,1.12-1.08,2.26-1.62,3.41a66.64,66.64,0,0,0-3,6.84,11.21,11.21,0,0,0-.58,3.57A7.39,7.39,0,0,0,1,29a18.45,18.45,0,0,0,4.26,4.68,15.09,15.09,0,0,1,3.49,4,13.65,13.65,0,0,1,1.41,4.16,27.1,27.1,0,0,1,.38,3.34c.09,1.85.08,2.88.14,2.88a2.4,2.4,0,0,0,.09-.74c0-.49.07-1.22.06-2.15a23.92,23.92,0,0,0-.25-3.4,14,14,0,0,0-1.36-4.34,15.37,15.37,0,0,0-3.54-4.21A18.14,18.14,0,0,1,1.6,28.72a8.12,8.12,0,0,1-.19-6.43,69,69,0,0,1,2.94-6.74C5.45,13.29,6.29,10.85,8,9.4a4,4,0,0,1,3-.85,15,15,0,0,0,3.43.2,13.54,13.54,0,0,0,5.86-2.4c1.65-1.1,3.07-2.23,4.47-3.1a11.12,11.12,0,0,1,4-1.7,3.85,3.85,0,0,1,3,1A12.29,12.29,0,0,1,33.34,4C33.66,4.37,33.83,4.57,33.85,4.55Z"/><path class="cls-2" d="M73.89,62.25c.06,0-.23-.59-.53-1.68-.06-.28-.12-.58-.2-.92s-.11-.71-.13-1.1a14.71,14.71,0,0,1,0-2.71A28.11,28.11,0,0,1,74.91,49a71.75,71.75,0,0,0,3-8.31,17.84,17.84,0,0,0,.56-4.61,12,12,0,0,0-.88-4.25c-.51-1.28-1.13-2.41-1.65-3.49a15.29,15.29,0,0,1-1.19-3,12.56,12.56,0,0,1-.29-4.72c.14-1.13.33-1.73.27-1.75a4.76,4.76,0,0,0-.56,1.7,11.81,11.81,0,0,0,.06,4.89,16,16,0,0,0,1.14,3.2c.51,1.1,1.11,2.24,1.58,3.47a11.5,11.5,0,0,1,.78,4,17.41,17.41,0,0,1-.55,4.41,78.38,78.38,0,0,1-2.9,8.25,26.21,26.21,0,0,0-1.7,7,14.22,14.22,0,0,0,0,2.8c0,.41.14.79.2,1.13s.18.66.27.93a7.43,7.43,0,0,0,.55,1.22C73.77,62.13,73.86,62.27,73.89,62.25Z"/><path class="cls-2" d="M75.71,14.16s.11-.26.39-.69a3.9,3.9,0,0,1,1.66-1.4,4.22,4.22,0,0,1,3.36,0,5.6,5.6,0,0,1,1.8,1.18,11.15,11.15,0,0,1,1.51,1.95,9.73,9.73,0,0,0,1.87,2.13A13.48,13.48,0,0,0,88.86,19a57.17,57.17,0,0,1,5.86,3,13,13,0,0,1,5.21,13,5.05,5.05,0,0,1-1.69,3.22,17.16,17.16,0,0,1-3.36,1.73,44.09,44.09,0,0,0-6.44,3.61,42.08,42.08,0,0,0-9.19,8.41,39,39,0,0,0-2.79,3.9c-.35.61-.68,1.18-1,1.7s-.53,1-.75,1.47c-.43.9-.72,1.6-.92,2.09a.78.78,0,0,0,0,.62c.09.12.19.11.2.1s-.07,0-.13-.13a.75.75,0,0,1,0-.54c.24-.46.59-1.13,1-2,.24-.43.51-.9.8-1.43s.66-1,1-1.65a43.15,43.15,0,0,1,12-12,45.85,45.85,0,0,1,6.36-3.51,17.83,17.83,0,0,0,3.52-1.81,5.82,5.82,0,0,0,2-3.66,13.41,13.41,0,0,0-.87-7.93,13.26,13.26,0,0,0-4.69-5.76,56.41,56.41,0,0,0-6-3,10.32,10.32,0,0,1-4.29-3.56,11.67,11.67,0,0,0-1.61-2,6,6,0,0,0-2-1.22,4.51,4.51,0,0,0-3.63.16A3.79,3.79,0,0,0,76,13.4,1.76,1.76,0,0,0,75.71,14.16Z"/><path class="cls-2" d="M75.51,13.27a8.84,8.84,0,0,0-1.36-1.12c-.91-.67-2.24-1.62-3.94-2.73A55,55,0,0,0,56,2.55a36.87,36.87,0,0,0-4.44-1c-.73-.1-1.44-.21-2.15-.24a18.11,18.11,0,0,0-2.07-.09,32.49,32.49,0,0,0-7.1.75c-2,.42-3.56.86-4.64,1.17a8,8,0,0,0-1.67.57,8.39,8.39,0,0,0,1.74-.29c1.1-.22,2.69-.58,4.67-.93a35.4,35.4,0,0,1,7-.58,19.84,19.84,0,0,1,2,.11c.69,0,1.39.16,2.1.26a37.72,37.72,0,0,1,4.34,1,61.73,61.73,0,0,1,14.17,6.6c1.72,1,3.09,1.92,4,2.52A7.69,7.69,0,0,0,75.51,13.27Z"/><path class="cls-2" d="M39.3,67.11a3.57,3.57,0,0,0-1.54-.29,17.81,17.81,0,0,0-4.25.36,29,29,0,0,1-6.15.74,9.26,9.26,0,0,1-3.47-.75,5.24,5.24,0,0,1-2.64-2.51,8.65,8.65,0,0,1-.67-3.72,22.33,22.33,0,0,1,.36-3.63c.42-2.3.93-4.39,1.14-6.18a36,36,0,0,0,.24-4.25,6.39,6.39,0,0,0-.09-1.56A6.64,6.64,0,0,0,22,46.86c-.09,1-.19,2.44-.47,4.19s-.82,3.8-1.29,6.14a21.94,21.94,0,0,0-.42,3.74A9.24,9.24,0,0,0,20.57,65a5.91,5.91,0,0,0,3,2.86,9.78,9.78,0,0,0,3.74.77,15.34,15.34,0,0,0,3.41-.31c1-.19,2-.42,2.87-.6a22.06,22.06,0,0,1,4.15-.59C38.74,67.08,39.29,67.16,39.3,67.11Z"/><path class="cls-2" d="M40.72,65.31c-.18-.11-.52.16-.76.59s-.3.86-.12,1,.53-.16.77-.59S40.9,65.41,40.72,65.31Z"/><path class="cls-2" d="M40.41,67.38a17.92,17.92,0,0,0,2,.5,33.73,33.73,0,0,1,5.32,1.78c1.09.46,2.27,1,3.59,1.53a14.54,14.54,0,0,0,4.43,1.06A7.83,7.83,0,0,0,60.7,71a11.09,11.09,0,0,0,3.49-4.17,36.21,36.21,0,0,0,2-5c.54-1.64,1-3.24,1.41-4.75.83-3,1.61-5.76,2.46-8,.22-.54.44-1.06.64-1.56l.64-1.36c.44-.83.83-1.54,1.19-2.09s.66-1,.85-1.28.28-.45.26-.47-.15.12-.38.38a11.57,11.57,0,0,0-1,1.2A20.6,20.6,0,0,0,71,46.05l-.7,1.35c-.22.5-.46,1-.7,1.57a74.59,74.59,0,0,0-2.64,8c-.44,1.51-.89,3.1-1.44,4.71a35.1,35.1,0,0,1-2,4.86,10.4,10.4,0,0,1-3.23,3.91,7.11,7.11,0,0,1-4.49,1.13,14.5,14.5,0,0,1-4.25-1c-1.3-.48-2.5-1-3.61-1.44a27.82,27.82,0,0,0-5.46-1.57A8,8,0,0,0,40.41,67.38Z"/><path class="cls-2" d="M52.51,71.76a18.4,18.4,0,0,0-3.36,1.94c-.51.3-1,.7-1.65,1a2.88,2.88,0,0,1-2,.3l-5.06-.91c-1.8-.32-3.52-.57-5-1a10.54,10.54,0,0,1-3.69-1.7,8.47,8.47,0,0,1-1.87-2c-.36-.54-.53-.88-.58-.86s0,.39.33,1a7.15,7.15,0,0,0,1.79,2.28,10.15,10.15,0,0,0,3.83,2,45.64,45.64,0,0,0,5.07,1.06l2.63.45,2.47.4a4,4,0,0,0,1.25,0,3.58,3.58,0,0,0,1.11-.44,18.6,18.6,0,0,0,1.64-1.11A20.86,20.86,0,0,0,52.51,71.76Z"/><path class="cls-2" d="M48.28,58.6a8.57,8.57,0,0,0,0-1,1,1,0,0,1,.5-.83c.33-.19.82,0,1.52,0a1.47,1.47,0,0,0,1.1-1.84A3.5,3.5,0,0,0,50,53a8.29,8.29,0,0,0-2.31-1.08c-.83-.26-1.69-.48-2.58-.68A24.92,24.92,0,0,0,40,50.63a16.56,16.56,0,0,0-4.19.51,3.9,3.9,0,0,0-1.52.72A1.88,1.88,0,0,0,33.62,53a1.21,1.21,0,0,0,.14.8c.1.16.19.22.21.2a1.71,1.71,0,0,1-.06-1,1.52,1.52,0,0,1,.61-.86,3.61,3.61,0,0,1,1.39-.53A18.12,18.12,0,0,1,40,51.32a26.83,26.83,0,0,1,5,.65,14.62,14.62,0,0,1,4.65,1.6A2.89,2.89,0,0,1,50.84,55a.9.9,0,0,1-.58,1.17c-.45.1-1.09-.13-1.63.18A1.33,1.33,0,0,0,48,57.57C48.06,58.27,48.24,58.61,48.28,58.6Z"/><path class="cls-2" d="M40.53,63.16c.07-.07-.39-.67-1.2-1.58-.41-.46-.9-1-1.45-1.58a3.19,3.19,0,0,1-1.11-2,1.18,1.18,0,0,1,.37-1,7.14,7.14,0,0,0,.94-.91,1.3,1.3,0,0,0,.1-1.42,1.71,1.71,0,0,0-.86-.79,2.63,2.63,0,0,0-1.54-.09c-.34.08-.52.15-.52.2s.2.08.54.09a3.1,3.1,0,0,1,1.29.28,1.27,1.27,0,0,1,.54.58.72.72,0,0,1-.1.74c-.19.24-.55.46-.91.8A1.89,1.89,0,0,0,36,58a2.74,2.74,0,0,0,.49,1.46,6.28,6.28,0,0,0,.88,1C38,61.05,38.5,61.54,39,62,39.86,62.77,40.45,63.24,40.53,63.16Z"/><path class="cls-2" d="M47.38,55.42s-.19-.15-.54,0a1.22,1.22,0,0,0-.52.42,1.26,1.26,0,0,0-.24.88,1.68,1.68,0,0,0,.55.92,1,1,0,0,1,.31.73,1.46,1.46,0,0,1-.31.86,2.85,2.85,0,0,1-.84.71c-.7.39-1.47.78-2.11,1.14s-1.24.69-1.72,1c-1,.58-1.55,1-1.5,1.08s.71-.15,1.74-.61c.52-.23,1.13-.51,1.8-.84s1.38-.67,2.18-1.11a3.54,3.54,0,0,0,1-.92,2,2,0,0,0,.4-1.32,1.56,1.56,0,0,0-.56-1.13,1.46,1.46,0,0,1-.47-.58,1,1,0,0,1,.38-1C47.19,55.49,47.38,55.48,47.38,55.42Z"/><path class="cls-2" d="M42.25,58c-.2-.07-.72.91-1.18,2.18s-.66,2.36-.47,2.43.73-.9,1.18-2.17S42.44,58.05,42.25,58Z"/><path class="cls-2" d="M35.52,33.3a7.17,7.17,0,0,0,.09-2.68,18.16,18.16,0,0,0-.44-2.9,6.69,6.69,0,0,0-.65-1.67,3.51,3.51,0,0,0-3.39-1.79,6.78,6.78,0,0,0-1.76.36A23.51,23.51,0,0,0,26.7,25.8a10.17,10.17,0,0,0-2.31,1.33,9.08,9.08,0,0,0,2.53-.84c.77-.3,1.66-.71,2.66-1a4.26,4.26,0,0,1,3.16,0,4,4,0,0,1,1.77,2.6,27.72,27.72,0,0,1,.58,2.77A15.23,15.23,0,0,0,35.52,33.3Z"/><path class="cls-2" d="M69.15,35.34a5.1,5.1,0,0,0-1.12-2,12.87,12.87,0,0,0-1.68-1.87,5.29,5.29,0,0,0-1.3-.84,4.18,4.18,0,0,0-1.66-.35,8.24,8.24,0,0,0-3,.73,17,17,0,0,0-2.25,1.09c-1.25.76-1.68,1.64-1.59,1.67a17.33,17.33,0,0,1,1.85-1.2,20.62,20.62,0,0,1,2.24-.91A8.49,8.49,0,0,1,63.39,31a3.94,3.94,0,0,1,2.52,1,16.13,16.13,0,0,1,1.71,1.68C68.54,34.69,69.05,35.4,69.15,35.34Z"/><path class="cls-2" d="M67.52,33.48a10.09,10.09,0,0,1-.77,2A4.12,4.12,0,0,1,65.11,37a4,4,0,0,1-2.67.3A3.82,3.82,0,0,1,60.2,35.9a4.39,4.39,0,0,1-.83-2.09,3.69,3.69,0,0,1,0-.88,1.42,1.42,0,0,1,.14-.62c.15-.32.38-.31.38-.36s0-.07-.17-.07a.65.65,0,0,0-.45.26,1.79,1.79,0,0,0-.32.71,4.22,4.22,0,0,0-.11,1,4.61,4.61,0,0,0,.79,2.46,4.34,4.34,0,0,0,2.65,1.77,4.5,4.5,0,0,0,3.16-.42,4.4,4.4,0,0,0,1.78-1.88,3.94,3.94,0,0,0,.42-1.67C67.64,33.7,67.57,33.48,67.52,33.48Z"/><path class="cls-2" d="M62.13,36.85s0,.18.18.38a1.29,1.29,0,0,0,1.09.25,2.62,2.62,0,0,0,1.44-.78,4,4,0,0,0,1-1.68,3.86,3.86,0,0,0,.06-2,3.81,3.81,0,0,0-.67-1.43c-.56-.72-1.11-.92-1.15-.84s.33.43.7,1.13a3.73,3.73,0,0,1,.34,2.88,3.81,3.81,0,0,1-.79,1.43,2.22,2.22,0,0,1-1,.73,1.15,1.15,0,0,1-.82,0C62.28,36.91,62.18,36.82,62.13,36.85Z"/><path class="cls-2" d="M61.23,31.51c0,.06.13.08.28.17a1.09,1.09,0,0,1,.47.53,1.57,1.57,0,0,1,0,1.06,4.64,4.64,0,0,1-.23.69c-.11.31-.12.31-.2.32a1.39,1.39,0,0,1-.54-.2,2.45,2.45,0,0,1-.53-.4,1.26,1.26,0,0,1-.4-.92,1.22,1.22,0,0,1,.25-.67c.11-.14.21-.21.19-.26s-.14-.08-.37,0a1.23,1.23,0,0,0-.59.83A1.67,1.67,0,0,0,60,34.14a2.66,2.66,0,0,0,.67.57,1.76,1.76,0,0,0,1,.32.8.8,0,0,0,.6-.35,2.1,2.1,0,0,0,.21-.48,6.53,6.53,0,0,0,.21-.79A1.94,1.94,0,0,0,62.44,32a1.23,1.23,0,0,0-.85-.56C61.34,31.38,61.22,31.47,61.23,31.51Z"/><path class="cls-2" d="M34.2,32.3c-.07-.1-.66.41-1.79.71a4.42,4.42,0,0,1-2,.07,3.92,3.92,0,0,1-2.05-1.16,4.1,4.1,0,0,1-.94-2.18,19.1,19.1,0,0,1-.18-2.08,9.11,9.11,0,0,1,.2-1.91s-.2.1-.37.43a3.92,3.92,0,0,0-.36,1.46,13.62,13.62,0,0,0,0,2.2,4.51,4.51,0,0,0,1.07,2.58,4.31,4.31,0,0,0,2.48,1.34,4.5,4.5,0,0,0,2.26-.24C33.79,33,34.27,32.35,34.2,32.3Z"/><path class="cls-2" d="M35.25,30.51c-.08-.09-.62.44-1.63.93a4.16,4.16,0,0,1-1.84.44,3,3,0,0,1-2-.84,2.26,2.26,0,0,1-.53-1,5.29,5.29,0,0,1-.13-1.13,11,11,0,0,1,.13-2,11,11,0,0,0,.31-1.87c-.09,0-.51.59-.83,1.76a9,9,0,0,0-.3,2.11,5.44,5.44,0,0,0,.11,1.3,2.67,2.67,0,0,0,.7,1.31,3.45,3.45,0,0,0,2.56,1,4.31,4.31,0,0,0,2.1-.66C34.92,31.23,35.32,30.57,35.25,30.51Z"/><path class="cls-2" d="M31.39,25.13c0,.11.39.23.59.78a1.85,1.85,0,0,1,.07,1,1.09,1.09,0,0,1-.6.85.63.63,0,0,1-.84-.24,2.08,2.08,0,0,1-.41-.92c-.12-.6,0-1-.09-1s-.42.32-.44,1.09a2.23,2.23,0,0,0,.38,1.28,1.38,1.38,0,0,0,.7.58,1.33,1.33,0,0,0,1-.05,1.59,1.59,0,0,0,.72-.63,2,2,0,0,0,.26-.8,2.06,2.06,0,0,0-.28-1.33,1.25,1.25,0,0,0-.72-.58C31.51,25,31.39,25.09,31.39,25.13Z"/><path class="cls-2" d="M20.43,33.66c-.21,0,0,2.56.32,5.67s.5,5.64.71,5.63.33-2.56,0-5.7S20.63,33.63,20.43,33.66Z"/><path class="cls-2" d="M67.84,54.13s-.21,0-.6-.12a4.65,4.65,0,0,1-1.59-.66,7.6,7.6,0,0,1-2-1.89,24,24,0,0,1-1.86-3.17A10.79,10.79,0,0,0,59,44.67c-.67-.5-1.42-.9-2.12-1.36A11.35,11.35,0,0,1,55,41.63a16,16,0,0,1-2.86-4.75,44.7,44.7,0,0,1-1.81-5.8A113.76,113.76,0,0,1,47.9,19.54,55.3,55.3,0,0,1,47.06,10a17.75,17.75,0,0,1,.48-3.62,12,12,0,0,1,1-2.57c.73-1.33,1.37-1.92,1.31-2s-.18.12-.47.4a8,8,0,0,0-1.09,1.42,11.12,11.12,0,0,0-1.13,2.61,16.14,16.14,0,0,0-.61,3.7,51.35,51.35,0,0,0,.69,9.68,102.19,102.19,0,0,0,2.33,11.63,45,45,0,0,0,1.86,5.89,16.45,16.45,0,0,0,3,4.94,11.54,11.54,0,0,0,2.1,1.76c.74.47,1.48.85,2.11,1.31a10.31,10.31,0,0,1,2.72,3.38,24.52,24.52,0,0,0,2,3.17A7.63,7.63,0,0,0,65.5,53.6a4.26,4.26,0,0,0,1.72.56A1.39,1.39,0,0,0,67.84,54.13Z"/><path class="cls-3" d="M30.15,30.59l.37.48a1.07,1.07,0,0,0,.32.35.93.93,0,0,0,.43.22l.33.05a1.29,1.29,0,0,0,.63-.17l.2-.14a1.53,1.53,0,0,0,.28-.29.66.66,0,0,0,.14-.2c0-.1.1-.22.14-.32s0,0,0-.06,0-.24.05-.36v0a1.79,1.79,0,0,0-.05-.42.36.36,0,0,0,0-.1c0-.1-.09-.22-.14-.32s0,0,0-.05l0,0a1.78,1.78,0,0,0-.21-.27l0,0a1.51,1.51,0,0,0-.28-.22l-.19-.08-.18-.08a2.47,2.47,0,0,0-.38,0h-.05a1.93,1.93,0,0,0-.42.06l-.33.14-.06,0a1.72,1.72,0,0,0-.59.58,2,2,0,0,0-.18.39s0,0,0,.06a1.59,1.59,0,0,0-.06.38v.08c0,.11,0,.25.05.35a.25.25,0,0,0,0,.07,2.44,2.44,0,0,0,.14.34,1.29,1.29,0,0,0,.45.45,1,1,0,0,0,.47.15,1,1,0,0,0,.5,0,1.23,1.23,0,0,0,.55-.32,2.13,2.13,0,0,0,.25-.34,1.54,1.54,0,0,0,.08-.19,1.89,1.89,0,0,0,.09-.21s0,0,0-.06,0-.25,0-.38v-.13a3,3,0,0,0-.07-.43,1.19,1.19,0,0,0-.08-.2c0-.06,0-.14-.09-.21l0-.05L32,28.67a.08.08,0,0,1,0,0l-.13-.09a.62.62,0,0,0-.28-.17l-.18-.07a2.2,2.2,0,0,0-.36,0h0l-.37.05h-.05l-.19.08-.19.08,0,0a2,2,0,0,0-.28.21l-.08.07c-.08.11-.18.22-.25.33a1.73,1.73,0,0,0-.1.24.7.7,0,0,0-.09.24c0,.12,0,.25-.06.37V30a2.1,2.1,0,0,0,0,.43s0,0,0,.05.09.23.14.34l0,.05c.07.09.14.2.22.29a1,1,0,0,0,.4.25.91.91,0,0,0,.49.11l.33,0a1,1,0,0,0,.42-.23.61.61,0,0,0,.23-.22.93.93,0,0,0,.22-.43l.05-.33a1.29,1.29,0,0,0-.17-.63,2.55,2.55,0,0,1-.25-.46l.13.3a2.72,2.72,0,0,1-.19-.69,1,1,0,0,0-.22-.43,1.07,1.07,0,0,0-.35-.32,1,1,0,0,0-.47-.15,1,1,0,0,0-.5,0,1.21,1.21,0,0,0-.74.57l-.13.3a1.23,1.23,0,0,0,0,.66,3,3,0,0,0,.15.61,4.35,4.35,0,0,0,.41.84l2-1.51,0,0,.19.26s0-.05,0-.08l.12.3a.44.44,0,0,1,0-.1l0,.33V30l0,.33a.65.65,0,0,1,0-.13l-.13.3a1,1,0,0,1,.08-.14l-.2.26a.47.47,0,0,1,.1-.1l-.25.19.1-.06-.3.13.1,0-.33.05a.14.14,0,0,1,.09,0l-.34-.05h.05l-.55-.32.05.06L30,30.2l.08.13L30,30a.57.57,0,0,1,0,.14l0-.33V30l0-.33a.42.42,0,0,1,0,.15l.13-.3-.06.11.19-.25h0l2,.26,0,0,.13.3a.19.19,0,0,1,0-.08l0,.33v-.09l0,.33a.29.29,0,0,1,0-.09l-.12.29.07-.11-.2.25.08-.08-.25.2a.21.21,0,0,1,.1-.06l-.3.12.08,0-.33.05a.14.14,0,0,1,.09,0l-.33-.05.08,0-.3-.12.06,0-.25-.19.06.06-.2-.25a.22.22,0,0,1,.05.08l-.12-.3a.5.5,0,0,1,0,.13l0-.33v.13l0-.33,0,.11.13-.3-.05.07.2-.25-.06.06.25-.2-.07.05,1.71.45-.37-.48A1,1,0,0,0,32,29a1.16,1.16,0,0,0-.92-.25,1,1,0,0,0-.47.15,1.27,1.27,0,0,0-.57.75L30,30a1.24,1.24,0,0,0,.17.63Z"/><path class="cls-3" d="M30.36,31a2.38,2.38,0,0,0,1.63.72,2.41,2.41,0,0,0,1.66-.62l-1.77-1.77a3.07,3.07,0,0,1-.26.25l.25-.2a1,1,0,0,1-.25.16l.29-.13a.48.48,0,0,1-.17.05l.34,0h-.15l.33,0-.14,0,.29.12-.08-.05.25.2-.1-.1.19.25a.2.2,0,0,1,0-.08l.12.3a.29.29,0,0,1,0-.09l0,.33a.28.28,0,0,1,0-.09L30.9,31.29a2.51,2.51,0,0,0,2.33.25,2.88,2.88,0,0,0,1.1-.72A2.36,2.36,0,0,0,35,29.63l-1.54.88h.05l-.29-.13.09.05L33,30.25a.46.46,0,0,1,.07.07l-.19-.25.06.09-.13-.3a.17.17,0,0,1,0,.1l0-.33v.05a1.37,1.37,0,0,0,.37.88,1.24,1.24,0,0,0,2.13-.88V29a1.26,1.26,0,0,0-1.25-1.25A1.28,1.28,0,0,0,32.8,29v.55h2.5c0-.33,0-.66,0-1a1.33,1.33,0,0,0-.69-1.13,1.87,1.87,0,0,0-.83-.22,1.9,1.9,0,0,0-1.89,1.43l2.41.66a2,2,0,0,0,0-.93,1.79,1.79,0,0,0-.43-.73,1.43,1.43,0,0,0-1-.43,1.38,1.38,0,0,0-.69.19,1.59,1.59,0,0,0-.5.5,1.24,1.24,0,0,0-.12,1,1.26,1.26,0,0,0,2.08.56,3.31,3.31,0,0,0,.8-3,1.26,1.26,0,0,0-1.54-.88A1.28,1.28,0,0,0,32,27.06l0,.18,0-.33a2.57,2.57,0,0,1,0,.48l0-.33a2.44,2.44,0,0,1-.14.53l.12-.3a1.76,1.76,0,0,1-.24.42l.19-.25a1.34,1.34,0,0,1-.11.14l2,1.51,0,0-.19.25,0,0-.25.2h0l-.3.12h-.58l-.3-.12h0L32,29.33l.08.08-.2-.25a.75.75,0,0,1,.07.12l-.13-.3a.74.74,0,0,1,0,.14l-.05-.33a.28.28,0,0,1,0,.09l0-.34v.05a1.4,1.4,0,0,0,.12,1,1.25,1.25,0,0,0,2.29-.3l0-.13-.12.3a.75.75,0,0,1,.07-.12l-.2.26.13-.13-.25.2a.51.51,0,0,1,.16-.09l-.3.12.18,0-.33,0h.13l-.33,0a.48.48,0,0,1,.17.05l-.3-.13.08.05-.62-1.08,0,1a1.25,1.25,0,0,0,2.5,0V29H32.8v.73h2.5a1.79,1.79,0,0,0-.36-1,1.63,1.63,0,0,0-.87-.58,1.27,1.27,0,0,0-1,.12,1.23,1.23,0,0,0-.57.75,1.67,1.67,0,0,1-.08.3l.12-.3a.92.92,0,0,1-.16.27l.2-.25a3,3,0,0,1-.25.25l.25-.2a1.41,1.41,0,0,1-.35.21l.3-.12a2.62,2.62,0,0,1-.4.11l.33,0a1.77,1.77,0,0,1-.4,0l.33,0a1.11,1.11,0,0,1-.3-.08l.3.13a1.48,1.48,0,0,1-.27-.16,1.25,1.25,0,0,0-1.71.45,1.24,1.24,0,0,0-.17.63,1.5,1.5,0,0,0,.46,1.18,1.84,1.84,0,0,0,1.19.53,2.27,2.27,0,0,0,1.72-.82A1.26,1.26,0,0,0,32.77,29a1.48,1.48,0,0,0-.89.37l0,0,.26-.19-.22.13.3-.13a1,1,0,0,1-.3.08l.34,0h-.31l.33,0a1.37,1.37,0,0,1-.29-.07l.3.12a1,1,0,0,1-.23-.12l.26.19a.5.5,0,0,1-.15-.14A1.25,1.25,0,0,0,30.36,31Z"/><path class="cls-3" d="M32.79,30.57a9.69,9.69,0,0,1-.78-.79q-.2-.21-.36-.42s-.06-.08,0,0l-.09-.13c-.06-.07-.11-.15-.16-.22a10,10,0,0,1-.57-.92c-.09-.16-.18-.33-.26-.5a2.72,2.72,0,0,1-.11-.25l-.05-.11,0-.08a.65.65,0,0,0-.77-.44.62.62,0,0,0-.44.77,10.65,10.65,0,0,0,2.76,4,.62.62,0,0,0,.88-.88Z"/><path class="cls-3" d="M30.19,28.64a6.3,6.3,0,0,1-.05-.75c0-.12,0-.24,0-.37s0-.12,0-.18a.25.25,0,0,0,0-.08c0,.08,0,.08,0,0,.05-.25.1-.49.17-.73s.08-.23.13-.35.07-.17,0-.05l.09-.19a.63.63,0,1,0-1.08-.63,5.94,5.94,0,0,0-.56,3.32.67.67,0,0,0,.18.44.63.63,0,0,0,.45.18c.3,0,.67-.28.62-.62Z"/><path class="cls-3" d="M30.05,26.26a.63.63,0,0,0,0-1.25.63.63,0,0,0,0,1.25Z"/><path class="cls-3" d="M30.35,31l.42.56a.4.4,0,0,0,.16.18.56.56,0,0,0,.46.12.48.48,0,0,0,.23-.07l.13-.1a.63.63,0,0,0,.16-.27l0-.17a.72.72,0,0,0-.08-.32l-.42-.56a.52.52,0,0,0-.16-.17.39.39,0,0,0-.22-.11.52.52,0,0,0-.25,0,.49.49,0,0,0-.23.08l-.12.1a.59.59,0,0,0-.17.27l0,.17a.56.56,0,0,0,.09.31Z"/><path class="cls-3" d="M33.73,26.49a3.63,3.63,0,0,0-.86-1.66.61.61,0,0,0-.44-.19.6.6,0,0,0-.44.19.63.63,0,0,0,0,.88l.14.18L32,25.76a3.14,3.14,0,0,1,.37.64l-.06-.15a3.74,3.74,0,0,1,.17.57.65.65,0,0,0,.29.38.62.62,0,0,0,.48.06.6.6,0,0,0,.37-.29.67.67,0,0,0,.07-.48Z"/><path class="cls-3" d="M63.37,34.93l-.51-.28a.62.62,0,0,0-.63,0,1.06,1.06,0,0,0-.46,1.1.63.63,0,0,0,.61.46.67.67,0,0,0,.6-.46c.24-.63-.38-1.46-1.07-1.21a.94.94,0,0,0-.38,1.53L62,35h-.17s-.19,0-.05,0l-.27-.06-.16-.06c-.16-.06.1.06,0,0L61,34.71l0,0-.12-.11a2.18,2.18,0,0,1-.21-.22s0,.07,0,0l-.09-.14-.08-.15c-.06-.12,0,.08,0,0l-1.14.48a7.79,7.79,0,0,0,2,2.58,1.61,1.61,0,0,0,1.71.32,3.13,3.13,0,0,0,1.23-1.11.63.63,0,0,0-.22-.86.64.64,0,0,0-.86.23c-.11.14,0,0,0,0l-.1.12-.2.22-.13.11s-.07.05,0,0l-.15.09c-.05,0-.05,0,0,0l-.15,0c.05,0,.07,0,0,0s.11,0,0,0-.08,0,0,0l-.15-.09s-.07-.05,0,0a2.73,2.73,0,0,1-.25-.23l-.46-.48-.21-.25s-.09-.12,0-.06a1.13,1.13,0,0,1-.1-.13,9.16,9.16,0,0,1-.7-1.16.62.62,0,0,0-1.14.48A2.92,2.92,0,0,0,62,36.25a.63.63,0,0,0,.44-1.06.32.32,0,0,1-.23.55l-.32-.08c.1,0,0-.06-.07-.11a.3.3,0,0,1,0-.1c0-.09,0-.1,0,0H63c0,.16,0,.23-.12.31h-.63l.51.28a.64.64,0,0,0,.86-.23.63.63,0,0,0-.23-.85Z"/><path class="cls-3" d="M63.07,36.65h0l-.28-.16h0l-.18-.44v0l.08-.32c.19-.14.23-.19.14-.14l.31-.09.11,0,.28.16,0,0,.16.28v.27l0,.06s.09-.08.12-.11a2.52,2.52,0,0,0,.21-.25,2.61,2.61,0,0,0,.35-.66,2.4,2.4,0,0,0,.07-1.38.62.62,0,0,0-1-.27l-1,1.19a.62.62,0,0,0,.88.88,2.77,2.77,0,0,0,1-2,.63.63,0,0,0-.94-.54,5.75,5.75,0,0,0-1.34,1.44.62.62,0,0,0,.23.85.64.64,0,0,0,.85-.22,3.67,3.67,0,0,0,0-4l-.54.94s.21,0,.17,0,.11,0,.13,0h0l.11.06c.09.06,0,0,.08.06a.94.94,0,0,1,.18.24.86.86,0,0,1,.12.32s0,0,0,0,0,.08,0,.12v.29a3,3,0,0,1-.09.41,6.85,6.85,0,0,1-.36.95L64,35.1a9.63,9.63,0,0,0,.65-3.39l-1.22.16a5.78,5.78,0,0,1,.15,3.87.63.63,0,0,0,1.21.33,11.79,11.79,0,0,0,.55-1.84,5.62,5.62,0,0,0,.15-2,1.83,1.83,0,0,0-1-1.38,1.5,1.5,0,0,0-1.7.17.62.62,0,0,0,0,.88.63.63,0,0,0,.88,0c-.06,0,0,0,0,0h0c.09,0-.09,0,0,0h.06c-.07,0,.1,0,.09,0s0,0,0,0L64,32h0s.11.13.07.07,0,.06,0,.07a.7.7,0,0,1,.08.2,1.81,1.81,0,0,1,0,.58,9.56,9.56,0,0,1-.7,2.77l1.21.33a7,7,0,0,0-.16-4.53.63.63,0,0,0-.68-.45.64.64,0,0,0-.55.62,8.62,8.62,0,0,1-.6,3,.63.63,0,0,0,1.14.49,4.07,4.07,0,0,0,.52-2.86,2,2,0,0,0-2-1.49.63.63,0,0,0-.54.31.62.62,0,0,0,0,.63,2.3,2.3,0,0,1,.41,1.38,2.43,2.43,0,0,1-.45,1.37l1.08.63a4.21,4.21,0,0,1,.89-1l-.94-.54a1.59,1.59,0,0,1-.58,1.13l.88.88,1-1.19-1-.27a.51.51,0,0,1,0,.13s0,0,0,0,0,.25,0,.17a2,2,0,0,1,0,.24l0,.14a1,1,0,0,1-.25.37,1.3,1.3,0,0,0-.38.52.72.72,0,0,0,1,.85.68.68,0,0,0-.13-1.25.62.62,0,1,0-.33,1.2Z"/></g></g></svg>