<svg xmlns="http://www.w3.org/2000/svg" viewBox="0 0 113.89 100.67"><defs><style>.cls-1{fill:#be942b;}.cls-2{fill:#b49c13;stroke:#b49c13;stroke-miterlimit:10;stroke-width:0.19px;}</style></defs><g id="Layer_2" data-name="Layer 2"><g id="risba"><path class="cls-1" d="M39.83,56.36a26.1,26.1,0,0,0-13.3,12.4,25.82,25.82,0,0,0-1.08,20c.82,2.27,2,5.66,4.92,5.47,1.95-.12,3.86-1.09,5,1.12.39.74.7,1.54,1,2.3a8.45,8.45,0,0,0,1.23,2.5c.84.89,2.19.48,3.24.32,1.68-.27,3.36-.55,5-.93a25.18,25.18,0,0,0,9.28-3.8A16.75,16.75,0,0,0,61.51,78a.25.25,0,0,0-.48.13,16.3,16.3,0,0,1-4.89,16.21,21.57,21.57,0,0,1-8.38,4.19c-1.44.4-2.91.71-4.38,1s-4.51,1.28-5.53,0c-1.46-1.77-1.28-5.6-4-6.2-1.24-.27-2.44.36-3.66.35-2,0-2.85-1.8-3.56-3.4A25,25,0,0,1,40,56.85c.3-.13.17-.61-.13-.49Z"/><path class="cls-1" d="M27.16,67.56c-3.17.91-7.26.87-9.19-2.29-1.23-2-.52-4.84-2.47-6.45-1-.79-2.58-1.18-2.62-2.67,0-1.17.84-2.24,1.27-3.27A2.85,2.85,0,0,0,14.42,51a2.37,2.37,0,0,0-.46-.84c-.33-.45-1.08-.86-.55-1.58.19-.27.75-.4,1.05-.51A2.46,2.46,0,0,0,16,44.39c-.49-1.21-1.5-2-2.22-3.08-1.42-2.08,0-3.5,1.23-5.19l6.09-8.44c1.73-2.4,3.6-5.28,6.56-6.28C31.32,20.19,35,22.45,37.46,25s4.15,5.25,6.68,7.48c.24.21.59-.14.35-.36C40,28.15,36.78,20.74,29.94,20.57c-2.91-.07-5.2,1.71-7,3.84-2.29,2.73-4.25,5.76-6.33,8.65-1.14,1.56-2.37,3.1-3.41,4.72a3,3,0,0,0-.16,3.31c.65,1.19,1.8,2,2.39,3.24.47,1,.69,2.27-.42,2.92-.54.32-1.23.38-1.75.75a1.17,1.17,0,0,0-.5,1.4c.23.66,1,1,1.15,1.69a3.4,3.4,0,0,1-.59,2.32c-.88,1.75-1.61,3.49.3,4.82a6.89,6.89,0,0,1,2.18,1.68,6.92,6.92,0,0,1,.79,2.63,7.37,7.37,0,0,0,1.47,3.75C20.4,69,24.16,68.94,27.29,68a.25.25,0,0,0-.13-.48Z"/><path class="cls-1" d="M34,21.51c-2.28-5.29,2.27-10.22,6.4-12.83,2.1-1.32,4.32-2.42,6.41-3.76C48.64,3.73,52.27.6,54.09,3.56a.25.25,0,0,0,.45-.06C55.5.31,59.37.14,62,1s5.32,2.12,8,3,5.4,2,7.27,4.23a10.65,10.65,0,0,1,2.31,8.41c0,.31.43.45.48.13a11.12,11.12,0,0,0-2.17-8.55c-1.94-2.5-4.85-3.71-7.76-4.7-1.81-.62-3.6-1.24-5.35-2A17.17,17.17,0,0,0,60.2.06c-2.49-.32-5.36.72-6.14,3.31l.46-.06C53.18,1.12,50.47,1.87,48.7,3,45.88,4.84,43,6.46,40.12,8.25c-4.41,2.78-9,8-6.58,13.51.12.3.55,0,.43-.25Z"/><path class="cls-1" d="M78.29,21.51A9.07,9.07,0,0,1,83,14.64a14.18,14.18,0,0,1,9.33-1.33,27.31,27.31,0,0,1,8.46,2.91,29.1,29.1,0,0,1,3.58,2.26,4.82,4.82,0,0,1,2,2.12,3.83,3.83,0,0,1-.28,2.4c-.64,1.77-1.59,3.56-.39,5.31,1,1.52,3,2.22,3.9,3.78.72,1.18,0,2.29.16,3.53a7.46,7.46,0,0,0,1.61,3.12,12.44,12.44,0,0,1,2,7.93,12.31,12.31,0,0,1-12.93,11.08c-.32,0-.32.49,0,.5a12.92,12.92,0,0,0,12.68-8.14,12.91,12.91,0,0,0-1.55-11.94,6.93,6.93,0,0,1-1.27-2.26c-.23-.95.25-1.84.16-2.79-.19-2-2.39-3-3.68-4.3a3.4,3.4,0,0,1-1-3.73c.37-1.2,1.1-2.34,1.15-3.63a3.44,3.44,0,0,0-1.62-2.86A27.17,27.17,0,0,0,101.37,16,27.56,27.56,0,0,0,92,12.77a14.07,14.07,0,0,0-9.89,1.82,9.51,9.51,0,0,0-4.3,6.92c0,.32.48.32.5,0Z"/><path class="cls-1" d="M97.78,55.69c2.8,3.41,6,7.46,5,12.17a22.68,22.68,0,0,1-2.71,6.47c-1.25,2.22-3.22,4.44-6,4.06-.18,0-.37.1-.31.3,1.15,3.7-4.75,6.16-7.34,7.26A24.41,24.41,0,0,1,75.91,88c-6.27-.29-12.48-4.11-14.2-10.39a.25.25,0,0,0-.48.13C63.1,84.58,70,88.5,76.77,88.53a26.14,26.14,0,0,0,11.49-2.87c2.51-1.24,7.1-3.56,6-7.1l-.31.31a6,6,0,0,0,5.49-2.59,22.59,22.59,0,0,0,3.65-7.41c1.46-5.24-1.8-9.69-5-13.54-.2-.25-.55.11-.35.36Z"/><path class="cls-1" d="M57.54,26.27c-2.87,1.27-5.38,3.29-8.34,4.37-2.72,1-5.55,1-7.93,2.87-4.69,3.6-5.64,9.78-6.12,15.3,0,.32.47.31.5,0,.5-5.64,1.54-12.32,6.84-15.53,2.37-1.44,5.26-1.43,7.78-2.53s4.91-2.89,7.53-4.05c.29-.13,0-.56-.26-.43Z"/><path class="cls-1" d="M57.33,26.77l2.47-1-.32-.24c0,3.91-3.22,6.42-5.93,8.74A47.69,47.69,0,0,0,47,41.5c-4,5.13-8.09,10.84-14.62,12.75l.3.31a12.47,12.47,0,0,1,6.16-7.5,36.16,36.16,0,0,0,4.08-2.17,9.14,9.14,0,0,0,2.72-3.32c3.41-6.28,8.5-11,13.82-15.67.24-.21-.11-.56-.35-.35C53.71,30.24,48.59,35,45.17,41.32a9,9,0,0,1-3.85,3.93,40,40,0,0,0-4.24,2.26,13,13,0,0,0-4.92,6.91.26.26,0,0,0,.31.31c6.52-1.9,10.69-7.48,14.65-12.62a53.38,53.38,0,0,1,7.81-8.37c2.52-2.16,5-4.69,5-8.23a.25.25,0,0,0-.32-.24l-2.46,1c-.3.12-.17.61.13.48Z"/><path class="cls-1" d="M55.25,27.67a3.84,3.84,0,0,1,1.83-4.42c1.48-.83,3.12,0,4.68-.52s3.07-1.65,4.75-2.2A16.51,16.51,0,0,1,72,19.67c4,0,7.26,1.46,9.54,4.75.9,1.3,1.92,2.43,2.92,3.65,1.23,1.52,2.42,4.18.42,5.67-.21.16-.1.54.19.46,3.1-.89,6.75-1.29,7.87,2.49.79,2.7,1.07,6.22-1.09,8.36-.23.22.13.58.36.35,2.4-2.39,2.13-6.61,1-9.56-1.37-3.5-5.28-3-8.24-2.13l.19.46c2.1-1.56,1.3-4.34,0-6.11-1.14-1.5-2.38-2.89-3.48-4.43a9.67,9.67,0,0,0-3.4-3.05,15,15,0,0,0-9.27-1.16,17.08,17.08,0,0,0-4.95,1.65,14.45,14.45,0,0,1-2.49,1.24,13.17,13.17,0,0,1-3,0,4.31,4.31,0,0,0-3.66,5.47c.1.31.58.18.48-.13Z"/><path class="cls-1" d="M59.06,28.57c1-.74,2.31.05,3.21.45l2.26,1a36,36,0,0,1,4.31,2,3.63,3.63,0,0,1,1.52,5,11.22,11.22,0,0,1-3.21,3.41,78.67,78.67,0,0,1-8.41,6Q56.57,47.77,54.31,49c-1.17.62-3.8,2.53-5,1.3-.22-.23-.58.12-.35.35a2.37,2.37,0,0,0,2.72.23,38.54,38.54,0,0,0,4.29-2.2,81.43,81.43,0,0,0,8.89-5.77c2.22-1.67,5.33-3.56,6.26-6.32S70,32,67.7,30.91C65.8,30,63.88,29.18,62,28.34c-1.07-.47-2.24-.91-3.25-.13-.26.2.1.55.35.36Z"/><path class="cls-1" d="M46.49,43.23a19,19,0,0,1,2.35,7.83c.18,2.61-.38,5.2-.25,7.82.26,5.12,2.3,10,2,15.17l.38-.22a9.16,9.16,0,0,1-4.51-6c-.58-2.64.68-5,.54-7.63A4.78,4.78,0,0,0,46,57.49c-1.07-1.51-.75-3-.35-4.67A12.39,12.39,0,0,0,45,45.1c-.12-.29-.61-.16-.48.14a12,12,0,0,1,1,4.7,39.56,39.56,0,0,1-.76,4.61,4,4,0,0,0,.66,3,4.81,4.81,0,0,1,1.12,2.59,9.52,9.52,0,0,1-.23,2.32c-.45,2.37-.77,4.51.13,6.83a9.64,9.64,0,0,0,4.32,5,.24.24,0,0,0,.37-.21c.29-5.47-2-10.63-2-16.07,0-2.69.51-5.32.17-8a19.67,19.67,0,0,0-2.31-7,.25.25,0,0,0-.43.26Z"/><path class="cls-1" d="M38.64,51.31A8.48,8.48,0,0,0,39.53,56q1,2.39,2.1,4.72,2.4,5.1,5.22,10c.16.28.6,0,.44-.26q-2.55-4.41-4.76-9c-.73-1.53-1.44-3.08-2.11-4.64s-1.62-3.5-1.29-5.41c0-.31-.43-.45-.49-.13Z"/><path class="cls-1" d="M50.54,72.2c1.57,2.61,3.9,5.48,6.76,6.74a4,4,0,0,0,3.56-.16,2,2,0,0,1,2.31.38c.29.24.55.52.83.77a11.55,11.55,0,0,0,1.8,1.32,12.48,12.48,0,0,0,8,1.64c3.32-.48,5.89-2.57,8.2-4.86s4.4-5.62,2.22-8.6c-.19-.26-.62,0-.43.25,2.77,3.81-1.81,8-4.57,10.19a11.28,11.28,0,0,1-10.76,2A12.2,12.2,0,0,1,64,79.21c-1-.94-1.82-1.55-3.19-.94a3.69,3.69,0,0,1-3.4.16,11.21,11.21,0,0,1-2.61-1.87A20.18,20.18,0,0,1,51,72a.25.25,0,0,0-.43.25Z"/><path class="cls-1" d="M83.76,70.16c1.81,2.49,5.45,2.19,7.56.25,3-2.78,3.6-7.75,3.52-11.61l-.25.25,2.58-.22a.26.26,0,0,0,.24-.18c1.88-4.84-1.34-10.45-5.09-13.44a34.3,34.3,0,0,0-7.44-4.09,26.13,26.13,0,0,0-8.18-2.41c-.32,0-.32.47,0,.5a26.67,26.67,0,0,1,8.56,2.63,30.08,30.08,0,0,1,7.16,4.1,15.31,15.31,0,0,1,4.32,6.15,9.89,9.89,0,0,1,.7,4.2c0,.63,0,1.76-.7,2.08a7.31,7.31,0,0,1-2.15.18.24.24,0,0,0-.25.25c.07,3.29-.35,7-2.21,9.87-1.66,2.52-5.78,4.2-7.94,1.24-.19-.26-.62,0-.43.25Z"/><path class="cls-1" d="M70.86,37.58a15.58,15.58,0,0,1,6.87,2.14c1,.61,2,1.82.91,2.89-.9.89-2.24.75-3.39.65-2.29-.2-4.26.51-6.42,1.18s-4.38,1-6.2-.37c-.25-.2-.5.24-.25.43,2,1.51,4.64,1,6.87.33a17.64,17.64,0,0,1,4.63-1.14c1.31,0,2.68.39,4,0a2.5,2.5,0,0,0,1.73-1.71,2.4,2.4,0,0,0-1.14-2.34,14.89,14.89,0,0,0-7.57-2.52c-.32,0-.32.47,0,.5Z"/><path class="cls-1" d="M62.05,45.39c2.13,2.91.23,6.49-.88,9.38a15,15,0,0,0-.71,2.37,9.92,9.92,0,0,1-.57,2.71c-.74,1.42-2.42,2.09-3.83,2.64-.29.11-.17.59.14.48a8.43,8.43,0,0,0,3.73-2.28,4.07,4.07,0,0,0,.82-2.08,15.81,15.81,0,0,1,.8-3.41c1.15-3.12,3.23-6.93.93-10.06-.19-.26-.62,0-.43.25Z"/><path class="cls-1" d="M49.22,53.37c.36-.55,1,.11,1.23.39a4.3,4.3,0,0,1,.34.59l.81,1.45c.5.91,1,1.83,1.48,2.76,1,1.85,1.91,3.72,2.8,5.61s1.79,3.76,2.57,5.68c.39,1,.28,2-.79,2.34a2.46,2.46,0,0,1-1.37.08,2.86,2.86,0,0,1-2.14-2c-.1-.3-.58-.17-.48.14a3.29,3.29,0,0,0,4.43,2.1,1.89,1.89,0,0,0,1-2.52c-.52-1.46-1.24-2.87-1.88-4.28q-2.09-4.52-4.45-8.91c-.41-.76-2.51-5.88-3.94-3.73-.18.27.25.52.43.26Z"/><path class="cls-1" d="M58.44,71c5.19,1.75,10.57-.63,15.86-.29a.25.25,0,0,0,.12-.46A9.61,9.61,0,0,0,69.86,69,1.72,1.72,0,0,1,68,67.53a4.88,4.88,0,0,0-.66-1.47c-.92-1.12-2.56-.44-3.56-1.42a11.25,11.25,0,0,1-1.52-2.33L60.7,59.68a.25.25,0,0,0-.43.26,43.33,43.33,0,0,0,2.95,4.79,2.62,2.62,0,0,0,1.65,1c.84.15,1.77,0,2.26.88s.51,2.28,1.68,2.72a13.44,13.44,0,0,0,2.47.26,8.63,8.63,0,0,1,2.89,1.07l.13-.47c-5.24-.34-10.59,2-15.73.31-.3-.1-.43.38-.13.48Z"/><path class="cls-1" d="M68,71.39c1.5,2.06,2.89,4.42,5.81,4s5.4-3.2,7.55-5.08,5.2-3.66,5.15-6.84a19.33,19.33,0,0,0-.85-4.5,47,47,0,0,0-1.75-5.3c-.11-.3-.6-.17-.48.13A44.46,44.46,0,0,1,85.79,62a5,5,0,0,1-.85,4.42,30.75,30.75,0,0,1-3,2.76l-3.28,2.87a14.87,14.87,0,0,1-3.18,2.35,4.38,4.38,0,0,1-4.35,0,12.86,12.86,0,0,1-2.7-3.25c-.19-.26-.62,0-.43.25Z"/><path class="cls-1" d="M71.73,44.4a17.68,17.68,0,0,0,6.07,2.72,17.44,17.44,0,0,0,3.21.43,6,6,0,0,1,1.64.07c.48.16.63.88.6,1.33s-.12.65-.16,1a24.15,24.15,0,0,0-.38,3.6,31.76,31.76,0,0,0,.67,3.63,3.78,3.78,0,0,1-5,3.92c-.31-.09-.44.39-.14.49A4.29,4.29,0,0,0,83.64,59a5.2,5.2,0,0,0-.13-3.37,12.23,12.23,0,0,1,0-5.25c.13-.85.76-2.34-.12-3s-2.07-.3-3-.36A16.92,16.92,0,0,1,72,44c-.27-.18-.52.25-.26.44Z"/><path class="cls-1" d="M82.81,47.65q-2.28-2.37-4.37-4.92c-.2-.25-.55.1-.35.35q2.09,2.55,4.37,4.92c.22.24.57-.12.35-.35Z"/><path class="cls-1" d="M67.18,66.64a32.08,32.08,0,0,0,6.35.07,11,11,0,0,0,2.8-.4,1.39,1.39,0,0,0,.85-1.21c.11-.74-.06-1.5,0-2.25A13.45,13.45,0,0,1,77.7,60a16.88,16.88,0,0,0,1-5.35c0-.32-.51-.33-.5,0a16,16,0,0,1-.88,5,13.58,13.58,0,0,0-.57,4.56c0,.85,0,1.54-1,1.72a25.19,25.19,0,0,1-2.87.32,32.54,32.54,0,0,1-5.67-.12c-.32,0-.32.47,0,.5Z"/><path class="cls-1" d="M63.67,48.49c1.58-1.37,3.83-1.92,5.75-2.65.93-.35,2.2-1,3.16-.43s1,1.68,1,2.57c0,1.46.09,2.93,1.54,3.69s3.81.52,4.37,2.3a.25.25,0,0,0,.49-.06,12.44,12.44,0,0,0-2.08-6.82c-.18-.26-.61,0-.43.25a12,12,0,0,1,2,6.57l.49-.07c-.56-1.77-2.54-1.84-4-2.36A2.7,2.7,0,0,1,74,48.61,6.79,6.79,0,0,0,73.72,46c-.84-1.95-2.9-1.26-4.43-.68-2,.76-4.32,1.34-6,2.78-.25.21.11.56.35.35Z"/><path class="cls-1" d="M70.14,66.52c1.23-.71,2.77-.8,3.85-1.8a3.62,3.62,0,0,0,1-3.6.25.25,0,0,0-.48.14,3.11,3.11,0,0,1-1,3.26c-1,.81-2.45.92-3.57,1.57a.25.25,0,0,0,.25.43Z"/><path class="cls-1" d="M61.5,60.79c1.19.53,2.29-.21,3.18-1,.6-.51,1.42-1.22,2.27-1.1.64.1,1,.72,1.68.59a.25.25,0,0,0,.15-.37c-.53-1.07-1-2.25,0-3.23a6.8,6.8,0,0,1,2.69-1.33,7.88,7.88,0,0,0,3.85-3c.18-.26-.25-.51-.43-.25a7.17,7.17,0,0,1-2.51,2.26c-1,.52-2.07.71-3,1.23a3.18,3.18,0,0,0-1.59,1.79,3.86,3.86,0,0,0,.59,2.73l.15-.36c-.47.08-1-.56-1.51-.61a2.58,2.58,0,0,0-1.48.37c-1.11.61-2.33,2.4-3.75,1.76-.29-.13-.55.3-.26.43Z"/><path class="cls-1" d="M63.23,52.07A3.94,3.94,0,0,0,65,54.22a3.2,3.2,0,0,0,1.79,0l2.11-.39c.7-.14,1.41-.24,2.11-.4a.87.87,0,0,0,.76-.77,2.7,2.7,0,0,1,.67-1.52,2.41,2.41,0,0,1,1.65-.72.25.25,0,0,0,0-.5A2.91,2.91,0,0,0,71.92,51a2.75,2.75,0,0,0-.56,1.15c-.06.31-.07.62-.4.77a4.39,4.39,0,0,1-1,.19,37.87,37.87,0,0,1-3.94.72c-1.3.09-1.9-1-2.38-2-.14-.29-.57,0-.44.25Z"/><path class="cls-1" d="M64.5,47.78a5.61,5.61,0,0,0,9.19-1.26c.15-.29-.29-.54-.43-.25a5.11,5.11,0,0,1-8.41,1.16c-.22-.24-.57.11-.35.35Z"/><path class="cls-1" d="M64,52.62c-.41,1.36,1.19,2.31.93,3.63s-1.52,2-1.4,3.34c0,.32.53.32.5,0-.11-1.25,1.2-2.1,1.4-3.29a2.69,2.69,0,0,0-.4-1.7c-.29-.56-.75-1.18-.55-1.85.1-.3-.38-.44-.48-.13Z"/><path class="cls-1" d="M66.05,60.48a3.38,3.38,0,0,0,2.49,1.42,5.24,5.24,0,0,0,3.07-1.19,5.39,5.39,0,0,1,1.56-.61,3.32,3.32,0,0,0,1.28-.55c1-.78.47-2,0-3a13.68,13.68,0,0,0-2.36-3.65c-.22-.24-.57.11-.35.35A13.48,13.48,0,0,1,74,56.75c.28.61.71,1.49.33,2.14s-.93.62-1.45.75a6.22,6.22,0,0,0-1.56.63,9.69,9.69,0,0,1-1.71,1,2.78,2.78,0,0,1-3.16-1c-.19-.26-.62,0-.44.25Z"/><path class="cls-1" d="M74.67,56.82a8.55,8.55,0,0,1,2.1-4.33c.21-.23-.14-.59-.36-.35a9,9,0,0,0-2.22,4.55c-.06.32.43.45.48.13Z"/><path class="cls-1" d="M67.19,61.32a3.58,3.58,0,0,1-1.29,2.81.25.25,0,1,0,.35.35,4.05,4.05,0,0,0,1.44-3.16.25.25,0,0,0-.5,0Z"/><path class="cls-1" d="M72.25,54.26A6,6,0,0,0,71,59l.17-.31c-1.63.4-3.27.76-4.92,1.07-.32.06-.18.54.13.48,1.65-.31,3.29-.67,4.93-1.07a.25.25,0,0,0,.17-.3,5.44,5.44,0,0,1,1.16-4.27c.2-.25-.15-.6-.36-.35Z"/><path class="cls-1" d="M21.24,68.27a26.56,26.56,0,0,0-10.16,8.31c-1.47,2-2.48,4.35-4,6.29C5.25,85.05,2.74,86.07.18,87a.25.25,0,0,0,0,.48c6.57,1.9,12,6.17,18.54,8.14,5.27,1.6,12.34,3,17.32-.13a.25.25,0,0,0-.25-.43C33.14,96.72,30,96.92,27,96.69a38.34,38.34,0,0,1-9.4-1.94,56,56,0,0,1-8.67-4.13A41.68,41.68,0,0,0,.31,87v.48a17.83,17.83,0,0,0,5.94-3.09c1.83-1.63,2.89-3.9,4.16-5.94A26.07,26.07,0,0,1,21.49,68.7c.3-.13,0-.57-.25-.43Z"/><path class="cls-1" d="M19.7,28.55a37,37,0,0,1-2.57-10.67l-.25.25C19,18,18.25,15.3,18,14L16.44,5.42,16,5.66a13.79,13.79,0,0,0,9.46,3.79c3.85,0,9-2.22,11.87,1.46.2.25.55-.1.35-.35-2.24-2.87-6.11-2.33-9.28-1.88-4.46.63-8.67-.21-12-3.37a.25.25,0,0,0-.41.24l1,5.63.5,2.71c.18,1,1.07,3.67-.61,3.74a.26.26,0,0,0-.25.25,37.55,37.55,0,0,0,2.59,10.8c.12.3.61.17.48-.13Z"/><path class="cls-2" d="M13.76,86.46a31.49,31.49,0,0,0,6.63-1.28c1.8-.47,3.42-1,4.57-1.38.58-.19,1-.4,1.34-.46s.49,0,.51,0-.15-.18-.53-.18a6.85,6.85,0,0,0-1.44.29l-4.59,1.22A58.08,58.08,0,0,0,13.76,86.46Z"/><path class="cls-2" d="M22.09,15.43a9.22,9.22,0,0,0,2.56,3.9,9.2,9.2,0,0,0,3.88,2.6c.08-.15-1.71-1.2-3.48-3S22.24,15.35,22.09,15.43Z"/><path class="cls-2" d="M47,75.76c.13.08.72-.69,1.14-1.79s.51-2.06.36-2.09-.47.84-.88,1.89S46.82,75.68,47,75.76Z"/><path class="cls-2" d="M23.09,45.85a14.67,14.67,0,0,0,5.85,1A14.56,14.56,0,0,0,34.8,46c0-.17-2.62.37-5.86.32S23.13,45.68,23.09,45.85Z"/><path class="cls-2" d="M58.52,18a5.09,5.09,0,0,0,0,2.38A5,5,0,0,0,59,22.69a5.4,5.4,0,0,0,0-2.38A5.38,5.38,0,0,0,58.52,18Z"/><path class="cls-2" d="M100.34,34a18.33,18.33,0,0,0-3.6,1.29,18.8,18.8,0,0,0-3.51,1.53,10.34,10.34,0,0,0,3.71-1A10.42,10.42,0,0,0,100.34,34Z"/><path class="cls-2" d="M90.48,78.84c.07,0,0-.57-.36-1.39a12.55,12.55,0,0,0-4.24-5.38c-.73-.51-1.23-.73-1.27-.67s1.71,1.34,3.32,3.41S90.32,78.9,90.48,78.84Z"/></g></g></svg>