<svg xmlns="http://www.w3.org/2000/svg" viewBox="0 0 39.42 44.71"><defs><style>.cls-1{fill:#b49c13;stroke:#b49c13;stroke-miterlimit:10;stroke-width:0.19px;}</style></defs><g id="Layer_2" data-name="Layer 2"><g id="risba"><path class="cls-1" d="M32.5.1l-.07,0a.71.71,0,0,0-.17.09,3.53,3.53,0,0,0-.59.45,7.7,7.7,0,0,0-.76.9c-.27.37-.56.81-.88,1.28-1.29,1.9-3,4.58-4.75,7.63s-3.19,5.88-4.19,8c-.49,1-.88,1.89-1.14,2.47a3.51,3.51,0,0,0-.26.7c0,.18,0,.27,0,.26a1.51,1.51,0,0,1,0-.25,3,3,0,0,1,.29-.67l1.2-2.44c1-2.05,2.49-4.87,4.24-7.91s3.43-5.73,4.69-7.65c.31-.48.59-.92.85-1.3a8,8,0,0,1,.72-.91A6.18,6.18,0,0,1,32.5.1Z"/><path class="cls-1" d="M22.38,44.45s-.11,0-.33.06a2.56,2.56,0,0,1-.95,0,2.82,2.82,0,0,1-1.35-.66,2.64,2.64,0,0,1-.57-.73,1.94,1.94,0,0,0-.28-.47,1.07,1.07,0,0,0-.5-.3,3,3,0,0,0-1.22,0,9.88,9.88,0,0,1-1.26.15,3.79,3.79,0,0,1-1.33-.16,3.59,3.59,0,0,1-1.25-.66A3.65,3.65,0,0,1,12,39.08,5,5,0,0,1,12.83,36a7.67,7.67,0,0,1,2.43-2.22c.46-.29.93-.51,1.4-.77a3,3,0,0,0,.65-.47,3.13,3.13,0,0,0,.48-.62c.49-.88.91-1.73,1.29-2.54A14.23,14.23,0,0,0,19.93,27a8.3,8.3,0,0,0,.22-3.57,5.54,5.54,0,0,0-.26-.94,1.82,1.82,0,0,0-.09-.24l0-.08a2.06,2.06,0,0,0,.09.33,5.67,5.67,0,0,1,.21.94A8.42,8.42,0,0,1,19.78,27a15,15,0,0,1-.87,2.3c-.37.8-.81,1.66-1.29,2.51a2.61,2.61,0,0,1-1.06,1c-.45.24-.95.47-1.41.76a8,8,0,0,0-2.51,2.29,5.26,5.26,0,0,0-.91,3.25,3.88,3.88,0,0,0,1.48,2.76,4,4,0,0,0,1.32.69,4.24,4.24,0,0,0,1.4.15,9.94,9.94,0,0,0,1.28-.16,2.85,2.85,0,0,1,1.15-.06.93.93,0,0,1,.43.25,2.39,2.39,0,0,1,.27.43,2.63,2.63,0,0,0,.61.77,2.91,2.91,0,0,0,1.41.65,2.5,2.5,0,0,0,1,0A1,1,0,0,0,22.38,44.45Z"/><path class="cls-1" d="M32.32.6s0,0-.06.11L32.11,1l-.56,1.28-2,4.73c-1.69,4-4,9.51-6.59,15.61-.64,1.52-1.27,3-1.87,4.45a31.74,31.74,0,0,0-1.58,4.23,6,6,0,0,0,.21,4.05c.28.58.65,1.08.92,1.59a2.63,2.63,0,0,1,.32,1.6A5.73,5.73,0,0,1,20.47,40,8.14,8.14,0,0,0,20,41.34a2.64,2.64,0,0,0,.49,2.13,2.73,2.73,0,0,0,1.1.86,1.69,1.69,0,0,0,.47.13s-.16,0-.45-.17a2.81,2.81,0,0,1-1.05-.87,2.53,2.53,0,0,1-.43-2.05,6.63,6.63,0,0,1,.45-1.29,6,6,0,0,0,.49-1.48,2.67,2.67,0,0,0-.32-1.69c-.27-.54-.64-1-.91-1.6a5.75,5.75,0,0,1-.17-3.92,31.44,31.44,0,0,1,1.58-4.19l1.87-4.46L29.67,7.11l2-4.75.52-1.3.13-.34A.48.48,0,0,0,32.32.6Z"/><path class="cls-1" d="M22.73,20.63s0,.21-.26.37a.55.55,0,0,1-.44.1.63.63,0,0,1-.41-.36.73.73,0,0,1,0-.56.54.54,0,0,1,.31-.32.48.48,0,0,1,.32,0c.07,0,.11.06.12.05s0-.06-.08-.12a.48.48,0,0,0-.39-.09.63.63,0,0,0-.46.39.85.85,0,0,0,0,.73.81.81,0,0,0,.57.47.68.68,0,0,0,.58-.18.56.56,0,0,0,.19-.35C22.77,20.68,22.74,20.63,22.73,20.63Z"/><path class="cls-1" d="M18.89,35.7s0,.07.13.16a5,5,0,0,1,.34.48,3.44,3.44,0,0,1,.08,3.43A3.26,3.26,0,0,1,18.29,41a3.9,3.9,0,0,1-1.74.57,3.49,3.49,0,0,1-1.91-.39,2.62,2.62,0,0,1-1.28-1.43,4.39,4.39,0,0,1-.12-1.83,4.21,4.21,0,0,1,.53-1.59,3,3,0,0,1,2.12-1.46,2.73,2.73,0,0,1,.92,0,2.52,2.52,0,0,1,.55.18l.18.09s-.05-.05-.16-.13a2.71,2.71,0,0,0-.56-.23,2.75,2.75,0,0,0-.94-.06,3,3,0,0,0-1.19.41,3.18,3.18,0,0,0-1.08,1.08A4.2,4.2,0,0,0,13,37.85a4.4,4.4,0,0,0,.12,1.93,2.81,2.81,0,0,0,1.37,1.55,3.6,3.6,0,0,0,2,.41,4,4,0,0,0,1.83-.61,3.47,3.47,0,0,0,1-4.84,2.55,2.55,0,0,0-.38-.46Z"/><path class="cls-1" d="M19.07,21.29a8.58,8.58,0,0,0,.67-1.35,9,9,0,0,0,.63-1.37,3.85,3.85,0,0,0-.83,1.28A3.58,3.58,0,0,0,19.07,21.29Z"/><path class="cls-1" d="M20.08,18.55s-.09,0-.24.12l-.67.37-2.44,1.4-1.68,1c-.6.35-1.25.73-1.94,1.08a12.07,12.07,0,0,1-2.27.9,7.37,7.37,0,0,1-2.58.25c-.9,0-1.78-.19-2.64-.19A5.33,5.33,0,0,0,3.18,24a5.41,5.41,0,0,0-1.81,1.34,5.23,5.23,0,0,0-1,1.7,5.14,5.14,0,0,0,0,3.55,1,1,0,0,0,.12.24,1.87,1.87,0,0,0-.08-.26,5.24,5.24,0,0,1-.17-.74A5.38,5.38,0,0,1,.53,27a5.06,5.06,0,0,1,1-1.62,5.39,5.39,0,0,1,1.75-1.29,5.37,5.37,0,0,1,2.35-.46c.85,0,1.72.15,2.63.2a7.56,7.56,0,0,0,2.66-.26,12.15,12.15,0,0,0,2.3-.93c.7-.36,1.34-.74,1.94-1.1l1.67-1,2.4-1.47.65-.4Z"/><path class="cls-1" d="M18.88,21.2a.77.77,0,0,0-.24.08l-.67.28c-.58.24-1.42.61-2.43,1.1-.51.25-1.06.52-1.65.83s-1.22.62-1.85,1a4.35,4.35,0,0,0-1.67,1.68,5.88,5.88,0,0,0-.34,2.5A4.19,4.19,0,0,1,9.25,31a4.64,4.64,0,0,1-1.71,1.48,5.71,5.71,0,0,1-2,.57,5.84,5.84,0,0,1-1.8-.11,5.19,5.19,0,0,1-2.35-1.13,4.9,4.9,0,0,1-.51-.5,1.39,1.39,0,0,0-.17-.19,1.1,1.1,0,0,0,.13.22,4.83,4.83,0,0,0,.49.54,5.21,5.21,0,0,0,2.37,1.22,6.22,6.22,0,0,0,1.86.13,5.7,5.7,0,0,0,2.05-.57,5,5,0,0,0,1.8-1.53,4.43,4.43,0,0,0,.82-2.4,5.79,5.79,0,0,1,.32-2.42,4.19,4.19,0,0,1,1.58-1.6c.61-.39,1.25-.71,1.83-1l1.63-.85c1-.5,1.82-.89,2.39-1.17l.65-.31Z"/><path class="cls-1" d="M7.28,31.16s-.25.17-.76.4a4.09,4.09,0,0,1-2.27.3,3.27,3.27,0,0,1-1.44-.63A3.07,3.07,0,0,1,1.74,29.8a4.86,4.86,0,0,1-.16-2,3.46,3.46,0,0,1,.88-1.93,3.71,3.71,0,0,1,1.8-1.13,3.46,3.46,0,0,1,1-.13,3.89,3.89,0,0,1,1,.19,3.86,3.86,0,0,1,1.51,1,3.61,3.61,0,0,1,.81,1.35,3.4,3.4,0,0,1,.17,1.3,6.48,6.48,0,0,1-.11,1,7.86,7.86,0,0,0-.15.85.8.8,0,0,0,.07-.21,5.55,5.55,0,0,0,.16-.63,6.93,6.93,0,0,0,.16-1A3.91,3.91,0,0,0,8.7,27.1a4,4,0,0,0-2.41-2.49,3.77,3.77,0,0,0-1-.2,3.63,3.63,0,0,0-1.08.13,4,4,0,0,0-1.91,1.19,3.72,3.72,0,0,0-.92,2.05,5,5,0,0,0,.18,2.09A3.22,3.22,0,0,0,2.7,31.38,3.54,3.54,0,0,0,4.23,32a4.06,4.06,0,0,0,2.33-.38,4,4,0,0,0,.55-.34Z"/><path class="cls-1" d="M39.33,6.68s0,.05-.11.16A4.22,4.22,0,0,1,39,7.3a6.86,6.86,0,0,1-.46.7,8,8,0,0,1-.7.86,15.6,15.6,0,0,1-2.14,2c-.85.67-1.84,1.36-2.86,2.11-2,1.49-3.83,2.94-5.09,4l-1.48,1.29a4.7,4.7,0,0,0-.51.51,5.64,5.64,0,0,0,.57-.44l1.52-1.24c1.29-1,3.08-2.46,5.12-4,1-.74,2-1.43,2.86-2.12a16.19,16.19,0,0,0,2.13-2,10.93,10.93,0,0,0,.69-.9A8,8,0,0,0,39,7.34a3.47,3.47,0,0,0,.22-.48A1.44,1.44,0,0,0,39.33,6.68Z"/><path class="cls-1" d="M39.25,6.64a3.26,3.26,0,0,0-.49.25l-1.29.76c-1.08.65-2.57,1.57-4.21,2.59s-3.12,1.95-4.18,2.63l-1.25.83a2.47,2.47,0,0,0-.44.32,2.49,2.49,0,0,0,.48-.25L29.16,13c1.09-.65,2.58-1.57,4.22-2.59s3.11-1.95,4.17-2.63L38.81,7A2.47,2.47,0,0,0,39.25,6.64Z"/><path class="cls-1" d="M25.4,18.79a15.81,15.81,0,0,0,1.12-2.41c.28-.68.53-1.3.69-1.75s.31-.7.29-.72-.23.22-.43.66-.47,1-.75,1.73A15,15,0,0,0,25.4,18.79Z"/></g></g></svg>