<svg xmlns="http://www.w3.org/2000/svg" viewBox="0 0 57.79 42.57"><defs><style>.cls-1{fill:#b49c13;stroke:#b49c13;stroke-miterlimit:10;stroke-width:0.19px;}.cls-2{fill:#fad5e5;}</style></defs><g id="Layer_2" data-name="Layer 2"><g id="risba"><path class="cls-1" d="M41.94,12.74l-.51.23c-.33.17-.83.39-1.47.66l-2.38,1a19.06,19.06,0,0,0-3,1.51,9.19,9.19,0,0,0-3,2.88,5.6,5.6,0,0,0-.8,2.19,4,4,0,0,0,.34,2.44,2.64,2.64,0,0,0,.85,1,3.4,3.4,0,0,0,1.23.54,26.06,26.06,0,0,0,2.66.29,10.13,10.13,0,0,1,2.63.65,8.24,8.24,0,0,1,2.36,1.47,9.61,9.61,0,0,0,2.39,1.6,5.32,5.32,0,0,0,2.78.38,3.42,3.42,0,0,0,2.32-1.39,4.47,4.47,0,0,0,.74-2.49,12.22,12.22,0,0,0-1.15-4.6,15.19,15.19,0,0,1-.66-2A9.38,9.38,0,0,1,47,17.11a11.11,11.11,0,0,0-.36-3.38,3.09,3.09,0,0,0-1.62-2,2.22,2.22,0,0,0-1.61-.12,1.23,1.23,0,0,0-.49.28,2.73,2.73,0,0,1,.51-.22,2.25,2.25,0,0,1,1.54.16,3,3,0,0,1,1.51,1.91,11.11,11.11,0,0,1,.31,3.34,8.61,8.61,0,0,0,.21,2,13.86,13.86,0,0,0,.65,2,11.73,11.73,0,0,1,1.1,4.5,4.14,4.14,0,0,1-.7,2.33A3.1,3.1,0,0,1,46,29.25a5.06,5.06,0,0,1-2.62-.36A9.31,9.31,0,0,1,41,27.33a11,11,0,0,0-1.16-.87,8.11,8.11,0,0,0-1.28-.65,10.84,10.84,0,0,0-2.71-.66c-.91-.11-1.8-.09-2.63-.28a2.66,2.66,0,0,1-1.9-1.38A3.87,3.87,0,0,1,31,21.2a5.52,5.52,0,0,1,.76-2.09,9.06,9.06,0,0,1,2.86-2.83,20.44,20.44,0,0,1,3-1.54c.92-.39,1.72-.71,2.36-1s1.14-.53,1.46-.71l.37-.21Z"/><path class="cls-1" d="M53.19,12.33l-.22.15a5.64,5.64,0,0,0-.59.5,9.77,9.77,0,0,0-.83.9,10.37,10.37,0,0,0-.9,1.34,9.82,9.82,0,0,0-1.23,4,5.16,5.16,0,0,0,0,1.24,1.21,1.21,0,0,0,.29.63,1.69,1.69,0,0,0,.55.41,3.32,3.32,0,0,0,2.69,0,5.64,5.64,0,0,0,2.15-1.62,21.51,21.51,0,0,0,1.5-2,6.92,6.92,0,0,0,1-2,3.78,3.78,0,0,0,0-2,2.41,2.41,0,0,0-.94-1.34,2.27,2.27,0,0,0-1.16-.41,1.69,1.69,0,0,0-.77.13l-.18.09,0,0s.09,0,.25-.08a1.92,1.92,0,0,1,.74-.07,2.33,2.33,0,0,1,1.08.43,2.3,2.3,0,0,1,.83,1.26,3.5,3.5,0,0,1,0,1.87,6.62,6.62,0,0,1-.95,1.95,19.81,19.81,0,0,1-1.49,2,5.49,5.49,0,0,1-2,1.54,3,3,0,0,1-2.45,0,1.09,1.09,0,0,1-.69-.82,5.71,5.71,0,0,1,0-1.17,9.9,9.9,0,0,1,1.14-3.93A9.44,9.44,0,0,1,51.69,14a10.86,10.86,0,0,1,.77-.92A9.76,9.76,0,0,0,53.19,12.33Z"/><path class="cls-1" d="M51.79,3.76a.51.51,0,0,0-.26,0,1.83,1.83,0,0,0-.75.13,2.88,2.88,0,0,0-1,.69,7.48,7.48,0,0,0-.94,1.27A23.22,23.22,0,0,0,47,9.46a3.37,3.37,0,0,0-.15,2.45,1.85,1.85,0,0,0,.9,1,2.26,2.26,0,0,0,1.38.12A5.92,5.92,0,0,0,51.51,12a7.19,7.19,0,0,0,1.67-1.78,9.88,9.88,0,0,0,1-2,9,9,0,0,0,.52-1.85,2.84,2.84,0,0,0-.18-1.59,1.93,1.93,0,0,0-.85-.87,1.34,1.34,0,0,0-.74-.15.69.69,0,0,0-.2,0l-.06,0s.09,0,.26,0a1.33,1.33,0,0,1,.69.19,1.83,1.83,0,0,1,.74.84,2.65,2.65,0,0,1,.13,1.48A8.85,8.85,0,0,1,54,8.12,9.66,9.66,0,0,1,53,10a6.88,6.88,0,0,1-1.62,1.71,5.65,5.65,0,0,1-2.28,1,2,2,0,0,1-1.19-.09,1.62,1.62,0,0,1-.76-.85,3.12,3.12,0,0,1,.14-2.25A23.31,23.31,0,0,1,49,5.92a8.2,8.2,0,0,1,.88-1.27A2.73,2.73,0,0,1,50.83,4,2.37,2.37,0,0,1,51.79,3.76Z"/><path class="cls-1" d="M42.29,1.18s-.06.07-.13.21a6.28,6.28,0,0,0-.3.65,12.13,12.13,0,0,0-.73,2.52A12.36,12.36,0,0,0,41,8.45a4.65,4.65,0,0,0,.32,1.11,2.17,2.17,0,0,0,.78.95,1.58,1.58,0,0,0,1.27.19,3.09,3.09,0,0,0,1.16-.58,4.8,4.8,0,0,0,1.46-2,9.56,9.56,0,0,0,.6-2.24,10,10,0,0,0,.16-2.08A5.06,5.06,0,0,0,46.41,2a3.66,3.66,0,0,0-.9-1.22,3,3,0,0,0-1-.56A2.06,2.06,0,0,0,43.8.1a.61.61,0,0,0-.25,0,3.25,3.25,0,0,1,.92.16,2.9,2.9,0,0,1,.92.58,3.23,3.23,0,0,1,.82,1.17,4.66,4.66,0,0,1,.33,1.72,10.57,10.57,0,0,1-.18,2A9.69,9.69,0,0,1,45.76,8a4.54,4.54,0,0,1-1.37,1.91,1.86,1.86,0,0,1-2.1.39,2.76,2.76,0,0,1-1-1.86,12.73,12.73,0,0,1,0-3.82A13.67,13.67,0,0,1,42,2.08C42.17,1.5,42.31,1.19,42.29,1.18Z"/><path class="cls-1" d="M34.12,4.38s-.08,0-.21.17a3.53,3.53,0,0,0-.5.6,6.06,6.06,0,0,0-.9,2.7,11.65,11.65,0,0,0,0,2,12.57,12.57,0,0,0,.34,2.24,6.81,6.81,0,0,0,1.07,2.29,1.8,1.8,0,0,0,.5.49,1.46,1.46,0,0,0,.7.21,2.52,2.52,0,0,0,1.36-.43,5.36,5.36,0,0,0,1.75-2.08,10.27,10.27,0,0,0,.8-2.38A8.54,8.54,0,0,0,39.2,7.9,4.73,4.73,0,0,0,38.73,6a3.47,3.47,0,0,0-2.16-1.82,2.39,2.39,0,0,0-.78-.08.82.82,0,0,0-.26,0,4.35,4.35,0,0,1,1,.14,3.29,3.29,0,0,1,1,.57,3.82,3.82,0,0,1,1,1.23A4.88,4.88,0,0,1,39,7.91a9,9,0,0,1-.24,2.2,9.87,9.87,0,0,1-.79,2.31,5,5,0,0,1-1.66,2,2.17,2.17,0,0,1-1.18.38,1.24,1.24,0,0,1-1-.58,6.59,6.59,0,0,1-1-2.18,11,11,0,0,1-.36-2.19,12.54,12.54,0,0,1,0-1.94,6.12,6.12,0,0,1,.79-2.66A9.26,9.26,0,0,1,34.12,4.38Z"/><path class="cls-1" d="M14.52,24l-.14,0a1.9,1.9,0,0,0-.4.1,4,4,0,0,0-1.4.75A4.38,4.38,0,0,0,11.18,27a21.64,21.64,0,0,0-.64,3.26q-.3,1.82-.63,4c-.11.71-.21,1.45-.26,2.23a9.19,9.19,0,0,0,.09,2.39,5.62,5.62,0,0,0,1,2.34A3.2,3.2,0,0,0,13,42.46a4.62,4.62,0,0,0,2.65-.66,11.12,11.12,0,0,0,2.21-1.72A14.87,14.87,0,0,1,20,38.35a6.14,6.14,0,0,1,1.19-.56,8.16,8.16,0,0,1,1.28-.29A10.7,10.7,0,0,0,25,36.91a3,3,0,0,0,1.77-1.79,3.72,3.72,0,0,0-.22-2.41,7.06,7.06,0,0,0-1.17-1.93,17.06,17.06,0,0,0-3-2.68A40.6,40.6,0,0,0,17.46,25c-.61-.32-1.09-.55-1.41-.71l-.38-.17-.13-.05s0,0,.12.08l.36.2,1.38.75a45.19,45.19,0,0,1,4.84,3.18,17.14,17.14,0,0,1,3,2.66,6.94,6.94,0,0,1,1.12,1.88,3.49,3.49,0,0,1,.2,2.23,2.65,2.65,0,0,1-1.63,1.61,10.18,10.18,0,0,1-2.49.56,9,9,0,0,0-1.32.3,5.29,5.29,0,0,0-1.25.59,14.11,14.11,0,0,0-2.17,1.77,11.37,11.37,0,0,1-2.16,1.67,4.36,4.36,0,0,1-2.48.63A2.9,2.9,0,0,1,10.93,41,5.36,5.36,0,0,1,10,38.76a9.63,9.63,0,0,1-.1-2.33c0-.76.14-1.49.24-2.21.21-1.42.41-2.75.59-4a25.54,25.54,0,0,1,.6-3.24,4.38,4.38,0,0,1,1.31-2A4.48,4.48,0,0,1,14,24.2C14.33,24.08,14.52,24.05,14.52,24Z"/><path class="cls-1" d="M19.66,16.88a1,1,0,0,0-.11.26,6.4,6.4,0,0,0-.21.79,7.47,7.47,0,0,0-.19,1.27,9.89,9.89,0,0,0,0,1.71,10.27,10.27,0,0,0,.43,2,8.89,8.89,0,0,0,1,2.16,4.27,4.27,0,0,0,2,1.68A2.57,2.57,0,0,0,26.21,25a5.59,5.59,0,0,0,.26-1.39A8.94,8.94,0,0,0,26.2,21a18.38,18.38,0,0,0-.71-2.27,6.21,6.21,0,0,0-1-1.81A3.29,3.29,0,0,0,23,16a2.8,2.8,0,0,0-1.3-.14,2.15,2.15,0,0,0-.77.28.86.86,0,0,0-.22.18s.09,0,.25-.12a1.86,1.86,0,0,1,.76-.22,2.66,2.66,0,0,1,1.22.18,3.09,3.09,0,0,1,1.32,1,5.9,5.9,0,0,1,1,1.76,19.83,19.83,0,0,1,.67,2.24,8.85,8.85,0,0,1,.25,2.54,5.4,5.4,0,0,1-.25,1.32,2.61,2.61,0,0,1-.67,1.15,2.53,2.53,0,0,1-2.48.42,4.08,4.08,0,0,1-1.92-1.57,8.7,8.7,0,0,1-1-2.08,9.58,9.58,0,0,1-.52-3.65A9.63,9.63,0,0,1,19.45,18C19.57,17.26,19.69,16.89,19.66,16.88Z"/><path class="cls-1" d="M12.27,13.16a.53.53,0,0,0-.26.07,2.07,2.07,0,0,0-.63.44,2.74,2.74,0,0,0-.6,1.06,4.19,4.19,0,0,0-.11,1.61,16.75,16.75,0,0,0,.32,1.9,9.32,9.32,0,0,0,.67,2.13,4.3,4.3,0,0,0,1.62,1.88,3.23,3.23,0,0,0,1.26.45,2.63,2.63,0,0,0,1.38-.21,3.43,3.43,0,0,0,1.75-2,5.69,5.69,0,0,0,.2-2.47,6.92,6.92,0,0,0-1.61-3.81,4.81,4.81,0,0,0-2.37-1.47,4,4,0,0,0-.76-.11.76.76,0,0,0-.26,0s.36,0,1,.2a4.89,4.89,0,0,1,2.24,1.5,6.83,6.83,0,0,1,1.5,3.7,5.37,5.37,0,0,1-.21,2.34,3.1,3.1,0,0,1-1.6,1.83A2.48,2.48,0,0,1,13.43,22a4,4,0,0,1-1.53-1.75,9.33,9.33,0,0,1-.67-2.06c-.14-.67-.29-1.3-.35-1.87a4.29,4.29,0,0,1,.06-1.54,2.69,2.69,0,0,1,.53-1A2.49,2.49,0,0,1,12.27,13.16Z"/><path class="cls-1" d="M3.2,17a.75.75,0,0,0-.26.1,1.28,1.28,0,0,0-.54.58,2.05,2.05,0,0,0-.18,1.23,7.36,7.36,0,0,0,.44,1.59,9.9,9.9,0,0,0,.84,1.8,7.37,7.37,0,0,0,1.44,1.78,5.69,5.69,0,0,0,2.2,1.26,3.9,3.9,0,0,0,2.73-.09,2.22,2.22,0,0,0,1-1,2.73,2.73,0,0,0,.21-1.37,6,6,0,0,0-.88-2.39,9.73,9.73,0,0,0-3-3,5.83,5.83,0,0,0-2.68-1,3.68,3.68,0,0,0-.78,0,.78.78,0,0,0-.27.07,6.83,6.83,0,0,1,1,0,5.87,5.87,0,0,1,2.57,1.08,9.51,9.51,0,0,1,2.84,3,5.75,5.75,0,0,1,.83,2.27,2.42,2.42,0,0,1-.19,1.22,1.86,1.86,0,0,1-.89.86,3.59,3.59,0,0,1-2.52.08,5.49,5.49,0,0,1-2.1-1.18,7.41,7.41,0,0,1-1.41-1.71,10.84,10.84,0,0,1-.86-1.75,8.16,8.16,0,0,1-.47-1.53,2,2,0,0,1,.13-1.16A1.38,1.38,0,0,1,3,17.15C3.11,17.05,3.2,17,3.2,17Z"/><path class="cls-1" d="M.13,26.3a.87.87,0,0,0,0,.25,6.5,6.5,0,0,0,.19,1.86,7.71,7.71,0,0,0,3,4.48,5.22,5.22,0,0,0,2.17,1A2.55,2.55,0,0,0,7.86,33a2.23,2.23,0,0,0,.43-1.27,5.7,5.7,0,0,0-.11-1.25,7.24,7.24,0,0,0-.8-2.22,6.33,6.33,0,0,0-1.32-1.67,5.4,5.4,0,0,0-1.59-1,5,5,0,0,0-2.64-.31,4.09,4.09,0,0,0-.7.19c-.16.06-.24.1-.23.11s.33-.11,1-.18a5.05,5.05,0,0,1,2.54.38,5.14,5.14,0,0,1,1.5,1,6,6,0,0,1,1.25,1.62,7.15,7.15,0,0,1,.75,2.14,2.9,2.9,0,0,1-.26,2.28,2.26,2.26,0,0,1-2.11.74,5,5,0,0,1-2-.89A7.66,7.66,0,0,1,1,29.76a8.81,8.81,0,0,1-.53-1.39,9.51,9.51,0,0,1-.23-1.1C.15,26.65.16,26.3.13,26.3Z"/><path class="cls-2" d="M42.1,17.86A6.66,6.66,0,0,0,37,21.56a.87.87,0,0,0-.05.84c.2.27.62.21,1,.11a7.42,7.42,0,0,0,3-1.9"/><path class="cls-1" d="M40.86,20.62s-.5.46-1.43,1a7.37,7.37,0,0,1-1.71.75c-.32.1-.71.07-.75-.23a2,2,0,0,1,.38-1,6.9,6.9,0,0,1,1.49-1.74,7.29,7.29,0,0,1,1.59-1,7.77,7.77,0,0,1,1.2-.41c.3-.08.46-.11.46-.14a1.6,1.6,0,0,0-.48,0,6.37,6.37,0,0,0-1.26.34,6.77,6.77,0,0,0-1.69,1A6.42,6.42,0,0,0,37.1,21a6,6,0,0,0-.3.56,1.24,1.24,0,0,0-.12.67.63.63,0,0,0,.5.5,1.36,1.36,0,0,0,.61,0,7.22,7.22,0,0,0,1.76-.85,6.76,6.76,0,0,0,1-.83A1.53,1.53,0,0,0,40.86,20.62Z"/><path class="cls-2" d="M40.93,20.84a3.86,3.86,0,0,0-.33,1.53,1.38,1.38,0,0,0,.81,1.24,1.34,1.34,0,0,0,1.5-.73,3.17,3.17,0,0,0,.2-1.78,10.14,10.14,0,0,0-1-3.45"/><path class="cls-1" d="M42.07,17.65s.22.54.49,1.43a12.35,12.35,0,0,1,.35,1.59,4.21,4.21,0,0,1,0,1.93,1.45,1.45,0,0,1-.58.73,1,1,0,0,1-.81.15A1,1,0,0,1,40.9,23a1.61,1.61,0,0,1-.2-.68,3.57,3.57,0,0,1,.15-1.06,1.49,1.49,0,0,0,.08-.41,1.21,1.21,0,0,0-.19.37,3,3,0,0,0-.25,1.11,1.67,1.67,0,0,0,.19.79,1.26,1.26,0,0,0,.72.63,1.31,1.31,0,0,0,1.05-.16,1.8,1.8,0,0,0,.7-.88,3,3,0,0,0,.14-1.09,6.12,6.12,0,0,0-.11-1A8.89,8.89,0,0,0,42.76,19,4.4,4.4,0,0,0,42.07,17.65Z"/><path class="cls-2" d="M15.3,29.78a8.32,8.32,0,0,0,.17,5.59,1.11,1.11,0,0,0,.36.55c.47.33,1.13-.14,1.29-.69a10.7,10.7,0,0,0,.09-1.7"/><path class="cls-1" d="M17.21,33.53s-.06.13-.08.38,0,.62-.06,1a1.21,1.21,0,0,1-.25.6.92.92,0,0,1-.61.34c-.24,0-.43-.15-.55-.43a9.46,9.46,0,0,1-.31-.9,8.91,8.91,0,0,1-.26-3.37c.09-.87.26-1.39.21-1.4a3.63,3.63,0,0,0-.42,1.37,7.88,7.88,0,0,0,.19,3.48,7.61,7.61,0,0,0,.33,1,1,1,0,0,0,.31.42.72.72,0,0,0,.52.16A1.16,1.16,0,0,0,17,35.7a1.37,1.37,0,0,0,.27-.73,6.39,6.39,0,0,0,0-1A1.66,1.66,0,0,0,17.21,33.53Z"/><path class="cls-2" d="M16.87,33.16a2.39,2.39,0,0,0,1.6,1.27c.7.1,1.49-.49,1.38-1.19a1.59,1.59,0,0,0-.48-.8,6.47,6.47,0,0,0-5.17-1.91"/><path class="cls-1" d="M14.21,30.53s.61,0,1.56.16a6.75,6.75,0,0,1,3.3,1.67,2.25,2.25,0,0,1,.61.8.78.78,0,0,1-.21.79,1.33,1.33,0,0,1-.73.36,1.43,1.43,0,0,1-.72-.13,2.58,2.58,0,0,1-.86-.7c-.18-.2-.27-.32-.29-.31s0,.15.19.38a2.48,2.48,0,0,0,.87.82,1.57,1.57,0,0,0,.83.18,1.49,1.49,0,0,0,.9-.41,1.06,1.06,0,0,0,.3-1.07,2.39,2.39,0,0,0-.69-.93,6.32,6.32,0,0,0-3.47-1.65,4.86,4.86,0,0,0-1.17,0C14.35,30.48,14.2,30.51,14.21,30.53Z"/></g></g></svg>